<?xml version="1.0" encoding="utf-8"?>
<!-- Generator: Adobe Illustrator 21.1.0, SVG Export Plug-In . SVG Version: 6.00 Build 0)  -->
<svg version="1.1" id="Layer_1" xmlns="http://www.w3.org/2000/svg" xmlns:xlink="http://www.w3.org/1999/xlink" x="0px" y="0px"
	 viewBox="0 0 49.7 49.7" style="enable-background:new 0 0 49.7 49.7;" xml:space="preserve">
<style type="text/css">
	.st0{fill:#33333B;}
	.st1{clip-path:url(#SVGID_2_);fill:#5C5C62;}
	.st2{fill:none;stroke:#5C5C62;stroke-miterlimit:10;}
	.st3{clip-path:url(#SVGID_4_);fill:#FFFFFF;}
	.st4{clip-path:url(#SVGID_6_);fill:#5C5C62;}
	.st5{clip-path:url(#SVGID_8_);fill:#5C5C62;}
	.st6{clip-path:url(#SVGID_10_);fill:#5C5C62;}
	.st7{clip-path:url(#SVGID_12_);fill:#FFFFFF;}
	.st8{clip-path:url(#SVGID_14_);fill:#FFFFFF;}
	.st9{clip-path:url(#SVGID_16_);fill:#FFFFFF;}
	.st10{clip-path:url(#SVGID_18_);fill:#5C5C62;}
	.st11{clip-path:url(#SVGID_20_);fill:#FFFFFF;}
	.st12{clip-path:url(#SVGID_22_);fill:#5C5C62;}
	.st13{clip-path:url(#SVGID_24_);fill:#FFFFFF;}
	.st14{fill-rule:evenodd;clip-rule:evenodd;fill:#5C5C62;}
	.st15{fill-rule:evenodd;clip-rule:evenodd;fill:#FFFFFF;}
</style>
<circle class="st0" cx="25.1" cy="25" r="24.3"/>
<g>
	<defs>
		<path id="SVGID_19_" d="M19,39c12.2,0,18.9-10.1,18.9-18.9c0-0.3,0-0.6,0-0.9c1.3-0.9,2.4-2.1,3.3-3.4c-1.2,0.5-2.5,0.9-3.8,1
			c1.4-0.8,2.4-2.1,2.9-3.7c-1.3,0.8-2.7,1.3-4.2,1.6c-1.2-1.3-2.9-2.1-4.8-2.1c-3.7,0-6.6,3-6.6,6.6c0,0.5,0.1,1,0.2,1.5
			c-5.5-0.3-10.4-2.9-13.7-6.9c-0.6,1-0.9,2.1-0.9,3.3c0,2.3,1.2,4.3,2.9,5.5c-1.1,0-2.1-0.3-3-0.8c0,0,0,0.1,0,0.1
			c0,3.2,2.3,5.9,5.3,6.5c-0.6,0.2-1.1,0.2-1.7,0.2c-0.4,0-0.8,0-1.2-0.1c0.8,2.6,3.3,4.5,6.2,4.6c-2.3,1.8-5.1,2.8-8.2,2.8
			c-0.5,0-1.1,0-1.6-0.1C11.8,37.9,15.3,39,19,39"/>
	</defs>
	<use xlink:href="#SVGID_19_"  style="overflow:visible;fill-rule:evenodd;clip-rule:evenodd;fill:#FFFFFF;"/>
	<clipPath id="SVGID_2_">
		<use xlink:href="#SVGID_19_"  style="overflow:visible;"/>
	</clipPath>
	<rect x="0.9" y="4.7" style="clip-path:url(#SVGID_2_);fill:#FFFFFF;" width="48.3" height="42.3"/>
</g>
</svg>
