<svg width="21" height="22" viewBox="0 0 21 22" fill="none" xmlns="http://www.w3.org/2000/svg">
<path d="M8.86429 16.7289C9.02389 16.7289 9.18349 16.6701 9.30949 16.5441C9.55309 16.3005 9.55309 15.8973 9.30949 15.6537L4.65589 11.0001L9.30949 6.34654C9.55309 6.10294 9.55309 5.69974 9.30949 5.45614C9.06589 5.21254 8.66269 5.21254 8.41909 5.45614L3.32029 10.5549C3.07669 10.7985 3.07669 11.2017 3.32029 11.4453L8.41909 16.5441C8.54509 16.6701 8.70469 16.7289 8.86429 16.7289Z" fill="#2D3740"/>
<path d="M3.90858 11.6301H18.0458C18.3902 11.6301 18.6758 11.3445 18.6758 11.0001C18.6758 10.6557 18.3902 10.3701 18.0458 10.3701H3.90858C3.56418 10.3701 3.27858 10.6557 3.27858 11.0001C3.27858 11.3445 3.56418 11.6301 3.90858 11.6301Z" fill="#2D3740"/>
</svg>
