<svg width="45" height="46" viewBox="0 0 45 46" fill="none" xmlns="http://www.w3.org/2000/svg">
<g id="Group 39835">
<path id="Vector" fill-rule="evenodd" clip-rule="evenodd" d="M31.0106 37.0273C30.6185 37.4409 30.1399 37.7874 29.6154 38.0166C29.5942 38.0389 29.55 38.0389 29.5288 38.0389C29.5076 38.1544 29.4635 38.2699 29.4193 38.3836C29.3098 38.6146 29.2233 38.8679 29.1367 39.1194C29.3098 39.0505 29.4635 39.0058 29.6154 38.9369C30.1823 38.7301 30.7051 38.3836 31.1643 37.97C31.3815 37.7632 31.2508 37.8098 31.5122 37.5788H31.5352C31.491 37.5341 31.4469 37.4875 31.4027 37.4409C31.295 37.2807 31.1643 37.1428 31.0106 37.0273Z" fill="#C3E0A0"/>
<path id="Vector_2" fill-rule="evenodd" clip-rule="evenodd" d="M14.5084 14.606C14.7256 14.6284 14.8351 14.8817 14.6832 15.0419C14.572 15.1332 14.4342 15.1444 14.2911 15.1444C14.2488 15.1444 14.2064 15.1425 14.164 15.1425C14.0951 15.1425 14.028 15.1444 13.9626 15.1574C13.265 15.2506 12.5673 15.4332 11.9351 15.7331C10.6493 16.3311 9.45004 17.0893 8.3391 18.0096C7.31295 18.9523 6.41926 20.0104 5.65627 21.2064C5.52557 21.389 5.48318 21.6647 5.26418 21.7579C5.24122 21.7653 5.21826 21.7672 5.1953 21.7672C5.06813 21.7672 4.9551 21.6647 4.93743 21.5269C4.93743 21.3667 5.04694 21.2288 5.08933 21.0686V21.0909C5.48318 20.2396 6.00598 19.4813 6.63827 18.7902C7.44365 17.8028 8.42565 16.9515 9.51538 16.3069C11.0414 15.3419 12.721 14.606 14.5084 14.606ZM16.2428 19.8204C16.5854 19.8204 16.9298 19.8446 17.2778 19.8949V19.9173C17.5162 19.9862 17.495 20.3551 17.2336 20.3774C16.9581 20.3402 16.6755 20.3234 16.3894 20.3234C16.1562 20.3234 15.9213 20.3346 15.6847 20.3551C12.7864 20.791 9.99579 23.0228 7.9894 25.7129C7.83751 25.8731 7.72801 26.1507 7.46661 26.1731C7.31295 26.1731 7.18225 26.011 7.20521 25.8508C7.20521 25.7129 7.33591 25.5974 7.40126 25.4838C9.43237 22.4788 12.6451 19.8204 16.2428 19.8204ZM19.6974 23.5966C19.8935 23.5966 19.98 23.8276 19.8493 23.9878C19.6533 24.1257 19.3707 24.0568 19.1305 24.1033C18.4099 24.1723 17.691 24.3325 17.0146 24.5858C14.5296 25.5974 12.3289 27.438 10.4091 29.6214C10.2572 29.7369 10.1689 29.9903 9.95163 29.9903C9.58073 29.9437 9.58073 29.5525 9.82093 29.3457C11.1509 27.6448 12.7864 26.2197 14.6179 25.1615C16.1651 24.1946 17.9101 23.6655 19.6974 23.5966ZM22.1489 27.7212C22.4456 27.7212 22.5428 28.1869 22.2266 28.3117C21.2234 28.4496 20.2414 28.7253 19.2824 29.0942C16.8186 30.0368 14.7044 31.7843 12.8075 33.9453C12.6327 34.1055 12.525 34.3831 12.2618 34.4055C12.0234 34.4055 11.8697 34.1521 12.0004 33.923C13.1343 32.3357 14.5737 30.9795 16.1863 29.9437C17.9313 28.703 20.003 28.036 22.0518 27.7361C22.0853 27.7249 22.1189 27.7212 22.1489 27.7212ZM25.2344 31.9687C25.3439 31.9687 25.4305 32.0376 25.4746 32.1289C25.7131 32.3376 25.5718 32.7381 25.2803 32.7381C25.2521 32.7381 25.2221 32.7344 25.1903 32.7269V32.7493C25.0137 32.7325 24.8353 32.7232 24.6569 32.7232C24.1376 32.7232 23.6237 32.7959 23.1203 32.9337C20.1337 33.6696 17.3643 35.2103 15.0965 37.3955C14.9217 37.5091 14.791 37.7401 14.5737 37.7401C14.4218 37.7401 14.2894 37.6023 14.2894 37.4402C14.2894 37.2576 14.4218 37.1421 14.5296 37.0266C16.4053 34.9811 18.8691 33.5541 21.4195 32.6804C22.428 32.3394 23.5036 32.0153 24.588 32.0153C24.7452 32.0153 24.9024 32.0227 25.0596 32.0376C25.1037 31.9911 25.1691 31.9687 25.2344 31.9687ZM14.224 11.8228C11.0643 11.9159 8.3603 12.6965 6.18083 14.1682C5.02398 14.9506 3.99959 15.9157 3.19244 17.0893C2.34291 18.2388 1.75477 19.5969 1.44922 21.022C5.26418 27.7827 9.25399 34.9569 12.7634 41.2816C13.484 40.4079 14.3123 39.672 15.2714 39.0964C16.2304 38.476 17.2548 37.9693 18.3022 37.5557C19.5879 37.0043 20.9391 36.6131 22.3132 36.3839C22.9931 36.3001 23.6731 36.2591 24.3531 36.2591C24.807 36.2591 25.2609 36.2777 25.7148 36.315C26.9794 36.3839 28.2864 36.5218 29.3549 37.2576C29.4203 37.2334 29.4856 37.2111 29.5298 37.1645C28.0038 34.7501 26.6509 32.1979 25.1691 29.7146C23.3163 26.4712 21.3541 23.2762 19.4572 20.0551C18.258 18.1475 17.1683 16.1467 15.9478 14.2614C15.4674 13.3876 14.8793 12.5586 14.224 11.8228Z" fill="#FFBBAA"/>
<path id="Vector_3" fill-rule="evenodd" clip-rule="evenodd" d="M41.9554 21.0444C41.9342 21.0687 41.8901 21.091 41.8459 21.1134C40.4948 21.689 39.209 22.4696 38.031 23.3899C36.701 24.5393 35.6325 26.0576 34.7388 27.4139C33.7798 28.8167 32.9514 30.2884 32.2326 31.8533C31.5773 33.325 31.2065 34.9346 31.1853 36.5665C31.1853 36.6131 31.1853 36.6597 31.1641 36.7286C31.2948 36.8199 31.4255 36.9112 31.535 37.0509C31.512 36.6597 31.535 36.2443 31.5562 35.8549C31.8617 33.4852 32.9726 31.4155 34.2814 29.5991C35.7632 27.3002 37.7042 25.3907 39.972 24.0121C40.516 23.6433 41.1271 23.3675 41.7152 23.0452C41.8689 22.9763 42.0208 22.885 42.1727 22.7919C42.1303 22.723 42.1073 22.6317 42.1073 22.5404C42.0861 22.4249 42.0861 22.3317 42.0649 22.2405C41.8036 22.3783 41.4538 22.4472 41.279 22.5404C40.735 22.723 40.2105 22.9763 39.7106 23.2986C38.5767 23.9655 37.5506 24.8169 36.6569 25.8043C36.6269 25.8509 36.5827 25.8713 36.5386 25.8713C36.4291 25.8713 36.3178 25.7465 36.3955 25.5975C37.1373 24.7238 37.9868 23.9655 38.9035 23.2986C39.6223 22.7695 40.3641 22.3094 41.1713 21.9424C41.3885 21.8269 41.6057 21.7114 41.8459 21.6201C41.8901 21.5959 41.9342 21.5959 41.9996 21.5959C41.9996 21.4133 41.9766 21.2289 41.9554 21.0444Z" fill="#C3E0A0"/>
<path id="Vector_4" fill-rule="evenodd" clip-rule="evenodd" d="M30.4225 1.06006L30.3359 1.10663C32.6461 4.80831 40.9083 17.9626 42.1517 20.0789V20.1013C42.1959 20.1236 42.2382 20.1479 42.2612 20.1702C41.4099 18.7451 40.5604 17.2957 39.6667 15.8705C38.2272 13.363 36.7666 10.8573 35.1965 8.46529C33.5628 6.02855 32.0138 3.22295 30.4225 1.06006Z" fill="#F6B0F7"/>
<path id="Vector_5" fill-rule="evenodd" clip-rule="evenodd" d="M28.6916 3.81373C28.8559 3.81373 28.9548 3.99816 28.8771 4.16583C28.8541 4.21054 28.8117 4.23476 28.7464 4.25712C28.4409 4.32605 28.1141 4.37262 27.8086 4.4639C27.0456 4.69491 26.325 5.01534 25.6273 5.43078C22.9904 7.08508 20.8533 9.57025 19.1525 12.1672C19.0006 12.3293 18.9123 12.5826 18.7162 12.6739C18.6933 12.6795 18.6721 12.6814 18.6491 12.6814C18.4601 12.6814 18.3065 12.5137 18.3453 12.3293H18.3242C18.3683 12.1914 18.4337 12.0536 18.5202 11.9381C19.7636 9.77705 21.3761 7.88987 23.2518 6.32686C24.799 4.97063 26.6517 4.11926 28.6369 3.82119C28.6546 3.81559 28.674 3.81373 28.6916 3.81373ZM30.5603 8.16C30.6945 8.16 30.8075 8.32208 30.7298 8.46552C30.7069 8.5121 30.6645 8.55681 30.5991 8.58103C30.3148 8.69653 30.0092 8.81017 29.7266 8.92567C29.0731 9.22375 28.4409 9.57025 27.8298 10.0062C25.3447 11.7536 23.3383 14.1922 21.7258 16.9047C21.6163 17.0426 21.551 17.227 21.3761 17.2959C21.3532 17.3015 21.3284 17.3034 21.3055 17.3034C21.0423 17.3034 20.8904 16.9569 21.0706 16.7445C23.1423 12.8341 26.4557 9.59261 30.5108 8.16745C30.5285 8.16186 30.5444 8.16 30.5603 8.16ZM32.8969 12.9254C33.0382 12.9254 33.1636 13.0801 33.1283 13.2496C33.1053 13.3632 32.9746 13.4098 32.8669 13.4564C31.8849 13.9389 30.9259 14.468 30.0092 15.066C27.8086 16.4911 26.1289 18.5609 24.6912 20.815C24.5376 21.0218 24.4069 21.2975 24.1896 21.3888C24.1596 21.3981 24.1314 21.4037 24.1031 21.4037C23.9177 21.4037 23.7587 21.2212 23.7958 21.0218C24.8873 18.9987 26.325 17.2046 28.0488 15.7329C29.4652 14.5145 31.1661 13.7544 32.7998 12.9496C32.8316 12.9329 32.8651 12.9254 32.8969 12.9254ZM35.0005 16.7985C35.2354 16.7985 35.3696 17.132 35.1559 17.2959C34.4353 17.5959 33.7376 17.9852 33.0842 18.4007C30.6415 20.1239 28.5274 22.2868 26.8266 24.8167C26.6959 24.9992 26.6093 25.2526 26.3903 25.3439C26.3691 25.3495 26.3462 25.3513 26.3232 25.3513C26.1307 25.3513 25.9576 25.1799 25.977 24.9545C26.5864 23.6206 27.6991 22.447 28.6581 21.3665C30.4455 19.4569 32.5614 17.8026 34.9157 16.8134C34.9439 16.8041 34.9722 16.7985 35.0005 16.7985ZM36.9274 20.4462C37.1005 20.4462 37.2188 20.7033 37.0528 20.8597C36.2456 21.3441 35.4597 21.8732 34.7196 22.4936C32.5172 24.3789 30.9912 26.4952 29.4864 28.9096C29.3769 29.0474 29.3116 29.2542 29.1385 29.3231C29.1138 29.3287 29.089 29.3306 29.0643 29.3306C28.8594 29.3306 28.704 29.1592 28.7234 28.9319C29.2038 27.8514 29.988 26.8864 30.6857 25.9195C32.3865 23.7119 34.4794 21.8732 36.8338 20.4704C36.8655 20.4536 36.8973 20.4462 36.9274 20.4462ZM29.082 0.782715C26.6005 0.782715 23.9441 1.79802 20.788 3.95904C19.5675 4.73962 18.4337 5.7065 17.4517 6.83358C17.1479 7.20058 16.8635 7.5918 16.6021 8.02959C15.9698 9.1101 15.4029 10.2372 14.9225 11.4313C14.9013 11.4556 14.8801 11.5003 14.8359 11.5245C14.9878 11.6847 15.1203 11.8226 15.251 11.9846C16.6463 13.8234 17.7572 15.8708 18.9564 17.8716C21.1359 21.5267 23.3613 25.1613 25.4966 28.863C26.9802 31.3463 28.3313 33.9228 29.8573 36.3595C29.9227 36.4974 30.0322 36.6352 30.1187 36.7731C30.2282 36.6818 30.3377 36.5905 30.4455 36.475C30.4455 35.1188 30.7069 33.7849 31.1661 32.52C31.2738 32.1753 31.4045 31.8288 31.5582 31.4842C32.277 29.8746 33.1495 28.3581 34.1297 26.9311C35.0676 25.5283 36.1573 23.9653 37.5756 22.7469C38.7518 21.8043 40.0606 21.0218 41.4347 20.4238C39.8857 17.8026 30.4684 2.73881 29.2462 0.784574C29.1915 0.784574 29.1367 0.782715 29.082 0.782715Z" fill="#FFBBAA"/>
<path id="Vector_6" fill-rule="evenodd" clip-rule="evenodd" d="M24.3286 37.063C23.6945 37.063 23.0587 37.0984 22.4246 37.1655C21.1159 37.3965 19.8301 37.7635 18.5867 38.3149C16.7781 39.0508 14.7064 40.0642 13.267 41.9253C13.2016 42.0184 13.0939 42.0874 13.0056 42.1339V42.2476C13.8569 41.3981 14.9678 40.8224 16.0151 40.271C16.7128 39.9245 17.3663 39.4662 18.0851 39.1663C18.0992 39.1625 18.1134 39.1607 18.1275 39.1607C18.2794 39.1607 18.3783 39.3842 18.2388 39.5109C17.8679 39.673 17.3221 39.9245 16.8435 40.2021C15.6001 40.869 14.3143 41.5583 13.3765 42.4786C13.2246 42.5699 13.1363 42.7543 12.9844 42.8232V43.3057C13.1804 43.0524 13.3977 42.799 13.6167 42.5699C14.6852 41.3515 16.167 40.7535 17.6065 40.1778C19.8548 39.211 22.2551 38.7229 24.6747 38.7229C25.3053 38.7229 25.9358 38.7545 26.5663 38.8216C27.2852 38.9129 28.0058 39.0284 28.7246 39.2128V39.1886C28.7688 39.0508 28.8129 38.8905 28.8553 38.775C28.2884 38.6372 27.7002 38.477 27.1333 38.3838C26.4127 38.2441 25.662 38.1808 24.8991 38.1808C23.5373 38.1808 22.1385 38.382 20.8103 38.7061C20.6796 38.7527 20.5277 38.775 20.397 38.775C20.201 38.7303 20.1357 38.477 20.3087 38.3615C20.941 38.1323 21.6175 38.1323 22.271 38.0168C23.2282 37.8771 24.1855 37.81 25.1428 37.81C25.6038 37.81 26.063 37.8268 26.5222 37.8566C27.3735 37.9702 28.223 37.9479 29.0302 38.2702C29.0743 38.177 29.0955 38.1081 29.1397 38.0168C29.0743 38.0168 29.0302 37.9702 28.986 37.9479C28.0711 37.3033 26.8507 37.1897 25.6938 37.1207C25.2399 37.0816 24.7842 37.063 24.3286 37.063Z" fill="#FFBBAA"/>
<path id="Vector_7" fill-rule="evenodd" clip-rule="evenodd" d="M42.2812 20.2173C42.5214 21.0221 42.6963 21.8269 42.827 22.654C42.827 22.7472 42.804 22.8385 42.7387 22.885C42.7828 22.9763 42.804 23.0918 42.7828 23.1831C42.7386 23.321 42.6309 23.4141 42.5002 23.4588C41.9333 23.7811 41.3222 24.0568 40.7552 24.4015C39.4694 25.1373 38.2914 26.0353 37.2229 27.0934C35.8276 28.4273 35.0875 29.6904 34.019 31.2776C33.2984 32.3824 32.7756 33.6007 32.4277 34.888C32.1663 35.9238 31.9914 36.6131 32.0992 37.6471C32.0992 37.716 32.078 37.7626 32.0338 37.8091C32.0568 37.9246 32.0338 38.0159 31.9914 38.1072C31.8166 38.3382 31.6417 38.5674 31.4015 38.7294C30.7039 39.3274 29.8543 39.741 28.9607 39.9236C28.9059 39.9571 28.8494 39.9683 28.7946 39.9683C28.6533 39.9683 28.5138 39.8882 28.3725 39.8547C27.8056 39.741 27.2598 39.6479 26.6929 39.5789C25.9988 39.4932 25.2976 39.4523 24.5999 39.4523C23.8105 39.4523 23.021 39.5044 22.2456 39.6032C20.4141 39.9236 18.6267 40.4769 16.9259 41.2351C16.1417 41.5574 15.3787 41.9933 14.7022 42.5001C14.0912 43.0515 13.5472 43.6737 13.0668 44.3406C13.0014 44.4543 12.8919 44.5232 12.7842 44.5232C12.7135 44.5884 12.627 44.6201 12.544 44.6201C12.4221 44.6201 12.3038 44.5549 12.2384 44.4319C11.3447 42.8447 10.4069 41.3264 9.53439 39.741C8.59832 37.9004 7.48562 36.1753 6.48243 34.4055C4.69505 31.1621 2.92887 27.8982 1.07614 24.7014C0.989597 24.7927 0.924247 24.8616 0.835938 24.9306C0.966635 25.1373 1.09733 25.3683 1.25099 25.5751C1.96983 26.678 2.51558 27.874 3.19026 29.0235C3.97621 30.4263 4.80455 31.8291 5.58874 33.2561C6.50539 35.0035 7.35492 36.7733 8.31396 38.5226C9.55735 40.7302 10.9738 42.8447 12.3038 45.0299C12.3691 45.1678 12.4345 45.2833 12.5228 45.3969C12.5881 45.3522 12.6305 45.3057 12.6959 45.2833C12.8707 45.1678 13.0456 45.0057 13.1975 44.8455C15.2904 42.5913 18.0386 41.0972 20.8945 40.2459C22.2509 39.9888 23.6268 39.8621 25.0009 39.8621C26.2107 39.8621 27.4188 39.9609 28.6109 40.1546C28.9165 40.1546 29.2009 40.108 29.4834 40.0167C30.552 39.7168 31.8607 38.8673 32.3623 38.1538C32.4489 38.0625 32.493 37.9246 32.5796 37.8315C32.5142 36.9112 32.6237 36.0151 32.9063 35.1637C34.4323 30.1748 37.267 27.1847 41.4529 24.5636C41.9986 24.2413 42.5214 23.8035 43.1537 23.6656L43.2632 23.6209H43.2844C43.4805 23.5054 43.6977 23.3899 43.9167 23.252L43.9379 23.2055V23.1831C43.3939 22.1715 42.8482 21.2065 42.2812 20.2173Z" fill="#F6B0F7"/>
<path id="Vector_8" fill-rule="evenodd" clip-rule="evenodd" d="M1.25237 22.1943V22.3098C1.25237 22.4253 1.22941 22.5166 1.22941 22.6098C1.25237 22.6098 1.25237 22.6321 1.27357 22.6321C1.68862 23.2301 1.97121 23.9436 2.3633 24.564C2.79955 25.3222 3.27995 26.0357 3.69324 26.794C6.5209 32.1444 7.48347 33.9738 7.45697 33.9738C7.41459 33.9738 5.12208 29.8194 3.56254 27.2765C2.7342 25.9426 1.88466 24.6329 1.18702 23.2525C1.18702 23.3214 1.18702 23.3903 1.16406 23.4835C1.27357 23.6437 1.38307 23.8281 1.49257 24.0349C2.38626 25.6445 3.36649 27.2075 4.23899 28.8413C5.74378 31.578 7.20441 34.3594 8.83813 37.0272C9.42804 38.0387 9.95083 39.0503 10.5178 40.0861C11.2154 41.2356 11.8919 42.385 12.5454 43.581C12.5665 43.581 12.5665 43.6052 12.5665 43.6052C12.5665 43.214 12.5895 42.8228 12.6107 42.4092C12.6107 42.3161 12.6107 42.2248 12.6107 42.1335C12.4358 42.0869 12.284 41.9714 12.1956 41.8112C8.79574 35.6933 4.95783 28.7948 1.25237 22.1943Z" fill="#FFBBAA"/>
<path id="Vector_9" fill-rule="evenodd" clip-rule="evenodd" d="M30.4225 1.06002C32.0139 3.2229 33.5398 6.02851 35.1965 8.46525C36.7667 10.8796 38.2273 13.363 39.6667 15.8705C40.5569 17.2919 41.4064 18.7134 42.2542 20.1814C42.2295 20.1478 42.1906 20.1441 42.1517 20.1236C40.9084 18.0092 32.6673 4.85485 30.336 1.12894L30.4225 1.06002ZM29.0802 0.782436C29.135 0.782436 29.1897 0.784304 29.2445 0.784304C30.4879 2.73854 39.9069 17.8024 41.4753 20.4235C40.103 21.0215 38.7942 21.804 37.6162 22.769C36.1997 23.965 35.0888 25.5522 34.1721 26.9308C33.1919 28.3578 32.3194 29.8985 31.6006 31.4839C30.9029 33.0488 30.5091 34.7496 30.4667 36.4971C30.3784 36.5902 30.2706 36.6815 30.1611 36.7728C30.0728 36.6349 29.9651 36.4971 29.8997 36.3592C28.3508 33.9225 26.9997 31.346 25.539 28.8627C23.4019 25.1834 21.1783 21.5264 18.9988 17.8713C17.7996 15.8928 16.6869 13.8231 15.2916 11.9844C15.1609 11.8465 15.0302 11.7086 14.8783 11.5466C14.8995 11.5 14.8995 11.4776 14.9207 11.4311C15.7279 9.61469 16.4255 8.1206 17.4729 6.8333C18.4531 5.70622 19.5658 4.73935 20.8074 3.95877C23.9654 1.79775 26.5987 0.782436 29.0802 0.782436ZM41.9769 21.0215C41.9999 21.1818 41.9999 21.3662 42.0211 21.5506C41.9557 21.5506 41.9116 21.5506 41.8692 21.573C41.629 21.6643 41.41 21.7798 41.1927 21.8953C40.3856 22.2623 39.6438 22.7224 38.9249 23.2757C38.01 23.9184 37.1587 24.7009 36.4187 25.5746C36.341 25.705 36.4487 25.8354 36.5582 25.8354C36.6024 25.8354 36.6483 25.8131 36.6801 25.759C37.5738 24.7698 38.5982 23.9427 39.7321 23.2515C40.2337 22.9534 40.7565 22.7001 41.3022 22.4933C41.4753 22.4001 41.8462 22.3312 42.0864 22.2176C42.0864 22.3088 42.1076 22.4001 42.1306 22.4933C42.1306 22.5846 42.1517 22.6777 42.1959 22.769C42.0422 22.8379 41.8904 22.9534 41.7385 22.9981C41.1486 23.3204 40.5604 23.6204 39.9935 23.965C37.7257 25.3678 35.7864 27.2531 34.3028 29.552C32.9958 31.3926 31.8832 33.4623 31.6218 35.7612C31.5564 36.1748 31.5352 36.6126 31.5564 37.0262C31.4469 36.8883 31.3162 36.7728 31.1855 36.6815C31.2067 36.6349 31.2067 36.566 31.2067 36.5213C31.2297 34.8875 31.6006 33.2779 32.2541 31.8062C32.9729 30.2432 33.8012 28.7714 34.7603 27.391C35.6557 26.0348 36.7225 24.5164 38.0524 23.367C39.2305 22.4244 40.5163 21.6643 41.8692 21.0905C41.9116 21.0681 41.9557 21.0439 41.9769 21.0215ZM31.0336 37.0038C31.1855 37.1193 31.3162 37.2572 31.4469 37.4174C31.4699 37.464 31.5123 37.5087 31.5352 37.5552C31.2721 37.7862 31.4028 37.762 31.1855 37.9465C30.7281 38.3824 30.2053 38.7047 29.6383 38.9357C29.4847 38.9804 29.3328 39.0493 29.1579 39.0959C29.2445 38.8425 29.3328 38.591 29.4423 38.36C29.4847 38.2688 29.5288 38.1532 29.55 38.0377C29.573 38.0377 29.5942 38.0154 29.6383 38.0154C30.1611 37.7862 30.6398 37.4397 31.0336 37.0038ZM14.246 11.8223C14.8342 12.3979 15.4011 13.363 15.9469 14.2367C17.1885 16.1462 18.2782 18.147 19.4563 20.0547C21.3744 23.2757 23.3366 26.4707 25.1893 29.7141C26.6729 32.1974 28.0028 34.7496 29.55 37.1882L29.3752 37.2795C28.2854 36.5437 26.9785 36.4058 25.7351 36.3369C25.2617 36.2977 24.7849 36.2791 24.308 36.2791C23.6439 36.2791 22.9816 36.3164 22.3334 36.3834C20.9611 36.6126 19.6082 37.0038 18.3224 37.5776C16.4485 38.3377 14.3326 39.3716 12.7854 41.3035C9.25304 34.9806 5.28443 27.8046 1.46947 21.0439C2.03641 18.3072 3.73725 15.8239 6.17988 14.1677H6.20107C8.38055 12.696 11.0634 11.9154 14.246 11.8223ZM24.3257 37.0392C24.7813 37.0392 25.237 37.0578 25.6909 37.0951C26.8478 37.164 28.0682 37.2795 28.9831 37.9465C29.0272 37.9688 29.0926 37.993 29.1367 38.0154C29.0926 38.0843 29.0714 38.1756 29.0272 38.2445C28.2201 37.9241 27.3706 37.9465 26.5193 37.8552C26.0477 37.8161 25.5761 37.7974 25.1028 37.7974C24.1579 37.7974 23.213 37.8701 22.268 37.993C21.6358 38.1309 20.9169 38.1309 20.3058 38.3377C20.1327 38.4513 20.1751 38.7047 20.3712 38.7513H20.3941C20.5248 38.7513 20.6767 38.7289 20.8074 38.6823C22.1356 38.3582 23.5344 38.157 24.8961 38.157C25.6591 38.157 26.4097 38.2203 27.1304 38.36C27.6973 38.4513 28.2854 38.6134 28.8524 38.7513C28.81 38.8891 28.7658 39.0493 28.7217 39.1648V39.1872C28.024 39.0046 27.2822 38.8891 26.5634 38.8202C25.9064 38.7457 25.2458 38.7084 24.5888 38.7084C22.1974 38.7084 19.8254 39.1984 17.6036 40.1541C16.1853 40.7297 14.6823 41.3501 13.6137 42.5461C13.3947 42.7752 13.1775 43.0286 12.9815 43.282V42.7976C13.1333 42.7287 13.2217 42.5461 13.3735 42.4529C14.3114 41.5569 15.5972 40.8676 16.8406 40.1764C17.3192 39.9231 17.865 39.6716 18.2359 39.4871C18.3701 39.366 18.2835 39.1537 18.1422 39.1537C18.1228 39.1537 18.1034 39.1574 18.0822 39.1648C17.3634 39.4406 16.7099 39.9007 16.0122 40.2453C14.9649 40.7986 13.8539 41.3724 13.0026 42.2238V42.1325V42.1083C13.091 42.0617 13.1987 41.9928 13.264 41.9015C14.7035 40.0386 16.7752 39.027 18.5838 38.2911C19.8272 37.762 21.113 37.3708 22.4217 37.1417C23.0558 37.0746 23.6916 37.0392 24.3257 37.0392ZM1.25223 22.171C4.95768 28.7714 8.7956 35.6699 12.1955 41.786C12.2838 41.9481 12.4357 42.0617 12.6106 42.1083C12.6106 42.2014 12.6106 42.2927 12.6106 42.4082C12.6106 42.7976 12.5664 43.1888 12.5894 43.6042C12.5664 43.58 12.5664 43.58 12.5664 43.5577C11.8917 42.384 11.2153 41.2122 10.5176 40.0628C9.97188 39.0493 9.42789 38.0154 8.83799 37.0262C7.20427 34.3584 5.74363 31.5528 4.23884 28.8161C3.36635 27.1842 2.38612 25.6212 1.49243 24.0116C1.38292 23.8029 1.27342 23.6204 1.16392 23.4583C1.16392 23.3894 1.16392 23.3204 1.16392 23.2515L1.18688 23.2291C1.88452 24.6319 2.75701 25.9416 3.5624 27.2531C5.1237 29.7979 7.42504 33.956 7.46566 33.956C7.49215 33.956 6.52605 32.1285 3.69309 26.793C3.301 26.0105 2.7994 25.2989 2.36316 24.5388C1.97106 23.9184 1.68847 23.2291 1.27342 22.6088C1.27342 22.6088 1.25223 22.5846 1.22927 22.5846C1.22927 22.4933 1.25223 22.4001 1.25223 22.3088V22.171ZM42.2824 20.1925C42.8282 21.1818 43.3951 22.1486 43.9179 23.136V23.1602V23.2291C43.6989 23.367 43.4817 23.4825 43.2856 23.5961H43.2645L43.1549 23.6427C42.5227 23.7806 41.9999 24.2184 41.4541 24.5388C37.2682 27.1842 34.4335 30.15 32.9075 35.1409C32.625 35.9922 32.5154 36.9107 32.5808 37.8086C32.4943 37.8999 32.4501 38.0377 32.3636 38.1309C31.862 38.8425 30.5532 39.7163 29.4847 39.9939C29.2021 40.0851 28.9177 40.1317 28.6122 40.1541C27.4147 39.9491 26.2031 39.8448 24.9897 39.8448C23.6192 39.8448 22.2486 39.9771 20.8957 40.2453C18.0398 41.0744 15.2916 42.5684 13.1987 44.8226C13.0468 44.9828 12.8719 45.1449 12.6971 45.2586C12.6317 45.3051 12.5894 45.3275 12.524 45.3741C12.4357 45.2586 12.3704 45.1449 12.305 45.0294C10.9751 42.8218 9.57978 40.7055 8.294 38.4979C7.35615 36.7728 6.50662 34.9806 5.56878 33.2313C4.80579 31.7838 3.97745 30.4257 3.19149 29.0006C2.51681 27.8511 1.97106 26.6551 1.25222 25.5522C1.09857 25.3436 0.967868 25.1145 0.815978 24.9077C0.925479 24.8611 0.990829 24.7922 1.05618 24.7009C2.9301 27.8735 4.69628 31.1392 6.46247 34.3826C7.48685 36.1524 8.57659 37.8775 9.53563 39.7163C10.3869 41.3035 11.346 42.8218 12.2397 44.409C12.305 44.5301 12.4233 44.5972 12.5452 44.5972C12.6282 44.5972 12.7148 44.5655 12.7854 44.5003C12.8931 44.5003 13.0026 44.4314 13.0468 44.3159C13.5254 43.649 14.0712 43.0286 14.6823 42.4772C15.3799 41.9704 16.12 41.5345 16.9271 41.2122C18.6279 40.4521 20.3941 39.9007 22.2257 39.5784C23.0116 39.4815 23.7993 39.4294 24.587 39.4294C25.2829 39.4294 25.977 39.4704 26.6729 39.5561C27.2399 39.625 27.8068 39.7163 28.3508 39.8318C28.4921 39.8653 28.644 39.9454 28.7835 39.9454C28.8383 39.9454 28.8912 39.9342 28.9407 39.9007C29.8344 39.7163 30.6839 39.3027 31.4028 38.7047C31.6218 38.5445 31.8178 38.3135 31.9697 38.0843C32.0139 37.993 32.035 37.8999 32.035 37.7862C32.0792 37.7397 32.1004 37.6931 32.1004 37.6242C31.9697 36.566 32.1446 35.8991 32.4289 34.8651C32.7557 33.5778 33.2996 32.3576 34.0202 31.2547C35.0658 29.6451 35.8288 28.3802 37.2029 27.0687C38.2714 26.0105 39.4707 25.1145 40.7565 24.3786C41.3234 24.0339 41.9116 23.7582 42.5015 23.4359C42.6322 23.3894 42.7187 23.2981 42.7628 23.1602C42.784 23.0671 42.784 22.9534 42.7187 22.8603C42.784 22.8156 42.8282 22.7224 42.8282 22.6311C42.6975 21.804 42.5015 20.9973 42.2824 20.1925ZM29.0361 0C26.408 0 23.6457 1.04139 20.3712 3.29183C19.0854 4.11898 17.9091 5.13057 16.883 6.30422C15.7067 7.75174 14.8995 9.56998 14.246 11.0417H14.2019L14.1365 10.9951C14.1136 10.9896 14.0906 10.9858 14.0712 10.9858C14.0147 10.9858 13.967 11.0082 13.9193 11.0417C10.7349 11.1796 7.98845 12.0067 5.76482 13.5008C3.14911 15.2725 1.31757 17.9626 0.706474 20.8837C0.706474 20.975 0.706474 21.0681 0.706474 21.1594C0.596971 21.8487 0.489232 22.769 0.445078 23.4825V23.5272C0.379728 23.734 0.489232 23.965 0.664086 24.0563L0.794783 24.2407C0.750628 24.2407 0.729433 24.2631 0.706474 24.2631C0.531621 24.4009 0.445078 24.4475 0.379728 24.5164C0.370899 24.5164 0.362068 24.5164 0.353237 24.5164C0.0423887 24.5164 -0.114803 24.8909 0.0971405 25.1145C0.750628 25.9192 1.60016 27.4823 2.34196 28.6093C3.86794 31.0237 5.13253 33.6468 6.39712 36.2214C7.4215 38.2911 8.5342 40.2919 9.73344 42.2238C10.4523 43.3732 11.1287 44.5916 11.9129 45.6721C12.0224 45.7876 12.1302 45.9255 12.2838 45.9255C12.328 45.9255 12.3704 45.9255 12.4145 45.9031C12.4587 45.9497 12.5011 45.9721 12.5452 45.9944C12.5752 45.9981 12.6035 46 12.6317 46C13.1687 46 13.5025 45.402 13.8751 45.076C15.357 43.5577 17.1232 42.384 19.0854 41.6258C20.5036 41.0054 22.0296 40.6608 23.5768 40.6366C25.0162 40.59 26.4327 40.5211 27.8492 40.5211C28.1124 40.5211 28.3737 40.5676 28.6122 40.59H28.6775C28.7058 40.5919 28.7323 40.5919 28.7588 40.5919C30.1258 40.5919 31.4663 40.0199 32.4713 39.027C32.6461 38.8202 32.821 38.6134 32.9517 38.3824C33.017 38.3135 33.0612 38.2445 33.1036 38.1532C33.2131 38.0843 33.2784 37.9688 33.2784 37.8552C33.1477 36.5213 33.5398 35.4166 34.0414 34.0361C35.2619 30.5878 38.2273 27.3221 41.3676 25.2523C41.9345 24.8853 42.5438 24.563 43.1761 24.3097C43.2415 24.2873 43.2856 24.2407 43.3298 24.2184H43.3722C43.5029 24.2184 43.6124 24.1252 43.6777 24.0116C43.8084 23.965 43.9179 23.9184 44.0274 23.8495C44.1581 23.7582 44.2888 23.6427 44.3754 23.5049C44.4619 23.5049 44.529 23.4359 44.5502 23.367C44.6156 23.136 44.4849 22.9292 44.4195 22.7224C43.0454 20.1236 41.4983 17.6403 39.9935 15.1346C38.2273 12.0757 36.3304 9.10983 34.4335 6.14215C33.3438 4.37235 32.2752 2.55597 31.099 0.830879C30.9895 0.668802 30.9029 0.439656 30.7051 0.393082C30.6733 0.381901 30.6398 0.376315 30.608 0.376315C30.5126 0.376315 30.4225 0.428475 30.3572 0.530938C30.2477 0.530938 30.1399 0.555159 30.0304 0.624087L29.8344 0.3018C29.7037 0.117362 29.5076 0.00372696 29.2886 0.00372696C29.2039 0 29.1208 0 29.0361 0Z" fill="black"/>
<path id="Vector_10" fill-rule="evenodd" clip-rule="evenodd" d="M28.6895 3.81348C28.6718 3.81348 28.6541 3.81534 28.6347 3.82092C26.6495 4.09664 24.7968 4.97037 23.2496 6.30424C21.3739 7.86726 19.7614 9.77678 18.518 11.9378C18.4315 12.0533 18.3661 12.167 18.322 12.3048C18.3025 12.5116 18.458 12.6811 18.6469 12.6811C18.6699 12.6811 18.6911 12.6793 18.714 12.6737C18.9101 12.5824 18.9984 12.329 19.1503 12.1446C20.8723 9.57 22.9882 7.06246 25.6251 5.43052C26.3228 5.01508 27.0434 4.69465 27.8064 4.46364C28.1119 4.37236 28.4387 4.30343 28.7442 4.25686C28.8096 4.2345 28.8519 4.21029 28.8749 4.14135C28.9526 3.99604 28.8537 3.81348 28.6895 3.81348Z" fill="black"/>
<path id="Vector_11" fill-rule="evenodd" clip-rule="evenodd" d="M30.5644 8.16016C30.5468 8.16016 30.5291 8.16202 30.5097 8.1676C26.4545 9.59276 23.1412 12.8343 21.0924 16.7446C20.8911 16.957 21.0606 17.3035 21.3273 17.3035C21.3503 17.3035 21.3732 17.3017 21.3979 17.2961C21.571 17.2271 21.6364 17.0427 21.7459 16.9048C23.3602 14.1924 25.3648 11.7538 27.8498 10.0063C28.4397 9.57041 29.072 9.2239 29.7467 8.92583C30.0311 8.81032 30.3136 8.69668 30.6192 8.58118C30.6634 8.55696 30.7057 8.51225 30.7287 8.46568C30.8064 8.32223 30.7093 8.16016 30.5644 8.16016Z" fill="black"/>
<path id="Vector_12" fill-rule="evenodd" clip-rule="evenodd" d="M32.9025 12.9146C32.8619 12.9146 32.8195 12.9257 32.7771 12.9499C31.1416 13.7547 29.4637 14.5148 28.0243 15.7332C26.3235 17.2049 24.8858 18.999 23.7943 21.0221C23.7766 21.2215 23.9374 21.404 24.1228 21.404C24.1511 21.404 24.1811 21.3984 24.2094 21.3891C24.4496 21.2978 24.5361 21.0221 24.7109 20.8153C26.1504 18.5612 27.8283 16.4914 30.0307 15.0663C30.9456 14.4683 31.8834 13.9168 32.8866 13.4567C32.9732 13.4101 33.1039 13.3635 33.1268 13.2499C33.178 13.0673 33.0526 12.9146 32.9025 12.9146Z" fill="black"/>
<path id="Vector_13" fill-rule="evenodd" clip-rule="evenodd" d="M35.0055 16.8267C34.9843 16.8267 34.9613 16.8304 34.9383 16.836C32.5628 17.8028 30.4469 19.4572 28.6596 21.3667C27.7005 22.4472 26.5878 23.6209 25.9785 24.9547C25.9396 25.1727 26.1004 25.359 26.2982 25.359C26.33 25.359 26.36 25.3534 26.3918 25.3441C26.6108 25.2528 26.6973 24.9771 26.828 24.8169C28.5289 22.287 30.643 20.1241 33.0856 18.4232C33.7391 17.9854 34.4367 17.6184 35.1574 17.2961C35.3552 17.1285 35.228 16.8267 35.0055 16.8267Z" fill="black"/>
<path id="Vector_14" fill-rule="evenodd" clip-rule="evenodd" d="M36.9557 20.4111C36.9168 20.4111 36.8779 20.4223 36.8356 20.4465C34.4812 21.8493 32.4095 23.7123 30.6875 25.9199C29.9898 26.8868 29.2268 27.8294 28.7482 28.9323C28.7093 29.1484 28.8648 29.3142 29.0467 29.3142C29.0767 29.3142 29.1085 29.3105 29.1403 29.3011C29.3134 29.2546 29.4017 29.0478 29.5112 28.8857C30.993 26.4955 32.519 24.3792 34.7426 22.4939C35.4615 21.8736 36.2474 21.3445 37.0546 20.8377C37.2736 20.7222 37.1552 20.4111 36.9557 20.4111Z" fill="black"/>
<path id="Vector_15" fill-rule="evenodd" clip-rule="evenodd" d="M14.5307 14.606C12.7433 14.606 11.0425 15.3418 9.53768 16.2845C8.42675 16.9291 7.44475 17.7562 6.63937 18.7678C6.00707 19.4347 5.48428 20.2172 5.09042 21.0685C5.04803 21.2064 4.93853 21.3443 4.95973 21.5045C4.97915 21.6405 5.09219 21.7448 5.21936 21.7448C5.24055 21.7448 5.26351 21.7411 5.28647 21.7336C5.50548 21.6647 5.54963 21.3666 5.68033 21.1822C6.44332 20.0104 7.33701 18.9299 8.3614 17.9854C9.45113 17.0893 10.6716 16.3311 11.9362 15.733C12.5914 15.4331 13.289 15.2263 13.9867 15.1574C14.2039 15.1108 14.4883 15.1798 14.6843 15.0419C14.8362 14.8817 14.7267 14.606 14.5307 14.606Z" fill="black"/>
<path id="Vector_16" fill-rule="evenodd" clip-rule="evenodd" d="M16.2433 19.8208C12.6421 19.8208 9.41349 22.4792 7.4018 25.4842C7.33645 25.5978 7.22695 25.691 7.20576 25.8288C7.18279 26.0114 7.31349 26.1735 7.46715 26.1735C7.72855 26.1511 7.83805 25.8512 7.98994 25.691C9.99633 22.999 12.7869 20.7914 15.6852 20.3555C15.906 20.3257 16.125 20.3126 16.3422 20.3126C16.6442 20.3126 16.9427 20.3387 17.2342 20.3778C17.4955 20.3331 17.5167 19.9643 17.2783 19.8953C16.9304 19.845 16.586 19.8208 16.2433 19.8208Z" fill="black"/>
<path id="Vector_17" fill-rule="evenodd" clip-rule="evenodd" d="M19.6953 23.5747C17.9079 23.666 16.1629 24.1951 14.6158 25.1377C12.7842 26.2201 11.1487 27.6229 9.8188 29.3461C9.5786 29.5529 9.5786 29.9441 9.94949 29.9684C10.1455 29.9684 10.255 29.7373 10.4069 29.5995C12.3268 27.4143 14.5274 25.5755 17.0125 24.5639C17.6889 24.3106 18.4078 24.1504 19.1284 24.1038C19.3686 24.0349 19.6511 24.1038 19.8472 23.9659C19.9779 23.8281 19.8913 23.5747 19.6953 23.5747Z" fill="black"/>
<path id="Vector_18" fill-rule="evenodd" clip-rule="evenodd" d="M22.1856 27.7217C22.1573 27.7217 22.1273 27.7273 22.0973 27.7366C20.0043 28.0123 17.9538 28.6792 16.2106 29.9218C14.5751 30.98 13.1586 32.3362 12.0247 33.9458C11.8993 34.1451 12.0335 34.4078 12.2579 34.4078C12.2667 34.4078 12.2755 34.406 12.2861 34.406C12.5263 34.406 12.657 34.1302 12.8301 33.9458C14.7058 31.7848 16.8429 30.0373 19.2837 29.0947C20.2428 28.7258 21.2248 28.4501 22.228 28.3122C22.5653 28.2079 22.4682 27.7217 22.1856 27.7217Z" fill="black"/>
<path id="Vector_19" fill-rule="evenodd" clip-rule="evenodd" d="M25.1988 31.9863C25.1458 31.9863 25.0963 32.0236 25.0593 32.0608C24.9021 32.0459 24.7449 32.0385 24.5894 32.0385C23.5085 32.0385 22.4471 32.3626 21.4192 32.7054C18.8688 33.5791 16.405 34.982 14.5293 37.0275C14.4215 37.1653 14.2891 37.2585 14.2891 37.441C14.2891 37.6031 14.4215 37.741 14.5734 37.7633C14.7907 37.7633 14.9214 37.51 15.0962 37.3963C17.364 35.2111 20.1334 33.6704 23.12 32.9122C23.6233 32.7744 24.1373 32.7017 24.6566 32.7017C24.8349 32.7017 25.0133 32.7091 25.1899 32.7278C25.2147 32.7334 25.2394 32.7352 25.2624 32.7352C25.545 32.7352 25.6951 32.3645 25.4743 32.1521C25.4354 32.0534 25.3648 31.9863 25.2747 31.9863C25.2624 31.9863 25.2482 31.9882 25.2341 31.9919C25.2217 31.9882 25.2111 31.9863 25.1988 31.9863Z" fill="black"/>
<path id="Vector_20" fill-rule="evenodd" clip-rule="evenodd" d="M3.19078 17.0894C2.36244 18.2388 1.7743 19.5969 1.46875 21.022C5.28371 27.7827 9.27352 34.9569 12.7847 41.2816C13.4823 40.4079 14.3319 39.6721 15.2697 39.0964C14.2453 38.2003 13.2863 37.2111 12.435 36.1306C10.0807 33.1871 8.35863 29.7369 6.74434 26.2886C5.37202 23.3209 4.04208 20.2396 3.19078 17.0894Z" fill="white" fill-opacity="0.4464"/>
<path id="Vector_21" fill-rule="evenodd" clip-rule="evenodd" d="M16.6217 8.02979C15.9894 9.1103 15.4224 10.2597 14.9208 11.4315C14.9208 11.4558 14.8784 11.5005 14.8555 11.547C15.0091 11.6849 15.1398 11.847 15.2705 11.9848C16.6658 13.8236 17.7785 15.8933 18.976 17.8718C21.1572 21.5269 23.3808 25.1615 25.5179 28.8632C26.9786 31.3465 28.3297 33.923 29.8769 36.3597C29.9422 36.4752 30.0517 36.6354 30.14 36.7733C30.2478 36.682 30.3573 36.5907 30.4438 36.4752C30.4668 35.119 30.7052 33.7851 31.1856 32.5201L30.7935 32.1979C23.6634 26.0352 18.6722 17.5271 16.6217 8.02979Z" fill="white" fill-opacity="0.4464"/>
</g>
</svg>
