<svg width="12" height="12" viewBox="0 0 12 12" fill="none" xmlns="http://www.w3.org/2000/svg">
<g clip-path="url(#clip0_6443_8226)">
<path d="M8.79541 1.41699V2.33366M3.29541 1.41699V2.33366" stroke="#2D3740" stroke-linecap="round" stroke-linejoin="round"/>
<path d="M6.04368 6.45898H6.04779M6.04368 8.29232H6.04779M7.87496 6.45898H7.87907M4.2124 6.45898H4.21651M4.2124 8.29232H4.21651" stroke="#2D3740" stroke-linecap="round" stroke-linejoin="round"/>
<path d="M2.1499 4.16699H9.94157" stroke="#2D3740" stroke-linecap="round" stroke-linejoin="round"/>
<path d="M1.69141 6.11149C1.69141 4.11439 1.69141 3.11584 2.26529 2.49542C2.83918 1.875 3.76284 1.875 5.61016 1.875H6.48099C8.32831 1.875 9.25196 1.875 9.82585 2.49542C10.3997 3.11584 10.3997 4.11439 10.3997 6.11149V6.34685C10.3997 8.34395 10.3997 9.34249 9.82585 9.96291C9.25196 10.5833 8.32831 10.5833 6.48099 10.5833H5.61016C3.76284 10.5833 2.83918 10.5833 2.26529 9.96291C1.69141 9.34249 1.69141 8.34395 1.69141 6.34685V6.11149Z" stroke="#2D3740" stroke-linecap="round" stroke-linejoin="round"/>
<path d="M1.92041 4.16699H10.1704" stroke="#2D3740" stroke-linecap="round" stroke-linejoin="round"/>
</g>
<defs>
<clipPath id="clip0_6443_8226">
<rect width="11" height="11" fill="white" transform="translate(0.54541 0.5)"/>
</clipPath>
</defs>
</svg>
