<svg width="17" height="16" viewBox="0 0 17 16" fill="none" xmlns="http://www.w3.org/2000/svg">
<g id="copy-05">
<path id="Icon" d="M5.83325 10.6666V12.5333C5.83325 13.28 5.83325 13.6534 5.97858 13.9386C6.10641 14.1895 6.31038 14.3934 6.56126 14.5213C6.84648 14.6666 7.21985 14.6666 7.96659 14.6666H13.0333C13.78 14.6666 14.1534 14.6666 14.4386 14.5213C14.6895 14.3934 14.8934 14.1895 15.0213 13.9386C15.1666 13.6534 15.1666 13.28 15.1666 12.5333V7.46659C15.1666 6.71985 15.1666 6.34648 15.0213 6.06126C14.8934 5.81038 14.6895 5.60641 14.4386 5.47858C14.1534 5.33325 13.78 5.33325 13.0333 5.33325H11.1666M3.96659 10.6666H9.03325C9.77999 10.6666 10.1534 10.6666 10.4386 10.5213C10.6895 10.3934 10.8934 10.1895 11.0213 9.93857C11.1666 9.65336 11.1666 9.27999 11.1666 8.53325V3.46659C11.1666 2.71985 11.1666 2.34648 11.0213 2.06126C10.8934 1.81038 10.6895 1.60641 10.4386 1.47858C10.1534 1.33325 9.77999 1.33325 9.03325 1.33325H3.96659C3.21985 1.33325 2.84648 1.33325 2.56126 1.47858C2.31038 1.60641 2.10641 1.81038 1.97858 2.06126C1.83325 2.34648 1.83325 2.71985 1.83325 3.46659V8.53325C1.83325 9.27999 1.83325 9.65336 1.97858 9.93857C2.10641 10.1895 2.31038 10.3934 2.56126 10.5213C2.84648 10.6666 3.21985 10.6666 3.96659 10.6666Z" stroke="#ACACAC" stroke-width="1.5" stroke-linecap="round" stroke-linejoin="round"/>
</g>
</svg>
