<svg width="73" height="8" viewBox="0 0 73 8" fill="none" xmlns="http://www.w3.org/2000/svg">
<path d="M72.1768 4.17678C72.2744 4.07915 72.2744 3.92085 72.1768 3.82322L70.5858 2.23223C70.4882 2.1346 70.3299 2.1346 70.2322 2.23223C70.1346 2.32986 70.1346 2.48816 70.2322 2.58579L71.6464 4L70.2322 5.41421C70.1346 5.51184 70.1346 5.67014 70.2322 5.76777C70.3299 5.8654 70.4882 5.8654 70.5858 5.76777L72.1768 4.17678ZM1 4.25C1.13807 4.25 1.25 4.13807 1.25 4C1.25 3.86193 1.13807 3.75 1 3.75L1 4.25ZM3 3.75C2.86193 3.75 2.75 3.86193 2.75 4C2.75 4.13807 2.86193 4.25 3 4.25V3.75ZM5 4.25C5.13807 4.25 5.25 4.13807 5.25 4C5.25 3.86193 5.13807 3.75 5 3.75V4.25ZM7 3.75C6.86193 3.75 6.75 3.86193 6.75 4C6.75 4.13807 6.86193 4.25 7 4.25V3.75ZM9 4.25C9.13807 4.25 9.25 4.13807 9.25 4C9.25 3.86193 9.13807 3.75 9 3.75V4.25ZM11 3.75C10.8619 3.75 10.75 3.86193 10.75 4C10.75 4.13807 10.8619 4.25 11 4.25V3.75ZM13 4.25C13.1381 4.25 13.25 4.13807 13.25 4C13.25 3.86193 13.1381 3.75 13 3.75V4.25ZM15 3.75C14.8619 3.75 14.75 3.86193 14.75 4C14.75 4.13807 14.8619 4.25 15 4.25V3.75ZM17 4.25C17.1381 4.25 17.25 4.13807 17.25 4C17.25 3.86193 17.1381 3.75 17 3.75V4.25ZM19 3.75C18.8619 3.75 18.75 3.86193 18.75 4C18.75 4.13807 18.8619 4.25 19 4.25V3.75ZM21 4.25C21.1381 4.25 21.25 4.13807 21.25 4C21.25 3.86193 21.1381 3.75 21 3.75V4.25ZM23 3.75C22.8619 3.75 22.75 3.86193 22.75 4C22.75 4.13807 22.8619 4.25 23 4.25V3.75ZM25 4.25C25.1381 4.25 25.25 4.13807 25.25 4C25.25 3.86193 25.1381 3.75 25 3.75V4.25ZM27 3.75C26.8619 3.75 26.75 3.86193 26.75 4C26.75 4.13807 26.8619 4.25 27 4.25V3.75ZM29 4.25C29.1381 4.25 29.25 4.13807 29.25 4C29.25 3.86193 29.1381 3.75 29 3.75V4.25ZM31 3.75C30.8619 3.75 30.75 3.86193 30.75 4C30.75 4.13807 30.8619 4.25 31 4.25V3.75ZM33 4.25C33.1381 4.25 33.25 4.13807 33.25 4C33.25 3.86193 33.1381 3.75 33 3.75V4.25ZM35 3.75C34.8619 3.75 34.75 3.86193 34.75 4C34.75 4.13807 34.8619 4.25 35 4.25V3.75ZM37 4.25C37.1381 4.25 37.25 4.13807 37.25 4C37.25 3.86193 37.1381 3.75 37 3.75V4.25ZM39 3.75C38.8619 3.75 38.75 3.86193 38.75 4C38.75 4.13807 38.8619 4.25 39 4.25V3.75ZM41 4.25C41.1381 4.25 41.25 4.13807 41.25 4C41.25 3.86193 41.1381 3.75 41 3.75V4.25ZM43 3.75C42.8619 3.75 42.75 3.86193 42.75 4C42.75 4.13807 42.8619 4.25 43 4.25V3.75ZM45 4.25C45.1381 4.25 45.25 4.13807 45.25 4C45.25 3.86193 45.1381 3.75 45 3.75V4.25ZM47 3.75C46.8619 3.75 46.75 3.86193 46.75 4C46.75 4.13807 46.8619 4.25 47 4.25V3.75ZM49 4.25C49.1381 4.25 49.25 4.13807 49.25 4C49.25 3.86193 49.1381 3.75 49 3.75V4.25ZM51 3.75C50.8619 3.75 50.75 3.86193 50.75 4C50.75 4.13807 50.8619 4.25 51 4.25V3.75ZM53 4.25C53.1381 4.25 53.25 4.13807 53.25 4C53.25 3.86193 53.1381 3.75 53 3.75V4.25ZM55 3.75C54.8619 3.75 54.75 3.86193 54.75 4C54.75 4.13807 54.8619 4.25 55 4.25V3.75ZM57 4.25C57.1381 4.25 57.25 4.13807 57.25 4C57.25 3.86193 57.1381 3.75 57 3.75V4.25ZM59 3.75C58.8619 3.75 58.75 3.86193 58.75 4C58.75 4.13807 58.8619 4.25 59 4.25V3.75ZM61 4.25C61.1381 4.25 61.25 4.13807 61.25 4C61.25 3.86193 61.1381 3.75 61 3.75V4.25ZM63 3.75C62.8619 3.75 62.75 3.86193 62.75 4C62.75 4.13807 62.8619 4.25 63 4.25V3.75ZM65 4.25C65.1381 4.25 65.25 4.13807 65.25 4C65.25 3.86193 65.1381 3.75 65 3.75V4.25ZM67 3.75C66.8619 3.75 66.75 3.86193 66.75 4C66.75 4.13807 66.8619 4.25 67 4.25V3.75ZM69 4.25C69.1381 4.25 69.25 4.13807 69.25 4C69.25 3.86193 69.1381 3.75 69 3.75V4.25ZM71 3.75C70.8619 3.75 70.75 3.86193 70.75 4C70.75 4.13807 70.8619 4.25 71 4.25V3.75ZM0 4.25H1L1 3.75H0L0 4.25ZM3 4.25H5V3.75L3 3.75V4.25ZM7 4.25H9V3.75L7 3.75V4.25ZM11 4.25L13 4.25V3.75L11 3.75V4.25ZM15 4.25L17 4.25V3.75L15 3.75V4.25ZM19 4.25L21 4.25V3.75L19 3.75V4.25ZM23 4.25L25 4.25V3.75L23 3.75V4.25ZM27 4.25L29 4.25V3.75L27 3.75V4.25ZM31 4.25H33V3.75L31 3.75V4.25ZM35 4.25H37V3.75L35 3.75V4.25ZM39 4.25H41V3.75L39 3.75V4.25ZM43 4.25H45V3.75L43 3.75V4.25ZM47 4.25L49 4.25V3.75L47 3.75V4.25ZM51 4.25L53 4.25V3.75L51 3.75V4.25ZM55 4.25L57 4.25V3.75L55 3.75V4.25ZM59 4.25L61 4.25V3.75L59 3.75V4.25ZM63 4.25L65 4.25V3.75L63 3.75V4.25ZM67 4.25L69 4.25V3.75L67 3.75V4.25ZM71 4.25H72V3.75L71 3.75V4.25ZM72.3536 4.35355C72.5488 4.15829 72.5488 3.84171 72.3536 3.64645L69.1716 0.464466C68.9763 0.269204 68.6597 0.269204 68.4645 0.464466C68.2692 0.659728 68.2692 0.976311 68.4645 1.17157L71.2929 4L68.4645 6.82843C68.2692 7.02369 68.2692 7.34027 68.4645 7.53553C68.6597 7.7308 68.9763 7.7308 69.1716 7.53553L72.3536 4.35355ZM1 4.5C1.27614 4.5 1.5 4.27614 1.5 4C1.5 3.72386 1.27614 3.5 1 3.5L1 4.5ZM3 3.5C2.72386 3.5 2.5 3.72386 2.5 4C2.5 4.27614 2.72386 4.5 3 4.5V3.5ZM5 4.5C5.27614 4.5 5.5 4.27614 5.5 4C5.5 3.72386 5.27614 3.5 5 3.5V4.5ZM7 3.5C6.72386 3.5 6.5 3.72386 6.5 4C6.5 4.27614 6.72386 4.5 7 4.5V3.5ZM9 4.5C9.27614 4.5 9.5 4.27614 9.5 4C9.5 3.72386 9.27614 3.5 9 3.5V4.5ZM11 3.5C10.7239 3.5 10.5 3.72386 10.5 4C10.5 4.27614 10.7239 4.5 11 4.5V3.5ZM13 4.5C13.2761 4.5 13.5 4.27614 13.5 4C13.5 3.72386 13.2761 3.5 13 3.5V4.5ZM15 3.5C14.7239 3.5 14.5 3.72386 14.5 4C14.5 4.27614 14.7239 4.5 15 4.5V3.5ZM17 4.5C17.2761 4.5 17.5 4.27614 17.5 4C17.5 3.72386 17.2761 3.5 17 3.5V4.5ZM19 3.5C18.7239 3.5 18.5 3.72386 18.5 4C18.5 4.27614 18.7239 4.5 19 4.5V3.5ZM21 4.5C21.2761 4.5 21.5 4.27614 21.5 4C21.5 3.72386 21.2761 3.5 21 3.5V4.5ZM23 3.5C22.7239 3.5 22.5 3.72386 22.5 4C22.5 4.27614 22.7239 4.5 23 4.5V3.5ZM25 4.5C25.2761 4.5 25.5 4.27614 25.5 4C25.5 3.72386 25.2761 3.5 25 3.5V4.5ZM27 3.5C26.7239 3.5 26.5 3.72386 26.5 4C26.5 4.27614 26.7239 4.5 27 4.5V3.5ZM29 4.5C29.2761 4.5 29.5 4.27614 29.5 4C29.5 3.72386 29.2761 3.5 29 3.5V4.5ZM31 3.5C30.7239 3.5 30.5 3.72386 30.5 4C30.5 4.27614 30.7239 4.5 31 4.5V3.5ZM33 4.5C33.2761 4.5 33.5 4.27614 33.5 4C33.5 3.72386 33.2761 3.5 33 3.5V4.5ZM35 3.5C34.7239 3.5 34.5 3.72386 34.5 4C34.5 4.27614 34.7239 4.5 35 4.5V3.5ZM37 4.5C37.2761 4.5 37.5 4.27614 37.5 4C37.5 3.72386 37.2761 3.5 37 3.5V4.5ZM39 3.5C38.7239 3.5 38.5 3.72386 38.5 4C38.5 4.27614 38.7239 4.5 39 4.5V3.5ZM41 4.5C41.2761 4.5 41.5 4.27614 41.5 4C41.5 3.72386 41.2761 3.5 41 3.5V4.5ZM43 3.5C42.7239 3.5 42.5 3.72386 42.5 4C42.5 4.27614 42.7239 4.5 43 4.5V3.5ZM45 4.5C45.2761 4.5 45.5 4.27614 45.5 4C45.5 3.72386 45.2761 3.5 45 3.5V4.5ZM47 3.5C46.7239 3.5 46.5 3.72386 46.5 4C46.5 4.27614 46.7239 4.5 47 4.5V3.5ZM49 4.5C49.2761 4.5 49.5 4.27614 49.5 4C49.5 3.72386 49.2761 3.5 49 3.5V4.5ZM51 3.5C50.7239 3.5 50.5 3.72386 50.5 4C50.5 4.27614 50.7239 4.5 51 4.5V3.5ZM53 4.5C53.2761 4.5 53.5 4.27614 53.5 4C53.5 3.72386 53.2761 3.5 53 3.5V4.5ZM55 3.5C54.7239 3.5 54.5 3.72386 54.5 4C54.5 4.27614 54.7239 4.5 55 4.5V3.5ZM57 4.5C57.2761 4.5 57.5 4.27614 57.5 4C57.5 3.72386 57.2761 3.5 57 3.5V4.5ZM59 3.5C58.7239 3.5 58.5 3.72386 58.5 4C58.5 4.27614 58.7239 4.5 59 4.5V3.5ZM61 4.5C61.2761 4.5 61.5 4.27614 61.5 4C61.5 3.72386 61.2761 3.5 61 3.5V4.5ZM63 3.5C62.7239 3.5 62.5 3.72386 62.5 4C62.5 4.27614 62.7239 4.5 63 4.5V3.5ZM65 4.5C65.2761 4.5 65.5 4.27614 65.5 4C65.5 3.72386 65.2761 3.5 65 3.5V4.5ZM67 3.5C66.7239 3.5 66.5 3.72386 66.5 4C66.5 4.27614 66.7239 4.5 67 4.5V3.5ZM69 4.5C69.2761 4.5 69.5 4.27614 69.5 4C69.5 3.72386 69.2761 3.5 69 3.5V4.5ZM71 3.5C70.7239 3.5 70.5 3.72386 70.5 4C70.5 4.27614 70.7239 4.5 71 4.5V3.5ZM0 4.5H1L1 3.5H0L0 4.5ZM3 4.5H5V3.5L3 3.5V4.5ZM7 4.5H9V3.5L7 3.5V4.5ZM11 4.5L13 4.5V3.5L11 3.5V4.5ZM15 4.5L17 4.5V3.5L15 3.5V4.5ZM19 4.5L21 4.5V3.5L19 3.5V4.5ZM23 4.5L25 4.5V3.5L23 3.5V4.5ZM27 4.5L29 4.5V3.5L27 3.5V4.5ZM31 4.5H33V3.5L31 3.5V4.5ZM35 4.5H37V3.5L35 3.5V4.5ZM39 4.5H41V3.5H39V4.5ZM43 4.5H45V3.5L43 3.5V4.5ZM47 4.5L49 4.5V3.5L47 3.5V4.5ZM51 4.5L53 4.5V3.5L51 3.5V4.5ZM55 4.5L57 4.5V3.5L55 3.5V4.5ZM59 4.5L61 4.5V3.5L59 3.5V4.5ZM63 4.5L65 4.5V3.5L63 3.5V4.5ZM67 4.5L69 4.5V3.5L67 3.5V4.5ZM71 4.5H72V3.5L71 3.5V4.5Z" fill="#2D3740"/>
</svg>
