<svg width="45" height="35" viewBox="0 0 45 35" fill="none" xmlns="http://www.w3.org/2000/svg">
<g id="International">
<path id="path3808" fill-rule="evenodd" clip-rule="evenodd" d="M12.9793 30.6524V32.4712V34.2899H12.1832V33.8483C11.9306 34.1758 11.5474 34.3813 11.0266 34.3813C9.9998 34.3813 9.19485 33.5826 9.19485 32.4712C9.19485 31.3606 9.9998 30.561 11.0266 30.561C11.5474 30.561 11.9306 30.7665 12.1832 31.094V30.6524H12.9793ZM11.1257 31.3065C10.4365 31.3065 10.0147 31.8318 10.0147 32.4711C10.0147 33.1105 10.4365 33.6357 11.1257 33.6357C11.7842 33.6357 12.2288 33.1331 12.2288 32.4711C12.2288 31.8091 11.7842 31.3065 11.1257 31.3065ZM39.8846 32.4711C39.8846 31.8318 40.3063 31.3065 40.9955 31.3065C41.6549 31.3065 42.0986 31.8091 42.0986 32.4711C42.0986 33.1331 41.6549 33.6357 40.9955 33.6357C40.3063 33.6357 39.8846 33.1105 39.8846 32.4711ZM42.8501 29.1917V32.4712V34.2899H42.0531V33.8483C41.8005 34.1758 41.4173 34.3813 40.8965 34.3813C39.8697 34.3813 39.0648 33.5826 39.0648 32.4712C39.0648 31.3606 39.8697 30.561 40.8965 30.561C41.4173 30.561 41.8005 30.7665 42.0531 31.094V29.1917L42.8501 29.1917ZM22.8624 31.2691C23.3753 31.2691 23.705 31.5888 23.7892 32.1515H21.889C21.9741 31.6262 22.295 31.2691 22.8624 31.2691ZM21.0542 32.4712C21.0542 31.3371 21.8048 30.561 22.8781 30.561C23.904 30.561 24.609 31.3371 24.6169 32.4712C24.6169 32.5774 24.609 32.6767 24.6011 32.7751H21.882C21.9968 33.4302 22.4642 33.6662 22.9772 33.6662C23.3446 33.6662 23.7356 33.5286 24.0425 33.2856L24.4327 33.8718C23.9882 34.2446 23.4831 34.3813 22.9316 34.3813C21.8355 34.3813 21.0542 33.6279 21.0542 32.4712ZM32.4919 32.4711C32.4919 31.8318 32.9137 31.3065 33.6029 31.3065C34.2614 31.3065 34.706 31.8091 34.706 32.4711C34.706 33.1331 34.2614 33.6357 33.6029 33.6357C32.9137 33.6357 32.4919 33.1105 32.4919 32.4711ZM35.4565 30.6524V32.4712V34.2899H34.6603V33.8483C34.4069 34.1758 34.0246 34.3813 33.5038 34.3813C32.477 34.3813 31.672 33.5826 31.672 32.4712C31.672 31.3606 32.477 30.561 33.5038 30.561C34.0246 30.561 34.4069 30.7665 34.6603 31.094V30.6524H35.4565ZM27.9953 32.4712C27.9953 33.5748 28.7687 34.3813 29.949 34.3813C30.5005 34.3813 30.8679 34.2594 31.266 33.9476L30.8837 33.3082C30.5847 33.5216 30.2708 33.6357 29.9253 33.6357C29.2896 33.6279 28.8222 33.1715 28.8222 32.4712C28.8222 31.7708 29.2896 31.3144 29.9253 31.3066C30.2708 31.3066 30.5847 31.4207 30.8837 31.6341L31.266 30.9947C30.8679 30.6829 30.5005 30.561 29.949 30.561C28.7687 30.561 27.9953 31.3675 27.9953 32.4712ZM37.2951 31.094C37.502 30.7743 37.8011 30.5609 38.2605 30.5609C38.4219 30.5609 38.6516 30.5914 38.8278 30.6602L38.5823 31.4058C38.414 31.337 38.2456 31.3144 38.0843 31.3144C37.5634 31.3144 37.303 31.6489 37.303 32.2507V34.2899H36.5059V30.6524H37.2951V31.094ZM16.9172 30.9416C16.5341 30.6907 16.0062 30.561 15.424 30.561C14.4963 30.561 13.8991 31.0026 13.8991 31.7255C13.8991 32.3187 14.3437 32.6846 15.1627 32.7987L15.5388 32.8518C15.9755 32.9128 16.1816 33.0269 16.1816 33.2324C16.1816 33.5138 15.8904 33.6741 15.3468 33.6741C14.7953 33.6741 14.3972 33.499 14.1289 33.2934L13.7536 33.9092C14.1902 34.2289 14.7418 34.3813 15.3389 34.3813C16.3964 34.3813 17.0093 33.8866 17.0093 33.1941C17.0093 32.5548 16.527 32.2203 15.73 32.1062L15.3547 32.0522C15.0101 32.0069 14.7339 31.9389 14.7339 31.6951C14.7339 31.4285 14.9943 31.2691 15.431 31.2691C15.8983 31.2691 16.3508 31.4442 16.5726 31.5809L16.9172 30.9416ZM26.2259 31.094C26.432 30.7743 26.731 30.5609 27.1904 30.5609C27.3518 30.5609 27.5815 30.5914 27.7578 30.6602L27.5122 31.4058C27.3439 31.337 27.1755 31.3144 27.0142 31.3144C26.4933 31.3144 26.2329 31.6489 26.2329 32.2507V34.2899H25.4367V30.6524H26.2259V31.094ZM20.3956 30.6524H19.0935V29.5488H18.2886V30.6524H17.5459V31.3754H18.2886V33.0347C18.2886 33.8788 18.6182 34.3813 19.56 34.3813C19.9055 34.3813 20.3035 34.2751 20.5561 34.1L20.3263 33.4223C20.0887 33.5591 19.8283 33.6279 19.6214 33.6279C19.2233 33.6279 19.0935 33.384 19.0935 33.019V31.3754H20.3956V30.6524ZM8.49072 32.0069V34.2899H7.68577V32.2656C7.68577 31.6489 7.42534 31.3065 6.8817 31.3065C6.35296 31.3065 5.98556 31.6419 5.98556 32.2734V34.2899H5.18061V32.2656C5.18061 31.6489 4.91317 31.3065 4.38443 31.3065C3.83991 31.3065 3.48742 31.6419 3.48742 32.2734V34.2899H2.68335L2.68335 30.6524H3.4804V31.101C3.77941 30.675 4.16172 30.5609 4.55279 30.5609C5.11222 30.5609 5.51031 30.8048 5.76284 31.2081C6.10043 30.6977 6.58269 30.5531 7.05005 30.5609C7.93918 30.5688 8.49072 31.1471 8.49072 32.0069Z" fill="#231F20"/>
<path id="path3810" d="M28.7203 24.4713H16.6531V2.92871H28.7203V24.4713Z" fill="#FF5F00"/>
<path id="path3814" d="M17.4187 13.7008C17.4187 9.33075 19.4785 5.43806 22.686 2.92946C20.3404 1.09505 17.3802 0.000152588 14.163 0.000152588C6.54669 0.000152588 0.372803 6.13402 0.372803 13.7008C0.372803 21.2675 6.54669 27.4014 14.163 27.4014C17.3802 27.4014 20.3404 26.3065 22.686 24.4721C19.4785 21.9635 17.4187 18.0708 17.4187 13.7008Z" fill="#EB001B"/>
<path id="path3822" d="M45.0001 13.7008C45.0001 21.2675 38.8262 27.4014 31.2099 27.4014C27.9927 27.4014 25.0325 26.3065 22.686 24.4721C25.8944 21.9635 27.9541 18.0708 27.9541 13.7008C27.9541 9.33075 25.8944 5.43806 22.686 2.92946C25.0325 1.09505 27.9927 0.000152588 31.2099 0.000152588C38.8262 0.000152588 45.0001 6.13402 45.0001 13.7008Z" fill="#F79E1B"/>
</g>
</svg>
