<svg width="18" height="18" viewBox="0 0 18 18" fill="none" xmlns="http://www.w3.org/2000/svg">
<g id="Group">
<path id="Vector" d="M3.9375 0C4.08668 0 4.22976 0.0592632 4.33525 0.164752C4.44074 0.270242 4.5 0.413316 4.5 0.5625V1.125H13.5V0.5625C13.5 0.413316 13.5593 0.270242 13.6648 0.164752C13.7702 0.0592632 13.9133 0 14.0625 0C14.2117 0 14.3548 0.0592632 14.4602 0.164752C14.5657 0.270242 14.625 0.413316 14.625 0.5625V1.125H15.75C16.3467 1.125 16.919 1.36205 17.341 1.78401C17.7629 2.20597 18 2.77826 18 3.375V15.75C18 16.3467 17.7629 16.919 17.341 17.341C16.919 17.7629 16.3467 18 15.75 18H2.25C1.65326 18 1.08097 17.7629 0.65901 17.341C0.237053 16.919 0 16.3467 0 15.75V3.375C0 2.77826 0.237053 2.20597 0.65901 1.78401C1.08097 1.36205 1.65326 1.125 2.25 1.125H3.375V0.5625C3.375 0.413316 3.43426 0.270242 3.53975 0.164752C3.64524 0.0592632 3.78832 0 3.9375 0ZM1.125 4.5V15.75C1.125 16.0484 1.24353 16.3345 1.4545 16.5455C1.66548 16.7565 1.95163 16.875 2.25 16.875H15.75C16.0484 16.875 16.3345 16.7565 16.5455 16.5455C16.7565 16.3345 16.875 16.0484 16.875 15.75V4.5H1.125Z" fill="white"/>
<path id="Vector_2" d="M11.7539 8.02384C11.5873 7.85768 11.3895 7.72589 11.1718 7.63601C10.9541 7.54613 10.7208 7.49991 10.4853 7.5C10.2497 7.50009 10.0164 7.54648 9.79879 7.63653C9.58119 7.72657 9.38351 7.85851 9.21704 8.02479L8.99975 8.24416L8.78427 8.02526L8.78287 8.02386C8.61636 7.85779 8.41869 7.72604 8.20113 7.63616C7.98358 7.54628 7.75041 7.50002 7.51493 7.50002C7.27945 7.50002 7.04628 7.54628 6.82873 7.63616C6.61117 7.72604 6.4135 7.85779 6.24699 8.02386L6.15019 8.12042C5.81392 8.45582 5.625 8.91073 5.625 9.38507C5.625 9.85941 5.81392 10.3143 6.15019 10.6497L8.70502 13.1979L8.99353 13.4994L9.00041 13.4926L9.00788 13.5L9.27819 13.2155L11.8507 10.6497C12.1864 10.314 12.375 9.8592 12.375 9.38503C12.375 8.91086 12.1864 8.45605 11.8507 8.12037L11.7539 8.02384ZM11.5336 10.3335L9.00041 12.8602L6.46716 10.3335C6.21495 10.082 6.07326 9.74079 6.07326 9.38504C6.07326 9.02928 6.21495 8.6881 6.46716 8.43655L6.56397 8.33999C6.81605 8.08856 7.15791 7.94725 7.51441 7.94712C7.87091 7.94699 8.21288 8.08804 8.46515 8.33928L8.99879 8.88124L9.53496 8.33999C9.65984 8.21544 9.8081 8.11663 9.97126 8.04922C10.1344 7.98181 10.3093 7.94711 10.4859 7.94711C10.6625 7.94711 10.8374 7.98181 11.0006 8.04922C11.1637 8.11663 11.312 8.21544 11.4369 8.33999L11.5337 8.43653C11.7855 8.68829 11.9269 9.02941 11.9269 9.38504C11.9269 9.74067 11.7855 10.0818 11.5336 10.3335Z" fill="white" stroke="white" stroke-width="0.3"/>
</g>
</svg>
