<svg width="69" height="105" viewBox="0 0 69 105" fill="none" xmlns="http://www.w3.org/2000/svg">
<g clip-path="url(#clip0_6955_287)">
<path fill-rule="evenodd" clip-rule="evenodd" d="M3.31471 41.158C2.35029 42.3195 2.13477 42.0099 0.870246 42.5814C0.79522 44.0983 1.10419 44.4168 1.61027 45.3437C0.79522 45.8491 0.0558785 46.1117 0.121355 47.3101C0.205247 48.8924 -0.0662084 47.5536 0.608339 48.34L1.77874 49.2485C1.46977 56.4686 2.79021 55.8316 9.40132 55.8036C16.7334 55.7757 15.8344 55.9162 19.0844 60.3829C21.1449 63.2107 22.8302 65.8986 24.581 69.1759L29.1883 78.7839C34.2545 76.9206 43.7493 74.3731 45.3044 66.5541C42.064 64.3913 37.3633 57.3021 35.266 53.5004C34.3575 56.4222 33.4865 59.0065 30.4057 60.2615C26.8659 61.7034 23.7005 58.8756 22.5772 56.5061C20.7418 52.6669 20.6108 42.591 30.4241 43.3399C28.8697 41.7289 24.0845 35.1464 21.3406 32.2995C13.0721 35.1184 13.821 36.4948 11.8076 39.7066C11.3861 40.3811 11.8451 39.8941 11.3111 40.2965L9.41019 34.9779C15.1878 34.641 14.4198 33.845 17.9222 32.3466C19.4206 31.7095 19.7201 31.8125 20.516 31.1196L16.0493 25.595C14.4014 23.572 13.081 21.8212 11.339 19.9953C6.20728 25.2301 9.59707 26.157 7.05985 27.3185C4.85001 24.5371 10.3371 20.0329 10.4217 19.0405C10.6747 16.1186 7.2099 20.1079 5.74895 24.4341C4.13795 29.1723 7.3313 31.4197 4.22252 34.4637C0.813636 37.7975 -0.778268 36.664 2.5931 40.2324C3.06099 40.729 2.93958 40.4575 3.29561 41.1498L3.31471 41.1593V41.158Z" fill="#210D15"/>
<path fill-rule="evenodd" clip-rule="evenodd" d="M36.2399 48.8938C38.3843 48.7628 38.1504 48.6408 39.5547 47.4144C40.4536 46.628 41.2496 46.038 42.1485 45.373C45.3323 42.9947 45.2573 42.8822 42.8319 40.1574C37.3073 33.9583 29.9283 26.8602 24.4405 20.7265L15.2444 11.0155C12.7536 8.45916 12.0135 10.1725 9.90669 11.9799C7.21941 14.2832 9.22327 15.6132 10.9086 17.6737C18.2693 26.6351 29.7775 40.4009 36.2297 48.9033L36.2393 48.8938H36.2399Z" fill="#FF1493"/>
<path fill-rule="evenodd" clip-rule="evenodd" d="M36.2399 48.8938C38.3843 48.7628 38.1504 48.6408 39.5547 47.4144C40.4536 46.628 41.2496 46.038 42.1485 45.373C45.3323 42.9947 45.2573 42.8822 42.8319 40.1574C37.3073 33.9583 29.9283 26.8602 24.4405 20.7265L15.2444 11.0155C12.7536 8.45916 12.0135 10.1725 9.90669 11.9799C7.21941 14.2832 9.22327 15.6132 10.9086 17.6737C18.2693 26.6351 29.7775 40.4009 36.2297 48.9033L36.2393 48.8938H36.2399Z" fill="#B70569"/>
<mask id="mask0_6955_287" style="mask-type:luminance" maskUnits="userSpaceOnUse" x="8" y="9" width="37" height="40">
<path d="M36.2401 48.8928C38.3844 48.7619 38.1505 48.6398 39.5548 47.4134C40.4538 46.627 41.2497 46.0371 42.1487 45.3721C45.3325 42.9938 45.2574 42.8812 42.8321 40.1564C37.3075 33.9573 29.9284 26.8592 24.4406 20.7255L15.2445 11.0145C12.7537 8.45818 12.0137 10.1715 9.90681 11.9789C7.21953 14.2822 9.2234 15.6122 10.9087 17.6727C18.2694 26.6341 29.7776 40.3999 36.2298 48.9024L36.2394 48.8928H36.2401Z" fill="white"/>
</mask>
<g mask="url(#mask0_6955_287)">
<path d="M15.3761 10.6383L9.06437 16.2004L8.48395 15.5449L14.1306 10.5537L13.7651 10.1322L14.4301 9.55176L15.3761 10.6192L15.3665 10.6287L15.3761 10.6383Z" fill="#FEFEFE"/>
<path d="M13.175 14.4682C12.4541 15.1141 12.0046 15.8541 11.8361 16.6972C11.6677 17.5211 11.8266 18.2045 12.2951 18.7385C12.7726 19.2726 13.428 19.5161 14.271 19.4506C15.1325 19.3851 15.9189 19.0291 16.6405 18.3927C17.371 17.7557 17.8204 17.0164 17.9889 16.1733C18.1574 15.3494 17.9984 14.666 17.521 14.132C17.0531 13.5979 16.397 13.364 15.5547 13.4199C14.6932 13.4854 13.9068 13.8319 13.1763 14.4689L13.175 14.4682ZM12.613 13.8312C13.5119 13.0448 14.4954 12.6233 15.5724 12.5667C16.6678 12.5107 17.5299 12.8381 18.1662 13.559C18.8033 14.28 19.0277 15.1789 18.8312 16.2559C18.6437 17.3137 18.1007 18.2413 17.2018 19.0277C16.3124 19.8237 15.3289 20.2452 14.2519 20.2922C13.1654 20.3577 12.2945 20.0208 11.6581 19.2999C11.0211 18.5789 10.8062 17.68 10.9931 16.6126C11.1807 15.5547 11.7236 14.6271 12.613 13.8312Z" fill="#FEFEFE"/>
<path d="M18.1758 20.0776C17.4549 20.7235 17.0054 21.4635 16.8369 22.3065C16.6684 23.1304 16.8274 23.8139 17.2959 24.3479C17.7734 24.8819 18.4288 25.1254 19.2718 25.06C20.1333 24.9945 20.9197 24.6385 21.6413 24.0021C22.3717 23.3651 22.8212 22.6257 22.9897 21.7827C23.1582 20.9588 22.9992 20.2754 22.5218 19.7413C22.0539 19.2073 21.3978 18.9734 20.5555 19.0293C19.694 19.0948 18.9076 19.4412 18.1771 20.0783L18.1758 20.0776ZM17.6138 19.4406C18.5127 18.6542 19.4962 18.2326 20.5732 18.176C21.6686 18.1201 22.5307 18.4475 23.167 19.1684C23.8041 19.8893 24.0284 20.7883 23.832 21.8652C23.6445 22.9231 23.1015 23.8507 22.2026 24.6371C21.3132 25.433 20.3297 25.8546 19.2527 25.9016C18.1662 25.9671 17.2953 25.6302 16.6589 24.9092C16.0219 24.1883 15.807 23.2894 15.9939 22.222C16.1815 21.1641 16.7244 20.2365 17.6138 19.4406Z" fill="#FEFEFE"/>
<path d="M23.1671 25.6772C22.4461 26.3231 21.9967 27.0631 21.8282 27.9061C21.6597 28.7301 21.8186 29.4135 22.2872 29.9475C22.7646 30.4816 23.4201 30.7251 24.2631 30.6596C25.1245 30.5941 25.9109 30.2381 26.6325 29.6017C27.363 28.9647 27.8125 28.2253 27.981 27.3823C28.1494 26.5584 27.9905 25.875 27.5131 25.341C27.0452 24.8069 26.3891 24.573 25.5467 24.6289C24.6853 24.6944 23.8989 25.0408 23.1684 25.6779L23.1671 25.6772ZM22.605 25.0402C23.504 24.2538 24.4875 23.8323 25.5645 23.7756C26.6598 23.7197 27.5219 24.0471 28.1583 24.768C28.7953 25.489 29.0197 26.3879 28.8233 27.4649C28.6357 28.5227 28.0928 29.4503 27.1939 30.2367C26.3045 31.0327 25.321 31.4542 24.244 31.5012C23.1575 31.5667 22.2865 31.2298 21.6502 30.5088C21.0131 29.7879 20.7983 28.889 20.9852 27.8216C21.1727 26.7637 21.7156 25.8361 22.605 25.0402Z" fill="#FEFEFE"/>
<path d="M31.707 28.9452L25.396 34.5169L24.8149 33.8525L30.4711 28.8709L30.0967 28.4493L30.7617 27.8594L31.707 28.9268L31.6981 28.9363L31.707 28.9452Z" fill="#FEFEFE"/>
<path d="M33.0465 30.4527L26.7348 36.0148L26.1544 35.3594L31.8107 30.3681L31.4355 29.9466L32.1005 29.3662L33.0465 30.4336L33.037 30.4432L33.0465 30.4527Z" fill="#FEFEFE"/>
<path d="M30.8455 34.2827C30.1246 34.9286 29.6751 35.6686 29.5067 36.5116C29.3382 37.3355 29.4971 38.0189 29.9657 38.553C30.4431 39.087 31.0986 39.3305 31.9416 39.265C32.803 39.1996 33.5894 38.8435 34.311 38.2072C35.0415 37.5702 35.491 36.8308 35.6594 35.9878C35.8279 35.1639 35.669 34.4805 35.1915 33.9464C34.7237 33.4124 34.0675 33.1784 33.2252 33.2344C32.3638 33.2998 31.5774 33.6463 30.8469 34.2834L30.8455 34.2827ZM30.2835 33.6456C31.1825 32.8592 32.166 32.4377 33.2429 32.3811C34.3383 32.3252 35.2004 32.6526 35.8368 33.3735C36.4738 34.0944 36.6982 34.9934 36.5018 36.0703C36.3142 37.1282 35.7713 38.0558 34.8723 38.8422C33.9829 39.6381 32.9994 40.0596 31.9225 40.1067C30.836 40.1722 29.965 39.8352 29.3286 39.1143C28.6916 38.3934 28.4768 37.4944 28.6636 36.427C28.8512 35.3692 29.3941 34.4416 30.2835 33.6456Z" fill="#FEFEFE"/>
<path d="M35.8463 39.892C35.1254 40.5379 34.6759 41.278 34.5075 42.121C34.339 42.9449 34.4979 43.6283 34.9665 44.1624C35.4439 44.6964 36.0994 44.9399 36.9424 44.8744C37.8038 44.8089 38.5902 44.4529 39.3111 43.8166C40.0416 43.1795 40.4911 42.4402 40.6595 41.5972C40.828 40.7733 40.6691 40.0898 40.1917 39.5558C39.7238 39.0218 39.0676 38.7878 38.2253 38.8437C37.3639 38.9092 36.5775 39.2557 35.847 39.8927L35.8463 39.892ZM35.2843 39.255C36.1833 38.4686 37.1661 38.0471 38.243 37.9905C39.3384 37.9346 40.2005 38.2619 40.8369 38.9829C41.4739 39.7038 41.6983 40.6027 41.5019 41.6797C41.3143 42.7376 40.7714 43.6651 39.8725 44.4515C38.9831 45.2475 37.9996 45.669 36.9226 45.7161C35.8361 45.7815 34.9651 45.4446 34.3288 44.7237C33.6917 44.0028 33.4769 43.1038 33.6638 42.0364C33.8513 40.9786 34.3942 40.051 35.2836 39.255H35.2843Z" fill="#FEFEFE"/>
<path d="M44.3775 43.1597L38.0658 48.7314L37.4854 48.0664L43.1409 43.0752L42.7665 42.6543L43.4315 42.0732L44.3775 43.1413L44.3679 43.1502L44.3775 43.1597Z" fill="#FEFEFE"/>
</g>
<path fill-rule="evenodd" clip-rule="evenodd" d="M15.9565 10.3028L35.7809 31.3727C37.6539 33.367 41.4836 36.617 42.4391 38.6017C43.4506 38.0118 46.5969 34.9214 47.6084 33.8635C49.5747 31.8126 51.7382 30.8482 51.8507 27.8424L25.2937 9.4414C22.2975 7.40002 20.9116 4.90918 15.9483 10.3028H15.9579H15.9565Z" fill="#FF1493"/>
<path fill-rule="evenodd" clip-rule="evenodd" d="M15.9565 10.3028L35.7809 31.3727C37.6539 33.367 41.4836 36.617 42.4391 38.6017C43.4506 38.0118 46.5969 34.9214 47.6084 33.8635C49.5747 31.8126 51.7382 30.8482 51.8507 27.8424L25.2937 9.4414C22.2975 7.40002 20.9116 4.90918 15.9483 10.3028H15.9579H15.9565Z" fill="#B70569"/>
<mask id="mask1_6955_287" style="mask-type:luminance" maskUnits="userSpaceOnUse" x="15" y="7" width="37" height="32">
<path d="M15.9565 10.3028L35.7809 31.3727C37.6539 33.367 41.4836 36.617 42.4391 38.6017C43.4506 38.0118 46.5969 34.9214 47.6084 33.8635C49.5747 31.8126 51.7382 30.8482 51.8507 27.8424L25.2937 9.4414C22.2975 7.40002 20.9116 4.90918 15.9483 10.3028H15.9579H15.9565Z" fill="white"/>
</mask>
<g mask="url(#mask1_6955_287)">
<path d="M35.163 16.4549L28.9072 23.5625L28.1583 22.9071L33.7771 16.5395L33.2989 16.1268L33.9551 15.3779L35.163 16.4358L35.1534 16.4453L35.163 16.4549Z" fill="#FEFEFE"/>
<path d="M33.2526 21.0533C32.5406 21.8772 32.1382 22.7666 32.0727 23.7317C32.0072 24.6777 32.2691 25.4171 32.8782 25.9416C33.4866 26.4756 34.245 26.6536 35.1815 26.4661C36.1275 26.2696 36.9609 25.7635 37.6723 24.9492C38.3932 24.1341 38.7963 23.2447 38.8707 22.2803C38.9362 21.3343 38.6742 20.595 38.0652 20.0609C37.4657 19.5269 36.6983 19.3584 35.7708 19.546C34.8248 19.7424 33.9913 20.2389 33.2608 21.0533H33.252H33.2526ZM32.5317 20.4163C33.4211 19.4143 34.4605 18.8053 35.6596 18.5904C36.8675 18.3749 37.879 18.6184 38.6933 19.3304C39.5084 20.0514 39.8828 21.0158 39.8078 22.2428C39.7519 23.4507 39.2738 24.5556 38.3844 25.5576C37.5039 26.569 36.4651 27.1774 35.2756 27.393C34.0677 27.618 33.0562 27.365 32.2418 26.6529C31.4363 25.9409 31.0619 24.9676 31.1274 23.7406C31.1833 22.5327 31.6614 21.4182 32.5413 20.4163H32.5317Z" fill="#FEFEFE"/>
<path d="M39.6011 26.6158C38.889 27.4397 38.4866 28.3291 38.4211 29.2942C38.3557 30.2402 38.6176 30.9796 39.2171 31.5041C39.8255 32.0381 40.5839 32.2066 41.5204 32.0286C42.4664 31.8321 43.2998 31.326 44.0112 30.5117C44.7321 29.6966 45.1352 28.8072 45.2096 27.8428C45.2751 26.8968 45.0132 26.1575 44.4041 25.6234C43.8046 25.0894 43.0373 24.9209 42.1097 25.1085C41.1637 25.3049 40.3302 25.8014 39.5997 26.6158H39.6011ZM38.8802 25.9788C39.7696 24.9768 40.809 24.3678 42.008 24.1529C43.2159 23.9374 44.2274 24.1809 45.0418 24.8929C45.8568 25.6139 46.2313 26.5783 46.1563 27.8053C46.1003 29.0132 45.6222 30.1181 44.7328 31.1201C43.8523 32.1315 42.8129 32.7399 41.624 32.9555C40.4161 33.1805 39.4047 32.9275 38.5903 32.2154C37.7848 31.5034 37.4103 30.5301 37.4758 29.3031C37.5317 28.0952 38.0099 26.9807 38.8897 25.9788H38.8802Z" fill="#FEFEFE"/>
<path d="M49.5836 29.078L43.3189 36.1768L42.5796 35.5213L48.1881 29.153L47.7106 28.7411L48.3756 27.9922L49.5836 29.05L49.574 29.0691L49.5836 29.078Z" fill="#FEFEFE"/>
</g>
<path fill-rule="evenodd" clip-rule="evenodd" d="M24.122 7.22166C24.5619 7.80208 36.2672 16.0522 37.4097 16.6237C39.2921 17.5697 49.855 19.461 53.3853 20.332C54.8926 20.7065 54.8183 20.4255 55.3053 21.4935C53.3294 22.2895 43.8714 18.9181 40.7435 18.9093L52.0185 26.7003C53.4699 27.2623 56.1012 27.8332 57.7306 27.6838C58.5266 26.1479 60.081 17.6918 60.512 15.098C61.1204 11.4176 58.1337 12.204 49.6402 10.5282L30.0592 6.95088C27.5493 6.50141 25.4144 5.39649 24.1131 7.22234H24.1226L24.122 7.22166Z" fill="#FF1493"/>
<path fill-rule="evenodd" clip-rule="evenodd" d="M24.122 7.22166C24.5619 7.80208 36.2672 16.0522 37.4097 16.6237C39.2921 17.5697 49.855 19.461 53.3853 20.332C54.8926 20.7065 54.8183 20.4255 55.3053 21.4935C53.3294 22.2895 43.8714 18.9181 40.7435 18.9093L52.0185 26.7003C53.4699 27.2623 56.1012 27.8332 57.7306 27.6838C58.5266 26.1479 60.081 17.6918 60.512 15.098C61.1204 11.4176 58.1337 12.204 49.6402 10.5282L30.0592 6.95088C27.5493 6.50141 25.4144 5.39649 24.1131 7.22234H24.1226L24.122 7.22166Z" fill="#B70569"/>
<mask id="mask2_6955_287" style="mask-type:luminance" maskUnits="userSpaceOnUse" x="24" y="6" width="37" height="22">
<path d="M24.122 7.22068C24.5619 7.8011 36.2672 16.0512 37.4097 16.6227C39.2921 17.5687 49.855 19.4601 53.3853 20.331C54.8926 20.7055 54.8183 20.4245 55.3053 21.4926C53.3294 22.2885 43.8714 18.9171 40.7435 18.9083L52.0185 26.6993C53.4699 27.2613 56.1012 27.8322 57.7306 27.6828C58.5266 26.1469 60.081 17.6908 60.512 15.097C61.1204 11.4166 58.1337 12.2031 49.6402 10.5273L30.0592 6.94991C27.5493 6.50043 25.4144 5.39551 24.1131 7.22136H24.1226L24.122 7.22068Z" fill="white"/>
</mask>
<g mask="url(#mask2_6955_287)">
<path d="M33.6271 11.3412C33.4306 12.2497 33.5145 13.0831 33.861 13.832C34.2075 14.5625 34.7129 15.0024 35.3779 15.1429C36.0524 15.293 36.6984 15.0959 37.3163 14.572C37.9438 14.0291 38.3557 13.3075 38.5433 12.3997C38.7397 11.4912 38.6647 10.6578 38.3182 9.90887C37.9717 9.1784 37.4663 8.73848 36.7918 8.58842C36.1172 8.44792 35.4809 8.63549 34.863 9.1593C34.2355 9.70221 33.8235 10.4238 33.6271 11.3316V11.3412ZM32.8216 11.1727C33.0651 10.0487 33.5896 9.16885 34.3951 8.5134C35.2006 7.8484 36.062 7.60491 36.9609 7.80134C37.8694 7.99777 38.5528 8.56933 39.0119 9.50578C39.4709 10.4327 39.5827 11.4537 39.3304 12.5771C39.0964 13.7011 38.5719 14.5905 37.776 15.2459C36.9705 15.9109 36.1091 16.1544 35.2101 15.958C34.3112 15.7615 33.6278 15.19 33.1592 14.2535C32.7002 13.3266 32.5883 12.3056 32.8223 11.1823V11.1727H32.8216Z" fill="#FEFEFE"/>
<path d="M42.0927 9.01983L40.3883 16.9323L39.5548 16.7543L41.0812 9.66573L40.5567 9.55319L40.7348 8.71973L42.0832 9.01028L42.0736 9.01983H42.0927Z" fill="#FEFEFE"/>
<path d="M42.5797 13.2513C42.3833 14.1598 42.4672 14.9933 42.8137 15.7422C43.1601 16.4727 43.6655 16.9126 44.3305 17.0531C45.0051 17.2031 45.651 17.006 46.2689 16.4822C46.8964 15.9393 47.3084 15.2177 47.4959 14.3099C47.6924 13.4014 47.6173 12.5679 47.2709 11.819C46.9244 11.0886 46.419 10.6486 45.7444 10.4986C45.0699 10.3581 44.4335 10.5456 43.8156 11.0695C43.1881 11.6124 42.7761 12.334 42.5797 13.2418V13.2513ZM41.7742 13.0829C42.0177 11.9588 42.5422 11.079 43.3477 10.4236C44.1532 9.75856 45.0146 9.51507 45.9136 9.7115C46.8221 9.90793 47.5055 10.4795 47.9645 11.4159C48.4235 12.3428 48.5354 13.3639 48.283 14.4872C48.0491 15.6112 47.5246 16.5006 46.7286 17.1561C45.9231 17.8211 45.0617 18.0646 44.1628 17.8681C43.2638 17.6717 42.5804 17.1001 42.1118 16.1637C41.6528 15.2368 41.541 14.2158 41.7749 13.0924V13.0829H41.7742Z" fill="#FEFEFE"/>
<path d="M49.6403 14.7601C49.4438 15.6686 49.5277 16.5021 49.8742 17.251C50.2207 17.9814 50.7261 18.4214 51.3911 18.5619C52.0656 18.7119 52.7115 18.5148 53.3295 17.991C53.957 17.4481 54.3689 16.7265 54.5565 15.8187C54.7529 14.9102 54.6779 14.0767 54.3314 13.3278C53.9849 12.5973 53.4795 12.1574 52.805 12.0074C52.1304 11.8669 51.4941 12.0544 50.8761 12.5782C50.2487 13.1212 49.8367 13.8428 49.6403 14.7506V14.7601ZM48.8348 14.5917C49.0783 13.4676 49.6028 12.5878 50.4083 11.9323C51.2138 11.2673 52.0752 11.0239 52.9741 11.2203C53.8826 11.4167 54.566 11.9883 55.025 12.9247C55.4841 13.8516 55.5959 14.8727 55.3436 15.996C55.1096 17.12 54.5851 18.0094 53.7892 18.6649C52.9837 19.3299 52.1222 19.5733 51.2233 19.3769C50.3244 19.1805 49.6409 18.6089 49.1724 17.6725C48.7134 16.7456 48.6015 15.7245 48.8354 14.6012V14.5917H48.8348Z" fill="#FEFEFE"/>
<path d="M58.1052 12.4467L56.4008 20.3591L55.568 20.1722L57.1033 13.083L56.5699 12.9712L56.7473 12.1377L58.0964 12.4276V12.4371L58.1052 12.4467Z" fill="#FEFEFE"/>
<path d="M59.9972 12.849L58.2928 20.7621L57.4689 20.5841L58.9953 13.486L58.4613 13.3735L58.6393 12.54L59.9877 12.8306V12.849H59.9972Z" fill="#FEFEFE"/>
</g>
<path fill-rule="evenodd" clip-rule="evenodd" d="M28.5424 5.29247L29.1132 5.60144C29.5347 5.76991 29.5443 5.79787 30.0122 5.92951L57.8616 10.9487C57.5151 9.08535 55.8012 5.13356 55.0052 2.90462C53.7877 -0.485169 53.4133 0.329198 47.1862 1.00375C43.8244 1.36932 40.5 1.7997 37.0823 2.12776C35.294 2.29623 33.655 2.45583 31.8946 2.64271C29.3479 2.92372 29.0198 2.89575 28.5608 5.28361L28.5424 5.29316V5.29247Z" fill="#FF1493"/>
<path fill-rule="evenodd" clip-rule="evenodd" d="M28.5424 5.29247L29.1132 5.60144C29.5347 5.76991 29.5443 5.79787 30.0122 5.92951L57.8616 10.9487C57.5151 9.08535 55.8012 5.13356 55.0052 2.90462C53.7877 -0.485169 53.4133 0.329198 47.1862 1.00375C43.8244 1.36932 40.5 1.7997 37.0823 2.12776C35.294 2.29623 33.655 2.45583 31.8946 2.64271C29.3479 2.92372 29.0198 2.89575 28.5608 5.28361L28.5424 5.29316V5.29247Z" fill="#B70569"/>
<mask id="mask3_6955_287" style="mask-type:luminance" maskUnits="userSpaceOnUse" x="28" y="0" width="30" height="11">
<path d="M28.5424 5.29247L29.1132 5.60144C29.5347 5.76991 29.5443 5.79787 30.0122 5.92951L57.8616 10.9487C57.5151 9.08535 55.8012 5.13356 55.0052 2.90462C53.7877 -0.485169 53.4133 0.329198 47.1862 1.00375C43.8244 1.36932 40.5 1.7997 37.0823 2.12776C35.294 2.29623 33.655 2.45583 31.8946 2.64271C29.3479 2.92372 29.0198 2.89575 28.5608 5.28361L28.5424 5.29316V5.29247Z" fill="white"/>
</mask>
<g mask="url(#mask3_6955_287)">
<path d="M32.0726 3.52272C31.9512 4.34664 32.0726 5.08666 32.4287 5.73257C32.7751 6.3696 33.2621 6.72495 33.8616 6.81907C34.47 6.90296 35.0416 6.69767 35.5565 6.19158C36.081 5.66709 36.4084 5.00209 36.521 4.17817C36.6424 3.35426 36.5305 2.61423 36.1745 1.96833C35.828 1.3313 35.341 0.966403 34.7326 0.881828C34.1242 0.797936 33.5622 1.00323 33.0473 1.50931C32.5228 2.03381 32.1954 2.69881 32.0733 3.52272H32.0726ZM31.3422 3.41974C31.4922 2.40826 31.913 1.57479 32.5876 0.947305C33.271 0.301404 34.0206 0.0388151 34.8445 0.160902C35.6684 0.282307 36.315 0.750875 36.7733 1.56524C37.2412 2.37074 37.4008 3.27855 37.2412 4.29003C37.0911 5.31106 36.6792 6.13497 36.0053 6.76246C35.3219 7.40836 34.5723 7.67095 33.7484 7.54886C32.9334 7.42746 32.2875 6.95889 31.8196 6.14452C31.3517 5.34857 31.1921 4.43121 31.3422 3.41974Z" fill="#FEFEFE"/>
<path d="M39.4892 0.928093L38.4402 8.10121L37.6907 7.98867L38.6278 1.56513L38.1497 1.49965L38.2622 0.741211L39.4797 0.918544V0.928093H39.4892Z" fill="#FEFEFE"/>
<path d="M41.2024 1.18178L40.1534 8.34535L39.4045 8.24236L40.341 1.80927L39.8636 1.74379L39.9761 0.985352L41.1929 1.16268V1.17223L41.2024 1.18178Z" fill="#FEFEFE"/>
<path d="M41.8954 4.92702C41.774 5.75094 41.8954 6.49096 42.2515 7.13686C42.598 7.7739 43.0849 8.12924 43.6845 8.22337C44.2928 8.30726 44.8644 8.10196 45.3793 7.59588C45.9038 7.07138 46.2312 6.40639 46.3438 5.58247C46.4652 4.75856 46.3533 4.01853 45.9973 3.37263C45.6508 2.7356 45.1638 2.3707 44.5554 2.28613C43.947 2.20223 43.385 2.40753 42.8701 2.91361C42.3456 3.43811 42.0182 4.10311 41.8961 4.92702H41.8954ZM41.165 4.82403C41.315 3.81255 41.7358 2.97909 42.4104 2.3516C43.0938 1.7057 43.8434 1.44311 44.6673 1.5652C45.4912 1.6866 46.1378 2.15517 46.5961 2.96954C47.064 3.77504 47.2236 4.68285 47.064 5.69433C46.914 6.71536 46.502 7.53927 45.8281 8.16676C45.1447 8.81266 44.3952 9.07525 43.5712 8.95316C42.7562 8.83176 42.1103 8.36319 41.6424 7.54882C41.1745 6.75287 41.0149 5.83551 41.165 4.82403Z" fill="#FEFEFE"/>
<path d="M49.312 2.33405L48.2631 9.50716L47.5142 9.40417L48.4506 2.9704L47.9732 2.90492L48.0857 2.14648L49.3025 2.3245V2.33405H49.312Z" fill="#FEFEFE"/>
<path d="M49.9955 6.08815C49.8741 6.91207 49.9955 7.65209 50.3515 8.298C50.698 8.93503 51.185 9.29038 51.7845 9.3845C52.3929 9.46839 52.9644 9.2631 53.4794 8.75701C54.0039 8.23252 54.3313 7.56752 54.4438 6.7436C54.5652 5.91969 54.4534 5.17966 54.0973 4.53376C53.7508 3.89673 53.2639 3.53183 52.6555 3.44726C52.0471 3.36337 51.4851 3.56866 50.9701 4.07474C50.4456 4.59924 50.1182 5.26424 49.9962 6.08815H49.9955ZM49.265 5.98517C49.4151 4.97369 49.8359 4.14022 50.5104 3.51273C51.1938 2.86683 51.9434 2.60424 52.7673 2.72633C53.5912 2.84774 54.2378 3.3163 54.6962 4.13067C55.164 4.93617 55.3236 5.84398 55.164 6.85546C55.014 7.87649 54.602 8.7004 53.9282 9.32789C53.2448 9.97379 52.4952 10.2364 51.6713 10.1143C50.8562 9.99289 50.2103 9.52432 49.7424 8.70995C49.2746 7.914 49.115 6.99664 49.265 5.98517Z" fill="#FEFEFE"/>
<path d="M57.4216 3.4942L56.3726 10.6673L55.6141 10.5643L56.5601 4.13124L56.0827 4.06576L56.1946 3.30664L57.412 3.48466V3.4942H57.4216Z" fill="#FEFEFE"/>
</g>
<path fill-rule="evenodd" clip-rule="evenodd" d="M32.0536 46.4585C33.5145 57.1804 24.3375 56.469 24.5619 48.8655C24.609 47.2177 24.918 47.3015 24.3089 46.3467C21.4149 53.5014 23.8124 59.4284 28.6726 59.279C32.428 59.1576 34.8247 54.2598 33.8044 49.9056C33.4388 48.3512 33.2049 47.7517 32.278 46.6843C32.2309 46.6284 32.1279 46.5254 32.0529 46.4504V46.4599L32.0536 46.4585Z" fill="#210D15"/>
<path fill-rule="evenodd" clip-rule="evenodd" d="M28.0179 44.548C23.8785 46.4768 26.22 54.5584 29.0669 53.1725C32.1948 51.6461 31.1458 43.0966 28.0179 44.548Z" fill="#210D15"/>
<path fill-rule="evenodd" clip-rule="evenodd" d="M2.20027 38.0578C4.19458 38.3292 5.00963 36.6439 5.64598 34.9395C4.05408 35.5765 4.99053 35.4264 3.62302 36.5129C2.69612 37.2434 2.62109 36.7189 2.19958 38.0578H2.20027Z" fill="#EEEEF0"/>
<path fill-rule="evenodd" clip-rule="evenodd" d="M1.5918 42.7686C2.20018 43.555 0.655342 42.731 2.40685 43.9014C2.94976 44.267 3.36172 44.3229 4.02671 44.5569C3.55883 43.0025 3.61476 42.89 1.5918 42.7686Z" fill="#EEEEF0"/>
<path fill-rule="evenodd" clip-rule="evenodd" d="M1.24539 46.3455C1.76988 46.767 -0.158955 47.3945 2.33189 46.692C3.49342 46.3639 2.53787 46.6545 2.90277 45.877L1.24539 46.3544V46.3448V46.3455Z" fill="#EEEEF0"/>
<path d="M22.6426 6.86574L17.4454 12.7559L16.8275 12.2123L21.4818 6.93121L21.0882 6.58473L21.6407 5.9668L22.6426 6.84664L22.6331 6.85619L22.6426 6.86574Z" fill="#FEFEFE"/>
<path d="M21.0507 10.6777C20.4608 11.3611 20.1334 12.1011 20.0672 12.8971C20.0113 13.6835 20.2357 14.2926 20.7322 14.7325C21.2376 15.1724 21.8651 15.3225 22.6426 15.1635C23.429 15.0046 24.122 14.5831 24.712 13.899C25.3115 13.2245 25.6389 12.4851 25.7044 11.6892C25.7603 10.9028 25.5359 10.2937 25.0394 9.85379C24.5428 9.41387 23.9065 9.27337 23.1289 9.42274C22.3425 9.58166 21.6496 10.0032 21.0501 10.6777H21.0507ZM20.4512 10.1532C21.1912 9.31975 22.0527 8.81435 23.0451 8.63634C24.047 8.45832 24.89 8.65475 25.555 9.25427C26.2295 9.85379 26.5385 10.6586 26.4819 11.6701C26.4348 12.672 26.042 13.5901 25.302 14.4235C24.5715 15.257 23.7101 15.7719 22.7177 15.9404C21.7157 16.128 20.8727 15.922 20.1989 15.3225C19.5243 14.7325 19.2153 13.927 19.272 12.9066C19.319 11.9047 19.7119 10.9778 20.4519 10.1443V10.1539L20.4512 10.1532Z" fill="#FEFEFE"/>
<path d="M26.323 15.2939C25.733 15.9773 25.4056 16.7174 25.3394 17.5133C25.2835 18.2997 25.5079 18.9088 26.0044 19.3487C26.5098 19.7886 27.1373 19.9387 27.9149 19.7798C28.7013 19.6208 29.3942 19.1993 29.9842 18.5152C30.5837 17.8407 30.9111 17.1014 30.9766 16.3054C31.0325 15.519 30.8081 14.9099 30.3116 14.47C29.8151 14.0301 29.1787 13.8896 28.4012 14.0389C27.6148 14.1979 26.9218 14.6194 26.3223 15.2939H26.323ZM25.7234 14.7694C26.4635 13.936 27.3249 13.4306 28.3173 13.2525C29.3192 13.0745 30.1622 13.271 30.8272 13.8705C31.5018 14.47 31.8107 15.2748 31.7541 16.2863C31.7071 17.2882 31.3142 18.2063 30.5742 19.0397C29.8437 19.8732 28.9823 20.3881 27.9899 20.5566C26.988 20.7442 26.1449 20.5382 25.4711 19.9387C24.7965 19.3487 24.4876 18.5432 24.5442 17.5229C24.5912 16.5209 24.9841 15.594 25.7241 14.7606V14.7701L25.7234 14.7694Z" fill="#FEFEFE"/>
<path d="M33.1857 79.9827C33.4661 79.9008 33.4449 80.1 33.1571 80.9669C33.9442 80.7398 34.779 80.4826 35.6616 80.1812C35.7216 79.4275 35.5797 78.8866 35.2442 78.5879C34.9359 78.313 34.4728 78.2932 33.728 78.6022C32.992 78.9078 32.4921 79.2038 32.0801 79.5864C31.6675 79.969 31.3019 80.454 30.9002 81.1101C30.3068 82.0793 30.5953 82.4728 31.068 82.7307C31.6211 83.0321 32.3536 83.1685 32.1333 83.8226C31.999 84.2196 31.8476 84.4753 31.4452 84.5176C30.9466 84.5701 31.1594 84.0545 31.4165 83.4339C30.6246 83.5198 29.9126 83.5737 29.279 83.6037C28.8711 84.2591 28.5915 84.8409 28.7176 85.259C28.8486 85.6942 29.4959 85.9915 30.9343 85.881C32.7213 85.744 33.8432 85.319 34.4844 84.8286C35.1384 84.3287 35.2749 83.7681 35.3287 83.1528C35.4229 82.0848 34.4762 81.8856 33.6591 81.6974C32.9457 81.533 32.3305 81.3761 32.5794 80.7609C32.8024 80.2112 32.9416 80.055 33.1864 79.9834L33.1857 79.9827ZM39.8616 75.4355C40.0874 75.872 40.3125 76.3105 40.5382 76.7477C40.7633 77.1842 40.9891 77.6221 41.2121 78.06C40.6194 78.4378 40.0103 78.798 39.3958 79.1438C39.2539 78.6691 39.1128 78.1964 38.9709 77.7231C38.829 77.2497 38.6878 76.7757 38.546 76.3023C37.8789 76.6863 37.2194 77.0676 36.5667 77.3991C36.5885 78.6165 36.6083 79.8306 36.6287 81.048C36.6492 82.2641 36.6696 83.4795 36.6908 84.697C37.986 84.281 39.2935 83.764 40.5983 83.1801C40.4639 82.7307 40.3282 82.2819 40.1952 81.8324C40.0622 81.3836 39.9292 80.9307 39.7948 80.4833C40.4905 80.1089 41.1787 79.7153 41.8457 79.2959C42.0619 79.7099 42.2754 80.1259 42.4889 80.542C42.7024 80.958 42.9159 81.372 43.1293 81.786C44.3045 81.0242 45.3965 80.2084 46.4209 79.3818C45.6291 78.4849 44.8352 77.5901 44.0433 76.6918C43.2535 75.7956 42.4603 74.898 41.6684 74.0018C41.0907 74.4922 40.4837 74.9696 39.8596 75.4348L39.8616 75.4355ZM44.842 72.6582C45.286 72.0232 45.6768 71.3964 45.998 70.7743C45.5377 70.5602 45.0766 70.346 44.6142 70.1318C44.372 70.6904 44.0733 71.2538 43.6859 71.7919C43.2814 72.354 42.7938 72.8873 42.2775 73.4248C43.1437 74.2596 44.0133 75.0897 44.8802 75.9245C45.745 76.7573 46.6146 77.5928 47.4808 78.4256C48.3682 77.5491 49.2009 76.7082 49.9178 75.8399C50.5889 75.0269 51.1509 74.1928 51.7239 73.4275C51.2635 73.2133 50.8004 72.9992 50.34 72.785C49.81 73.5407 49.2391 74.3278 48.6226 75.1483C48.1717 74.8516 47.7229 74.5549 47.2721 74.2582C47.6725 73.7201 48.0449 73.1936 48.3975 72.6772C47.9535 72.4535 47.5122 72.2264 47.0709 72.0013C46.7613 72.4808 46.4277 72.9692 46.0656 73.463C45.6577 73.1949 45.2526 72.9248 44.842 72.6582Z" fill="#210D15"/>
<path d="M26.898 91.3226C26.6211 91.3103 26.5031 91.2285 26.5638 90.9338C26.6251 90.6371 26.8693 90.1208 27.329 89.2253C27.7785 88.3509 28.0581 87.8298 28.2812 87.5297C28.5069 87.2269 28.6692 87.1437 28.8814 87.145C29.266 87.1471 29.1651 87.5624 28.91 88.1456C29.485 88.1415 30.0852 88.1381 30.7249 88.0903C30.9371 87.4131 30.935 86.8654 30.7359 86.4903C30.5353 86.1124 30.1677 85.8798 29.5355 85.8839C28.7627 85.8894 28.2184 86.1233 27.6666 86.6396C27.1224 87.1491 26.559 87.9444 25.8306 89.1175C25.0789 90.3281 24.6342 91.1371 24.6554 91.68C24.6772 92.2277 25.2038 92.5162 26.4123 92.5871C27.3815 92.6437 28.1932 92.407 28.8057 91.9978C29.4181 91.5886 29.8117 90.9986 30.0238 90.3213C29.2981 90.3575 28.6079 90.3575 27.947 90.3541C27.6844 90.957 27.4006 91.3444 26.8973 91.3226H26.898ZM31.1492 89.5738C31.8033 89.8589 32.4976 90.1597 33.2697 90.3773C34.0799 90.6057 34.9584 90.764 35.8785 90.9113C35.8751 90.4905 35.8751 90.0697 35.8717 89.6481C34.7756 89.4872 33.7553 89.2846 32.81 89.0432C33.8446 88.49 34.8657 87.8966 35.8649 87.2964C35.8649 86.8756 35.8649 86.4527 35.8649 86.0312C35.146 86.5305 34.4121 87.0427 33.6509 87.5181C32.8993 87.988 32.1163 88.4041 31.3436 88.8229C31.2829 89.0739 31.214 89.3242 31.1499 89.5731L31.1492 89.5738ZM39.4436 84.0069C39.2281 85.2223 38.9771 86.4412 38.6135 87.6368C38.2404 88.8658 37.7473 90.0935 37.2228 91.3048C37.9956 91.1139 38.7684 90.867 39.5479 90.6139C39.9613 89.3856 40.3432 88.1633 40.5935 86.9131C40.8356 85.7018 40.9673 84.4946 41.0607 83.2949C40.5219 83.5493 39.9824 83.7791 39.4436 84.0069ZM47.5838 82.7533C46.6781 82.9368 45.7948 83.1168 44.9102 83.2567C44.0413 83.3938 43.1744 83.492 42.3225 83.5574C42.4951 83.9346 42.6676 84.3111 42.8402 84.6862C43.9867 84.5294 45.1401 84.3132 46.2975 84.0588C45.5466 84.9884 44.7124 85.8996 43.8067 86.7951C43.9792 87.1723 44.1518 87.5488 44.3243 87.9239C45.0719 87.1641 45.7901 86.4255 46.4196 85.637C47.0266 84.8772 47.5586 84.0949 48.0654 83.3392C47.9071 83.1441 47.7421 82.9504 47.5838 82.7533ZM53.0641 78.6508C51.7989 77.805 50.9109 77.344 50.164 77.2826C49.4274 77.2219 48.8259 77.5752 48.0258 78.3657C47.5102 78.8745 46.9407 79.3587 46.3616 79.8621C47.1235 80.6942 47.8812 81.5277 48.6403 82.3611C49.3981 83.1939 50.1606 84.026 50.9184 84.8581C51.7669 84.2402 52.6222 83.6591 53.3949 83.0227C54.5892 82.0392 55.0796 81.3033 54.9657 80.6383C54.8531 79.9828 54.1179 79.354 52.8527 78.5082C52.9243 78.5539 52.9925 78.6017 53.0648 78.6501L53.0641 78.6508ZM51.4217 79.8812C52.3452 80.6062 52.7824 81.0236 52.852 81.3701C52.9223 81.718 52.629 82.0017 52.0792 82.4682C51.522 81.9669 50.962 81.4649 50.4048 80.9643C49.8448 80.4623 49.2869 79.9596 48.7304 79.4563C49.158 79.0505 49.4158 78.8363 49.7944 78.8997C50.1818 78.9645 50.6926 79.3035 51.6127 80.0326C51.552 79.9808 51.4872 79.931 51.4224 79.8812H51.4217ZM52.4857 75.5625C52.8234 75.1225 53.1432 74.686 53.4488 74.2536C52.9495 74.0217 52.4496 73.7905 51.9503 73.5586C51.4327 74.362 50.8468 75.1778 50.1927 76.0119C51.2778 76.6967 52.3637 77.3801 53.4488 78.0635C54.5339 78.7469 55.6232 79.4317 56.7117 80.1131C57.7287 79.0757 58.7101 78.0826 59.6514 77.1298C59.1521 76.8979 58.6487 76.6667 58.1495 76.4348C57.7075 76.9129 57.2546 77.3992 56.7908 77.8951C56.2773 77.6175 55.7664 77.3385 55.2494 77.0609C55.5475 76.7206 55.8421 76.3857 56.1265 76.0542C55.6375 75.8189 55.1526 75.5836 54.6635 75.3463C54.4118 75.6675 54.1458 75.9908 53.8764 76.3182C53.4167 76.0658 52.9495 75.8148 52.4857 75.5625Z" fill="#210D15"/>
<path d="M32.1415 101.507C32.2261 100.904 32.3052 100.302 32.3918 99.7018C32.4785 99.0982 32.561 98.498 32.6456 97.8944C33.2962 97.8337 33.9619 97.758 34.6426 97.6502C34.6944 97.0691 34.7456 96.4948 34.7933 95.9137C34.142 96.0283 33.5097 96.0992 32.8884 96.1627C32.9729 95.5618 33.0575 94.9541 33.1387 94.3505C33.9701 94.255 34.8268 94.1233 35.71 93.9474C35.7434 93.3683 35.7837 92.7872 35.8205 92.2088C34.2354 92.5164 32.7308 92.6972 31.289 92.8731C30.9984 94.3259 30.7024 95.7766 30.4098 97.2246C30.1179 98.6719 29.8253 100.123 29.5306 101.571C30.373 101.579 31.2446 101.557 32.1422 101.505L32.1415 101.507ZM40.4946 96.5276C41.1309 96.7179 41.3635 97.2676 41.4842 97.8582C41.6063 98.4564 41.6091 99.1009 41.8041 99.4774C42.9295 99.0621 44.0699 98.6201 45.2178 98.1467C44.8938 97.7757 44.7724 96.9961 44.5078 96.3079C44.2431 95.6191 43.8271 95.0114 42.952 94.9377C43.7684 94.2659 43.9096 93.4529 43.7098 92.496C43.527 91.6195 43.113 91.0991 42.3709 90.9286C41.6527 90.7629 40.6146 90.9464 39.1305 91.3904C38.312 91.6352 37.5011 91.8542 36.7031 92.0253C36.6553 93.5074 36.6021 94.9902 36.5523 96.4744C36.5026 97.9565 36.4528 99.4413 36.405 100.923C37.4424 100.709 38.4941 100.445 39.5718 100.176C39.5459 99.6213 39.5165 99.0716 39.4906 98.5178C39.4647 97.9681 39.432 97.4163 39.406 96.8645C39.7662 96.752 40.1304 96.6421 40.4946 96.5276ZM39.211 92.9748C40.4946 92.584 40.8001 92.8677 40.9031 93.8341C41.0061 94.7992 40.7374 95.1307 39.3399 95.5604C39.3215 95.128 39.299 94.6963 39.2771 94.2686C39.2553 93.8389 39.2328 93.4065 39.211 92.9741V92.9748ZM44.3864 89.3995C44.7431 90.7547 45.0964 92.1127 45.4531 93.4652C45.8098 94.8204 46.1631 96.1756 46.5157 97.5336C47.6745 96.9818 48.8149 96.3441 49.9512 95.6948C49.4581 94.4275 48.9615 93.1596 48.465 91.8951C47.9685 90.6299 47.4754 89.3606 46.9788 88.0926C46.1215 88.5639 45.2539 88.9916 44.3857 89.3995H44.3864ZM55.1082 90.3857C54.6478 90.754 54.3347 90.8952 54.0012 90.7151C53.6691 90.5364 53.3076 90.0324 52.7394 89.1253C52.1822 88.2352 51.8848 87.68 51.82 87.2769C51.7559 86.8766 51.9312 86.6235 52.3241 86.3371C53.0054 85.8398 53.431 86.1127 53.843 86.6522C54.7296 85.9046 55.5897 85.1673 56.4286 84.4273C55.8919 83.9069 55.235 83.6702 54.4425 83.7459C53.6568 83.821 52.7319 84.2302 51.5922 85.0378C50.0542 86.1277 49.2432 86.9461 48.9772 87.8778C48.7065 88.8238 48.9738 89.8605 49.5952 91.2526C50.2383 92.6931 50.8113 93.5518 51.7614 93.663C52.7306 93.7762 54.1131 93.1446 56.1347 91.4606C57.5929 90.2459 58.3547 89.1157 58.6357 88.2175C58.9058 87.3547 58.7094 86.6672 58.1719 86.1468C57.271 86.9843 56.3475 87.8314 55.3912 88.684C55.8182 89.2358 55.9089 89.7459 55.1082 90.3857ZM56.9286 80.7572C57.5356 81.7537 58.1358 82.7965 58.6794 83.9021C59.2359 85.0357 59.7243 86.2443 60.2099 87.4993C60.9936 86.6058 61.7548 85.7314 62.4975 84.8788C62.2949 84.5787 62.089 84.2807 61.8871 83.9806C62.4279 83.3579 62.9095 82.7229 63.3842 82.0974C63.7443 82.1827 64.1085 82.2659 64.4768 82.3416C65.0579 81.5429 65.6281 80.7715 66.1799 80.0267C64.8888 79.9387 63.614 79.8392 62.355 79.6728C61.102 79.507 59.8573 79.2792 58.6105 79.0234C58.0812 79.597 57.5179 80.1686 56.9299 80.7572H56.9286ZM59.6063 81.06C60.0183 81.1944 60.4336 81.3192 60.8456 81.4433C61.2535 81.5661 61.6695 81.6828 62.0849 81.7898C61.7793 82.1779 61.4669 82.5687 61.1361 82.9595C60.8899 82.6349 60.6423 82.3123 60.3818 81.9951C60.124 81.68 59.8634 81.3676 59.6056 81.06H59.6063Z" fill="#210D15"/>
<path fill-rule="evenodd" clip-rule="evenodd" d="M21.5896 97.6586C21.6483 97.7023 21.6182 97.6552 21.668 97.7371C21.7103 97.8073 21.6974 97.8032 21.7199 97.8898L22.1243 97.866C22.1618 97.8482 22.097 97.8687 22.2116 97.8319C22.2246 97.8278 22.2846 97.8114 22.2969 97.8087C22.3999 97.7855 22.4422 97.7807 22.5527 97.7732C22.524 97.7132 23.0089 97.7732 23.0874 97.7753C23.2531 97.6873 23.0662 97.6873 23.2872 97.6538C23.7196 97.5877 23.5819 97.821 23.7612 97.911C23.8922 97.9771 24.0463 97.9226 24.1725 97.9771C24.4276 98.0876 24.2216 98.4423 24.1691 98.6742L24.0518 98.9368C24.3451 98.9545 24.7789 98.9375 25.0176 98.9L26.1102 98.8631L26.898 98.8392L28.5902 98.7942C28.5165 98.8822 28.5465 98.8624 28.3521 98.915C28.2587 98.9402 28.1673 98.9825 28.0895 99.0091C27.9129 99.0698 27.7594 99.1114 27.5834 99.1823C27.0317 99.404 24.7454 100.095 24.4904 100.248C24.4467 100.482 24.5401 100.536 24.4985 100.728C24.4624 100.895 23.7687 101.439 24.1248 102.013C24.3478 102.372 24.133 103.223 24.3771 103.571L24.4719 103.736L25.3272 103.639L24.5558 103.944C24.4917 104.482 24.3601 104.169 24.652 104.562C24.9883 104.641 24.813 104.574 25.0455 104.475C25.2795 104.431 25.4834 104.74 26.19 104.08C26.3476 103.933 26.4642 103.803 26.6136 103.672C26.9369 103.387 26.7513 103.438 26.8843 103.066C27.0344 102.934 27.1988 102.992 27.269 102.786C27.3127 102.658 27.3318 102.268 27.3379 102.131C27.6182 102.008 28.1366 101.602 28.3139 101.387C28.4803 101.185 28.3235 101.177 28.2982 100.986C28.2805 100.853 28.3078 100.673 28.2887 100.503C27.9954 100.44 27.4116 100.589 27.0705 100.554L28.2116 100.16C28.2375 99.4524 28.1796 99.788 28.5069 99.4504C28.6202 99.3337 28.6324 99.3174 28.7354 99.1803C28.8807 98.9866 29.0819 98.8379 29.3234 98.7833L29.5382 98.6101C29.6166 98.5467 29.5409 98.5964 29.631 98.5412C29.6555 98.3434 30.0436 97.8544 30.1445 97.5966L25.7978 97.7064C26.1443 97.5147 28.7443 97.0427 29.1678 96.817C29.1344 96.6219 28.8234 96.5455 28.8036 96.2209C28.6945 96.1581 28.597 95.8771 28.5506 95.7107C28.4599 95.386 28.6229 95.356 28.4278 95.0832C28.1086 95.0805 23.3056 96.0408 22.3883 96.0804C22.5977 95.9399 26.0304 94.8172 26.617 94.5983C26.7541 94.5471 27.8679 94.1638 27.994 94.0676L27.8665 93.6823C27.6414 93.6604 27.4525 93.6693 27.224 93.6304C26.8591 93.5684 26.9696 93.6195 26.75 93.4054C26.1095 93.213 26.2091 93.5991 26.1934 93.7634C26.0379 93.7089 25.9731 93.6911 25.8115 93.64C25.6178 93.5786 25.7556 93.5186 25.6655 93.3576C25.3982 93.3235 25.4343 93.3754 25.2099 93.256C25.0674 93.1803 24.9378 93.2355 24.757 93.2683C24.4815 93.3194 24.075 93.4197 23.8056 93.4265L25.1519 92.8699L25.1376 92.5371C24.8743 92.5419 24.6697 92.6026 24.4201 92.5794C23.5198 92.4962 23.7162 92.6803 23.3657 92.7199C22.9564 92.7649 22.9578 92.5849 22.715 92.8734C22.509 93.1182 22.5574 93.0405 22.466 93.0793C22.2082 93.1898 22.2832 93.331 22.1393 93.6059C21.9906 93.8917 21.8617 93.7573 21.666 93.9926C21.6053 94.0656 21.5439 94.1713 21.473 94.2211C21.3447 94.3111 21.2793 94.2456 21.2042 94.3909C21.2036 94.3916 21.0064 95.0927 21.0017 95.1207L22.1257 94.9297L20.9607 95.3731C20.9314 95.5286 20.9198 95.6991 20.8844 95.8491C20.7875 96.2597 20.4601 96.0572 20.9901 96.774C21.149 96.9888 21.089 97.3265 21.239 97.3947C21.3788 97.4588 22.5015 97.2166 22.7757 97.2146L21.5494 97.555C21.6244 97.6518 21.58 97.5775 21.5923 97.6559L21.5896 97.6586Z" fill="#B70569"/>
<path d="M19.7466 91.9641C20.2568 92.0242 20.3168 92.4538 19.6852 93.4019C18.4657 95.2318 17.2449 97.0625 16.0267 98.8903C15.4579 99.7429 14.932 100.709 14.7581 101.536C14.5815 102.374 14.7602 103.083 15.5759 103.405C15.7826 103.486 15.9885 103.566 16.1945 103.648C16.4005 103.729 16.6072 103.811 16.8145 103.89C17.3786 102.939 17.944 101.984 18.5094 101.03C18.3423 100.977 18.1745 100.922 18.0074 100.867C17.5675 100.722 17.5927 100.002 18.1302 99.1359C19.2815 97.2814 20.4335 95.4289 21.5841 93.5751C22.3357 92.3631 22.4632 91.6163 22.3036 91.1955C22.9482 90.8449 23.6943 90.1758 24.4596 88.9433C25.6095 87.0923 26.7608 85.2384 27.9114 83.3846C28.4509 82.5157 29.1364 81.8541 29.5211 81.7839C29.6691 81.7566 29.815 81.7313 29.9631 81.7041C30.5285 80.7499 31.0939 79.795 31.66 78.8408C31.4847 78.8858 31.3101 78.9349 31.1348 78.9813C30.9609 79.027 30.787 79.0748 30.611 79.1218C29.9208 79.3073 29.1596 79.943 28.425 80.7274C27.6932 81.5083 26.9811 82.453 26.4137 83.3048C25.1942 85.1355 23.974 86.9668 22.7552 88.7953C22.1263 89.7393 21.5493 90.1103 21.0459 90.0783C20.6122 90.7071 20.1804 91.338 19.7466 91.9641Z" fill="#210D15"/>
<path d="M59.8102 72.1901C59.3976 72.5175 59.5094 72.864 60.4084 73.2044C62.1428 73.8612 63.878 74.5187 65.611 75.1741C66.4193 75.4804 67.2343 75.8923 67.6968 76.3984C68.1653 76.9113 68.2819 77.5272 67.7083 78.2147C67.5631 78.3886 67.4178 78.5619 67.2732 78.7351C67.1279 78.909 66.9833 79.0823 66.8367 79.2562C65.995 78.8749 65.15 78.4936 64.3056 78.1117C64.4284 77.9807 64.5505 77.8471 64.6719 77.7141C64.9917 77.3642 64.6978 76.8533 63.9107 76.5205C62.2253 75.8077 60.54 75.097 58.8553 74.3836C57.7545 73.9171 57.3623 73.4438 57.3385 73.0482C56.6557 73.1505 55.7657 73.0768 54.6457 72.6035C52.9624 71.8921 51.2778 71.18 49.5931 70.4673C48.8033 70.1331 47.9678 70.0315 47.6131 70.1938C47.4767 70.2559 47.3423 70.3186 47.2059 70.3807C46.3616 69.9987 45.5172 69.6175 44.6721 69.2355C44.8392 69.1707 45.0056 69.11 45.1734 69.0466C45.3392 68.9838 45.5056 68.9211 45.6734 68.8583C46.3322 68.6107 47.223 68.6517 48.1465 68.8154C49.0672 68.9784 50.0323 69.2723 50.8399 69.5779C52.575 70.2354 54.3102 70.8929 56.0432 71.5497C56.9374 71.8887 57.5704 71.8396 57.9871 71.5361C58.5955 71.7536 59.2032 71.9739 59.8102 72.1901Z" fill="#210D15"/>
</g>
<defs>
<clipPath id="clip0_6955_287">
<rect width="68.1647" height="104.197" fill="white" transform="translate(0.11731 0.401367)"/>
</clipPath>
</defs>
</svg>
