<svg width="186" height="81" viewBox="0 0 186 81" fill="none" xmlns="http://www.w3.org/2000/svg">
<g clip-path="url(#clip0_6955_364)">
<path d="M87.1342 65.2683V47.6777H80.7117V70.3558H97.9537V65.2683H87.1342Z" fill="black"/>
<path d="M107.124 52.5039C104.372 52.5039 101.39 53.2149 99.3803 54.5453L101.445 58.7245C102.644 57.7841 104.521 57.2014 106.206 57.2014C108.638 57.2014 109.837 58.2061 109.934 59.9883H106.443C100.997 59.9883 98.644 61.9976 98.644 65.2364C98.644 68.2824 100.977 70.6497 105.19 70.6497C107.75 70.6497 109.498 69.7733 110.374 68.0898V70.3561H116.109V60.603C116.097 55.0408 112.826 52.5039 107.124 52.5039ZM109.941 64.718C109.454 66.1103 108.255 66.7595 106.895 66.7595C105.438 66.7595 104.601 66.014 104.601 64.9795C104.601 63.9084 105.312 63.1949 107.289 63.1949H109.945L109.941 64.718Z" fill="black"/>
<path d="M131.937 46.3242V54.3293C130.77 53.0976 129.12 52.515 127.079 52.515C122.283 52.515 118.427 55.9831 118.427 61.5546C118.427 67.126 122.283 70.6607 127.079 70.6607C129.345 70.6607 131.063 70.0093 132.231 68.6171V70.3671H138.094V46.3242H131.937ZM128.368 65.7544C126.26 65.7544 124.673 64.2314 124.673 61.543C124.673 58.8548 126.26 57.3961 128.368 57.3961C130.476 57.3961 132.038 58.8846 132.038 61.543C132.038 64.2015 130.449 65.7544 128.368 65.7544Z" fill="black"/>
<path d="M141.238 52.7934V70.3565H147.392V52.7934H141.238ZM144.316 44.3066C142.047 44.3066 140.559 45.7311 140.559 47.5774C140.559 49.4239 142.047 50.8506 144.316 50.8506C146.584 50.8506 148.073 49.4262 148.073 47.472C148.073 45.6369 146.582 44.3066 144.316 44.3066Z" fill="black"/>
<path d="M168.51 61.6078C168.51 55.8069 164.299 52.5039 159.106 52.5039C153.564 52.5039 149.452 56.261 149.452 61.5434C149.452 66.826 153.5 70.6497 159.755 70.6497C163.091 70.6497 165.553 69.6748 167.238 67.7961L163.996 64.4267C162.801 65.4635 161.666 65.9498 159.947 65.9498C157.682 65.9498 156.157 64.9107 155.638 63.1307H168.405C168.453 62.6444 168.51 62.0619 168.51 61.6078ZM155.551 59.892C155.909 58.0432 157.237 56.878 159.147 56.878C161.057 56.878 162.42 58.0432 162.746 59.892H155.551Z" fill="black"/>
<path d="M175.287 58.1097C175.287 57.4607 176.033 56.878 178.104 56.878C179.87 56.8697 181.607 57.316 183.15 58.1739L184.996 53.9926C183.247 53.0222 180.526 52.5039 178.062 52.5039C172.558 52.5039 169.511 55.027 169.511 58.3346C169.511 65.3648 179.879 62.6766 179.879 65.0437C179.879 65.7869 179.191 66.2387 177.126 66.2387C174.986 66.2387 172.624 65.6263 171.003 64.6216L169.168 68.8307C170.885 69.9018 173.963 70.6497 176.946 70.6497C182.645 70.6497 185.628 68.1265 185.628 64.8785C185.623 57.9125 175.287 60.5457 175.287 58.1097Z" fill="black"/>
<path d="M161.083 30.0531L165.326 25.4887V21.8623H150.522V26.3373H158.597L154.94 30.2872V33.9388H157.369C159.592 33.9388 160.498 34.698 160.498 35.9275C160.498 37.3038 159.21 38.0629 157.252 38.0629C155.575 38.0548 153.923 37.6474 152.436 36.8748C152.174 38.489 151.468 39.9983 150.396 41.2329C152.413 42.2214 154.984 42.7422 157.435 42.7422C163.608 42.7422 166.358 39.407 166.358 35.9252C166.349 33.0076 164.536 30.7849 161.083 30.0531Z" fill="black"/>
<path d="M108.893 21.8623L104.59 35.0558L100.461 21.8623H95.1397L90.8114 34.9365L86.6826 21.8623H80.719L87.3708 42.3407H93.564L97.656 29.879L101.576 42.3407H107.769L114.421 21.8623H108.893Z" fill="black"/>
<path d="M130.542 34.4395C130.542 29.203 126.739 26.2188 122.055 26.2188C117.052 26.2188 113.339 29.6136 113.339 34.3822C113.339 39.151 116.995 42.603 122.642 42.603C125.656 42.603 127.879 41.7244 129.4 40.0294L126.475 36.9856C125.985 37.4463 125.408 37.8054 124.778 38.0415C124.148 38.2778 123.478 38.3867 122.805 38.3619C120.759 38.3619 119.383 37.426 118.906 35.8181H130.432C130.482 35.3754 130.542 34.8547 130.542 34.4395ZM118.844 32.8891C119.165 31.2214 120.365 30.1686 122.092 30.1686C123.819 30.1686 125.046 31.2214 125.337 32.8891H118.844Z" fill="black"/>
<path d="M145.373 26.7819C144.413 26.4051 143.391 26.2144 142.361 26.22C140.526 26.22 139.024 26.7475 137.943 27.8599V20.6348H132.383V42.3426H137.679V40.7622C138.732 42.0215 140.283 42.5973 142.361 42.5973C146.659 42.5973 150.141 39.4365 150.141 34.3765C150.141 30.601 148.176 27.8944 145.373 26.7819ZM141.189 38.1864C139.317 38.1864 137.854 36.8101 137.854 34.3834C137.854 31.9566 139.317 30.6377 141.189 30.6377C143.061 30.6377 144.524 31.9842 144.524 34.3834C144.524 36.7826 143.063 38.1864 141.189 38.1864Z" fill="black"/>
<path d="M70.6329 74.8409C70.6378 75.722 70.3809 76.5848 69.8946 77.3195C69.4082 78.0543 68.7145 78.628 67.9015 78.9676C67.0885 79.3074 66.1929 79.3978 65.3283 79.2276C64.4638 79.0571 63.6694 78.6337 63.0461 78.011C62.4226 77.3883 61.9985 76.5942 61.8271 75.73C61.656 74.8657 61.7455 73.9699 62.0843 73.1565C62.4232 72.3432 62.9962 71.6489 63.7305 71.1617C64.4647 70.6747 65.3271 70.4169 66.2083 70.4209C66.7923 70.4084 67.3729 70.5142 67.915 70.7318C68.4573 70.9495 68.9499 71.2745 69.3631 71.6874C69.7764 72.1003 70.1021 72.5925 70.3202 73.1344C70.5384 73.6763 70.6448 74.2568 70.6329 74.8409ZM69.9035 74.8409C69.9035 72.7238 68.3415 71.1136 66.2014 71.1136C65.456 71.1036 64.7247 71.3157 64.1004 71.7231C63.4761 72.1304 62.9873 72.7144 62.6964 73.4006C62.4053 74.0868 62.3252 74.8442 62.4662 75.5761C62.6075 76.308 62.9632 76.9814 63.4886 77.5103C64.0139 78.0391 64.6847 78.3995 65.4157 78.5456C66.1466 78.6916 66.9045 78.6167 67.5927 78.3303C68.2808 78.0439 68.8682 77.5592 69.2797 76.9376C69.6913 76.3163 69.9085 75.5863 69.9035 74.8409ZM67.4859 75.646L68.5937 77.3457H67.5112L66.5294 75.834H65.41V77.3457H64.3275V72.3843H66.3918C67.6992 72.3843 68.4813 73.0724 68.4813 74.1092C68.5007 74.438 68.4147 74.7644 68.2356 75.0409C68.0566 75.3172 67.7939 75.5293 67.4859 75.646ZM66.3276 74.9968C67.0341 74.9968 67.4354 74.6712 67.4354 74.116C67.4354 73.561 67.0341 73.2468 66.3276 73.2468H65.3963V74.9968H66.3276Z" fill="black"/>
<path d="M53.8374 14.3929L53.7479 14.3378C50.6462 12.4569 47.2697 11.0724 43.7403 10.2343L43.9697 9.28705L44.7955 5.83266L46.0226 0.639648H25.2092L26.4479 5.83266L27.2712 9.28705L27.5006 10.2343C23.9732 11.0737 20.5984 12.4582 17.4977 14.3378L17.406 14.3952C15.7686 15.3915 14.2158 16.5208 12.7634 17.7716L24.6909 29.6991C26.6812 28.2068 28.9571 27.1394 31.3771 26.5635L34.4507 39.4611L34.8956 41.326L35.6021 44.2848L36.3086 41.3191L36.749 39.4726L39.8295 26.5611C42.2512 27.1388 44.5285 28.2075 46.5203 29.7013L50.149 26.0703L53.819 22.4003L58.4547 17.7669C57.0101 16.5183 55.4658 15.3899 53.8374 14.3929Z" fill="url(#paint0_linear_6955_364)"/>
<path d="M53.8374 14.3929L53.7479 14.3378C50.6462 12.4569 47.2697 11.0724 43.7403 10.2343L43.9697 9.28705L44.7955 5.83266L46.0226 0.639648H25.2092L26.4479 5.83266L27.2712 9.28705L27.5006 10.2343C23.9732 11.0737 20.5984 12.4582 17.4977 14.3378L17.406 14.3952C15.7686 15.3915 14.2158 16.5208 12.7634 17.7716L24.6909 29.6991C26.6812 28.2068 28.9571 27.1394 31.3771 26.5635L34.4507 39.4611L34.8956 41.326L35.6021 44.2848L36.3086 41.3191L36.749 39.4726L39.8295 26.5611C42.2512 27.1388 44.5285 28.2075 46.5203 29.7013L50.149 26.0703L53.819 22.4003L58.4547 17.7669C57.0101 16.5183 55.4658 15.3899 53.8374 14.3929Z" fill="url(#paint1_linear_6955_364)"/>
<path d="M65.5803 26.1704L65.5275 26.0787C64.5279 24.4453 63.3972 22.8958 62.1467 21.4453L57.511 26.0787L53.8411 29.7487L50.2123 33.3774C50.6834 34.0072 51.1133 34.6669 51.4991 35.3522L47.0057 38.2125C46.7464 38.0147 46.4277 37.9105 46.1018 37.9168C45.7757 37.923 45.4613 38.0394 45.2096 38.247L45.1662 38.279C45.1475 38.273 45.1298 38.2644 45.1134 38.2539L39.2505 35.0427L39.0028 36.0862L39.3606 36.2812C41.1208 37.2446 42.8793 38.2041 44.6363 39.1598L44.6707 39.1804C44.6694 39.1896 44.6694 39.1989 44.6707 39.208C44.6506 39.3603 44.6506 39.5145 44.6707 39.6667C44.6707 39.6667 44.6707 39.6828 44.6707 39.692L43.8747 40.2012L43.6453 40.348L36.1333 45.1304L35.6311 45.4493L35.0875 45.1029L26.5502 39.6943C26.5502 39.6714 26.5502 39.6508 26.5502 39.6278C26.5502 39.4787 26.5502 39.3366 26.5502 39.1898H26.5686L28.2889 38.2516C29.1053 37.8096 29.9204 37.3654 30.7339 36.9189L32.2317 36.1023L31.9817 35.0564L26.0684 38.2951C25.8571 38.0961 25.5894 37.9672 25.3019 37.9261C25.0146 37.8851 24.7215 37.9338 24.4629 38.0657C24.3778 38.1069 24.2966 38.1552 24.2197 38.2103L19.7309 35.3683C20.1207 34.6757 20.5553 34.0092 21.0315 33.3728L9.104 21.4453C7.85275 22.8952 6.72199 24.4447 5.72304 26.0787L5.66798 26.1704C2.36372 31.6397 0.617188 37.9079 0.617188 44.2978C0.617188 50.6876 2.36372 56.956 5.66798 62.4253L5.72304 62.5123C6.71848 64.1471 7.84619 65.6975 9.09483 67.148C9.65908 67.8041 10.2478 68.4387 10.861 69.0518C11.4742 69.665 12.1096 70.2553 12.7671 70.8226C14.2157 72.0736 15.7646 73.2037 17.3981 74.2012C17.43 74.2173 17.4606 74.2358 17.4898 74.2563C20.5888 76.1377 23.9632 77.5224 27.4906 78.3598C32.8325 79.6229 38.3952 79.6229 43.7371 78.3598C47.2666 77.5224 50.6432 76.1378 53.7446 74.2563L53.8341 74.2012C55.4687 73.2031 57.0192 72.0732 58.4698 70.8226C59.1257 70.2568 59.7603 69.6665 60.3736 69.0518C60.9883 68.4394 61.5755 67.8041 62.1444 67.148C63.3931 65.6965 64.5223 64.1463 65.5208 62.5123C65.5391 62.4848 65.5551 62.455 65.5734 62.4253C68.8792 56.9565 70.6266 50.6881 70.6266 44.2978C70.6266 37.9076 68.8792 31.6391 65.5734 26.1704H65.5803ZM17.4119 44.2956C17.405 41.5265 18.0327 38.7928 19.2468 36.3042L23.6624 39.1025C23.6423 39.2099 23.6337 39.3191 23.6371 39.4282C23.6317 39.7173 23.7175 40.0006 23.882 40.2382C24.0467 40.4758 24.2821 40.6554 24.5547 40.7517C24.5679 40.7554 24.5804 40.7616 24.5914 40.77C24.5914 40.77 24.5914 40.7953 24.5914 40.8183C24.5914 43.6288 24.5914 46.4371 24.5914 49.2432V51.397C24.3247 51.4877 24.0914 51.656 23.9214 51.8804C23.7513 52.1048 23.6523 52.375 23.6371 52.6563C23.6266 52.7894 23.6313 52.9232 23.6508 53.0553L20.7929 54.8788C18.5823 51.7932 17.3964 48.0913 17.4027 44.2956H17.4119ZM35.1036 62.5056C30.455 62.3776 26.0328 60.4703 22.7494 57.1771C22.284 56.7146 21.8451 56.2261 21.4351 55.7137L24.2219 53.9431C24.2678 53.9728 24.3137 54.0026 24.362 54.0301C24.6234 54.1938 24.9306 54.2689 25.238 54.244C25.5455 54.2192 25.8367 54.096 26.0684 53.8925L34.1677 58.3126V58.3538C34.1517 58.5151 34.1564 58.6777 34.1814 58.8379C34.2316 59.0769 34.3423 59.2989 34.503 59.4828C34.6636 59.6668 34.8689 59.8064 35.0989 59.8884L35.1036 62.5056ZM25.6349 51.3946V40.7678C25.7703 40.7351 25.8947 40.6671 25.995 40.5706L34.8534 46.1878C34.9492 46.2326 35.0293 46.3054 35.0828 46.3966C35.1109 46.4697 35.1227 46.5479 35.1173 46.626V57.1335C34.9583 57.1973 34.8098 57.2847 34.6768 57.3928L26.5617 52.975V52.9291C26.5636 52.6278 26.4767 52.3326 26.3117 52.0805L26.2199 51.9428C26.0704 51.7136 25.8663 51.5253 25.6258 51.3946H25.6349ZM44.7945 52.3121C44.7253 52.4186 44.6886 52.543 44.6891 52.6699C44.6891 52.7709 44.6891 52.8718 44.6891 52.975C44.6891 52.975 44.6752 52.975 44.6683 52.975C43.682 53.521 42.695 54.0623 41.7071 54.599L39.4846 55.8102L36.6128 57.379C36.6128 57.379 36.6012 57.379 36.5945 57.379L36.5164 57.3354C36.3834 57.2666 36.2642 57.2001 36.1541 57.129V56.7483C36.1541 56.5601 36.1541 56.3744 36.1541 56.1839V46.3668L36.6265 46.0663L45.2579 40.5614C45.3416 40.6414 45.4468 40.6956 45.5606 40.7174H45.6156C45.6222 40.783 45.6222 40.849 45.6156 40.9146C45.6156 43.69 45.6156 46.4662 45.6156 49.2432V51.3556L45.3542 51.4979C45.2824 51.5373 45.2217 51.594 45.1776 51.6631C45.0729 51.7383 44.9845 51.8336 44.9171 51.9436C44.8497 52.0534 44.805 52.1755 44.7853 52.3029L44.7945 52.3121ZM48.5126 57.1863C47.8988 57.8018 47.2419 58.3728 46.547 58.8952C43.5399 61.15 39.9066 62.4149 36.1494 62.5148V59.8837C36.3761 59.8007 36.5776 59.6608 36.7351 59.4777C36.8924 59.2947 37.0003 59.0743 37.0486 58.8379C37.0746 58.6763 37.0815 58.5124 37.0692 58.3493C37.0704 58.3362 37.0704 58.3233 37.0692 58.3102C39.7591 56.8391 42.4595 55.3651 45.1707 53.888C45.4675 54.1386 45.8497 54.2643 46.2373 54.2389C46.5155 54.2206 46.7825 54.1217 47.0057 53.9545L49.8063 55.7413C49.399 56.2437 48.9641 56.723 48.5034 57.1771L48.5126 57.1863ZM50.4417 54.9155L47.5745 53.0806C47.5745 53.0645 47.5883 53.0484 47.5928 53.0324L47.6203 52.9499V52.5851L47.5997 52.5346C47.5791 52.4842 47.5608 52.4314 47.5402 52.3787C47.4953 52.2479 47.4409 52.1206 47.3773 51.9979C47.212 51.716 46.9517 51.5023 46.6432 51.3946V49.1996C46.6432 46.4058 46.6432 43.612 46.6432 40.8183C46.6432 40.7953 46.6432 40.7792 46.6432 40.77L46.6754 40.7563C46.898 40.6756 47.0966 40.5396 47.2523 40.361C47.408 40.1825 47.5158 39.9673 47.5653 39.7356C47.5707 39.7131 47.5793 39.6915 47.5906 39.6714L47.6227 39.5705V39.2126L47.5883 39.1117V39.0933L51.9876 36.2858C53.4327 39.2409 54.0512 42.532 53.7779 45.8101C53.5044 49.0883 52.3492 52.2313 50.4348 54.9063L50.4417 54.9155ZM36.138 36.1344L36.115 36.2308H36.138V36.1344ZM35.0944 36.1093V36.2308H35.1242L35.0944 36.1093Z" fill="url(#paint2_linear_6955_364)"/>
</g>
<defs>
<linearGradient id="paint0_linear_6955_364" x1="12.7703" y1="22.4668" x2="58.473" y2="22.4668" gradientUnits="userSpaceOnUse">
<stop stop-color="#7D0BFE"/>
<stop offset="1" stop-color="#B072D2"/>
</linearGradient>
<linearGradient id="paint1_linear_6955_364" x1="12.7703" y1="22.4668" x2="58.473" y2="22.4668" gradientUnits="userSpaceOnUse">
<stop stop-color="#7D0BFE"/>
<stop offset="1" stop-color="#B072D2"/>
</linearGradient>
<linearGradient id="paint2_linear_6955_364" x1="19394.7" y1="42010" x2="40766.4" y2="42010" gradientUnits="userSpaceOnUse">
<stop stop-color="#7D0BFE"/>
<stop offset="1" stop-color="#B072D2"/>
</linearGradient>
<clipPath id="clip0_6955_364">
<rect width="185.01" height="79.7199" fill="white" transform="translate(0.617188 0.639648)"/>
</clipPath>
</defs>
</svg>
