<svg width="17" height="16" viewBox="0 0 17 16" fill="none" xmlns="http://www.w3.org/2000/svg">
<path d="M9.30665 11.7874C8.82286 11.7874 8.42231 11.3935 8.48361 10.9136C8.49351 10.8361 8.5048 10.7598 8.51747 10.6846C8.58061 10.3416 8.69635 10.0148 8.86471 9.70439C9.00676 9.41031 9.17249 9.17341 9.36189 8.9937C9.55656 8.80854 9.767 8.62882 9.99324 8.45456C10.2247 8.27484 10.4667 8.04612 10.7193 7.76838C10.9297 7.52876 11.0691 7.28641 11.1375 7.04135C11.2112 6.79629 11.248 6.53216 11.248 6.24897C11.248 6.04203 11.2244 5.8487 11.177 5.66899C11.1297 5.48927 11.0507 5.33407 10.9402 5.20337C10.7719 4.98553 10.5588 4.83305 10.301 4.74591C10.0432 4.65333 9.7749 4.60704 9.49605 4.60704C9.24352 4.60704 9.0015 4.64244 8.77001 4.71324C8.54378 4.78403 8.35438 4.89295 8.2018 5.03999C8.03871 5.18158 7.9177 5.35857 7.83878 5.57096C7.71189 5.92746 7.42505 6.24897 7.04664 6.24897H6.89442C6.41277 6.24897 6.02554 5.8327 6.16409 5.37141C6.22178 5.1793 6.29335 4.99259 6.3788 4.81126C6.58925 4.3647 6.87336 4.00255 7.23112 3.72481C7.53626 3.4743 7.8835 3.28914 8.27283 3.16933C8.66216 3.04407 9.05148 2.98145 9.44081 2.98145C9.9985 2.98145 10.5246 3.0713 11.0192 3.25102C11.519 3.43073 11.9346 3.72209 12.2661 4.12508C12.5081 4.40827 12.6896 4.7323 12.8106 5.09717C12.9369 5.4566 13 5.82964 13 6.2163C13 6.73366 12.8921 7.2129 12.6764 7.65401C12.466 8.09513 12.195 8.49812 11.8636 8.863C11.69 9.0536 11.5137 9.22787 11.3348 9.3858C11.156 9.53829 10.9902 9.68805 10.8377 9.83509C10.6851 9.98213 10.5588 10.1428 10.4588 10.317C10.3168 10.5676 10.2352 10.7936 10.2142 10.9951C10.1674 11.4307 9.82744 11.7874 9.38929 11.7874H9.30665ZM9.3106 14.9814C8.82898 14.9814 8.43856 14.591 8.43856 14.1094V13.8766C8.43856 13.395 8.82898 13.0046 9.3106 13.0046C9.79221 13.0046 10.1826 13.395 10.1826 13.8766V14.1094C10.1826 14.591 9.79221 14.9814 9.3106 14.9814Z" fill="#5801FF"/>
</svg>
