<svg width="28" height="24" viewBox="0 0 28 24" fill="none" xmlns="http://www.w3.org/2000/svg">
<path fill-rule="evenodd" clip-rule="evenodd" d="M19.9821 23.2554C22.0215 23.0432 23.9817 22.0334 25.3213 20.5049C26.3773 19.3001 27.0347 17.887 27.2945 16.2637C27.4124 15.5277 27.4159 3.55203 27.2985 3.05525C27.0896 2.17145 26.4483 1.38402 25.6208 0.995287C24.9935 0.700531 24.8881 0.693235 21.2405 0.692245C19.0287 0.691671 17.7845 0.710902 17.5567 0.749265C17.3675 0.781112 17.0163 0.898027 16.7761 1.0091C15.9999 1.36807 15.3435 2.14893 15.1103 2.99067C15.0264 3.29366 15.0182 3.64184 15.0182 6.86795C15.0182 10.7991 15.0115 10.7128 15.3692 11.3968C15.6085 11.8543 16.2748 12.5003 16.7373 12.7232C17.3566 13.0216 17.5616 13.0426 19.855 13.0437C22.3229 13.0447 22.3284 13.0456 22.787 13.5127C23.1601 13.8929 23.248 14.1559 23.2475 14.8914C23.2465 16.1858 22.8787 17.1244 22.0504 17.9464C21.4329 18.5591 20.8004 18.9144 20.0485 19.0708C19.8402 19.1141 19.2304 19.166 18.6933 19.1862L17.7168 19.2228L17.517 19.3814C17.4071 19.4686 17.2636 19.6441 17.1979 19.7715C17.0816 19.997 17.0789 20.0364 17.0934 21.3107L17.1083 22.6183L17.2579 22.8335C17.3512 22.9679 17.5073 23.0984 17.6731 23.1808C17.9254 23.3062 17.9792 23.3124 18.7514 23.3059C19.1984 23.3021 19.7522 23.2793 19.9821 23.2554ZM5.56054 23.2574C7.81637 23.0351 9.98504 21.8055 11.346 19.9769C12.1457 18.9026 12.6945 17.5687 12.9115 16.1719C12.9656 15.8239 12.9803 14.3987 12.9803 9.52623C12.9803 2.62982 13.0008 3.04785 12.6286 2.33913C12.3765 1.85892 11.7548 1.25809 11.2747 1.03068C10.5685 0.696103 10.5294 0.693182 6.78847 0.693182C3.10715 0.693182 3.00599 0.700113 2.37776 0.995285C1.55025 1.38402 0.908958 2.17145 0.700003 3.05524C0.585205 3.54093 0.588391 10.2084 0.703658 10.6962C0.835805 11.2554 1.07392 11.6718 1.51414 12.1135C1.97558 12.5765 2.56101 12.8921 3.13511 12.9874C3.34338 13.022 4.28554 13.0445 5.52365 13.0445C7.45489 13.0445 7.58416 13.0504 7.85373 13.1511C8.18114 13.2733 8.50777 13.5655 8.6789 13.8894C8.78037 14.0814 8.79991 14.2106 8.81679 14.802C8.85692 16.2069 8.47527 17.1701 7.52716 18.057C6.6072 18.9175 5.77248 19.1881 4.01911 19.1946C3.31585 19.1972 3.11274 19.277 2.84563 19.656L2.68668 19.8814L2.66964 21.1149C2.65083 22.4781 2.67346 22.6318 2.93681 22.931C3.2289 23.2628 3.41016 23.3114 4.33262 23.3046C4.77807 23.3013 5.33063 23.2801 5.56054 23.2574Z" fill="#5801FF"/>
</svg>
