<svg width="28" height="24" viewBox="0 0 28 24" fill="none" xmlns="http://www.w3.org/2000/svg">
<path fill-rule="evenodd" clip-rule="evenodd" d="M8.01788 0.744575C5.97848 0.956769 4.01829 1.9666 2.67871 3.49506C1.62274 4.69989 0.965307 6.113 0.705457 7.73627C0.587629 8.47225 0.584075 20.448 0.701486 20.9448C0.910442 21.8286 1.55173 22.616 2.37925 23.0047C3.00654 23.2995 3.11193 23.3068 6.75954 23.3078C8.97127 23.3083 10.2155 23.2891 10.4433 23.2507C10.6325 23.2189 10.9837 23.102 11.2239 22.9909C12.0001 22.6319 12.6565 21.8511 12.8897 21.0093C12.9736 20.7063 12.9818 20.3582 12.9818 17.132C12.9818 13.2009 12.9885 13.2872 12.6308 12.6032C12.3915 12.1457 11.7252 11.4997 11.2627 11.2768C10.6434 10.9784 10.4384 10.9574 8.14496 10.9563C5.67709 10.9553 5.6716 10.9544 5.21304 10.4873C4.83985 10.1071 4.75197 9.84413 4.75254 9.10862C4.75348 7.8142 5.12128 6.87556 5.94958 6.05363C6.5671 5.44087 7.19961 5.0856 7.95147 4.92923C8.1598 4.88592 8.76963 4.83395 9.30673 4.81383L10.2832 4.77719L10.483 4.61863C10.5929 4.53143 10.7365 4.35588 10.8021 4.22854C10.9184 4.00295 10.9211 3.9636 10.9066 2.68934L10.8917 1.38168L10.7421 1.16646C10.6488 1.03209 10.4927 0.901622 10.327 0.819215C10.0746 0.693755 10.0208 0.687552 9.24862 0.69412C8.80161 0.697925 8.24779 0.720651 8.01788 0.744575ZM22.4395 0.742594C20.1836 0.9649 18.015 2.19454 16.654 4.02307C15.8543 5.09743 15.3055 6.43132 15.0885 7.82806C15.0344 8.17609 15.0197 9.60129 15.0197 14.4738C15.0197 21.3702 14.9992 20.9522 15.3714 21.6609C15.6235 22.1411 16.2452 22.7419 16.7253 22.9693C17.4315 23.3039 17.4706 23.3068 21.2115 23.3068C24.8929 23.3068 24.994 23.2999 25.6222 23.0047C26.4498 22.616 27.091 21.8286 27.3 20.9448C27.4148 20.4591 27.4116 13.7916 27.2963 13.3038C27.1642 12.7446 26.9261 12.3282 26.4859 11.8865C26.0244 11.4235 25.439 11.1079 24.8649 11.0126C24.6566 10.978 23.7145 10.9555 22.4763 10.9555C20.5451 10.9555 20.4158 10.9496 20.1463 10.8489C19.8189 10.7267 19.4922 10.4345 19.3211 10.1106C19.2196 9.91856 19.2001 9.7894 19.1832 9.19802C19.1431 7.79314 19.5247 6.82985 20.4728 5.94297C21.3928 5.08253 22.2275 4.81185 23.9809 4.80539C24.6842 4.80283 24.8873 4.72298 25.1544 4.34404L25.3133 4.11861L25.3304 2.88506C25.3492 1.52194 25.3265 1.36823 25.0632 1.06904C24.7711 0.737174 24.5898 0.688647 23.6674 0.695423C23.2219 0.698707 22.6694 0.719921 22.4395 0.742594Z" fill="#5801FF"/>
</svg>
