<svg width="19" height="19" viewBox="0 0 19 19" fill="none" xmlns="http://www.w3.org/2000/svg">
<g id="calendar" clip-path="url(#clip0_4862_125)">
<g id="Group">
<path id="Vector" d="M4.4375 0.5C4.58668 0.5 4.72976 0.559263 4.83525 0.664752C4.94074 0.770242 5 0.913316 5 1.0625V1.625H14V1.0625C14 0.913316 14.0593 0.770242 14.1648 0.664752C14.2702 0.559263 14.4133 0.5 14.5625 0.5C14.7117 0.5 14.8548 0.559263 14.9602 0.664752C15.0657 0.770242 15.125 0.913316 15.125 1.0625V1.625H16.25C16.8467 1.625 17.419 1.86205 17.841 2.28401C18.2629 2.70597 18.5 3.27826 18.5 3.875V16.25C18.5 16.8467 18.2629 17.419 17.841 17.841C17.419 18.2629 16.8467 18.5 16.25 18.5H2.75C2.15326 18.5 1.58097 18.2629 1.15901 17.841C0.737053 17.419 0.5 16.8467 0.5 16.25V3.875C0.5 3.27826 0.737053 2.70597 1.15901 2.28401C1.58097 1.86205 2.15326 1.625 2.75 1.625H3.875V1.0625C3.875 0.913316 3.93426 0.770242 4.03975 0.664752C4.14524 0.559263 4.28832 0.5 4.4375 0.5ZM1.625 5V16.25C1.625 16.5484 1.74353 16.8345 1.9545 17.0455C2.16548 17.2565 2.45163 17.375 2.75 17.375H16.25C16.5484 17.375 16.8345 17.2565 17.0455 17.0455C17.2565 16.8345 17.375 16.5484 17.375 16.25V5H1.625Z" fill="white"/>
</g>
<g id="Group 1000003944">
<path id="Vector_2" d="M10.9213 10.7328C10.8555 10.659 10.7773 10.6004 10.6913 10.5604C10.6053 10.5205 10.5132 10.5 10.4201 10.5C10.327 10.5 10.2349 10.5207 10.1489 10.5607C10.0629 10.6007 9.98484 10.6593 9.91908 10.7332L9.83324 10.8307L9.74811 10.7334L9.74755 10.7328C9.68177 10.659 9.60368 10.6005 9.51773 10.5605C9.43179 10.5206 9.33967 10.5 9.24664 10.5C9.15361 10.5 9.06149 10.5206 8.97555 10.5605C8.8896 10.6005 8.81151 10.659 8.74573 10.7328L8.70748 10.7757C8.57463 10.9248 8.5 11.127 8.5 11.3378C8.5 11.5486 8.57463 11.7508 8.70748 11.8999L9.7168 13.0324L9.83078 13.1664L9.8335 13.1634L9.83645 13.1667L9.94324 13.0402L10.9595 11.8999C11.0922 11.7507 11.1667 11.5485 11.1667 11.3378C11.1667 11.127 11.0922 10.9249 10.9595 10.7757L10.9213 10.7328ZM10.8343 11.7593L9.8335 12.8823L8.8327 11.7593C8.73307 11.6475 8.67709 11.4959 8.67709 11.3378C8.67709 11.1797 8.73307 11.028 8.8327 10.9162L8.87095 10.8733C8.97054 10.7616 9.1056 10.6988 9.24643 10.6987C9.38727 10.6987 9.52237 10.7614 9.62203 10.873L9.83285 11.1139L10.0447 10.8733C10.094 10.818 10.1526 10.7741 10.217 10.7441C10.2815 10.7141 10.3506 10.6987 10.4204 10.6987C10.4901 10.6987 10.5592 10.7141 10.6237 10.7441C10.6881 10.7741 10.7467 10.818 10.796 10.8733L10.8343 10.9162C10.9338 11.0281 10.9896 11.1797 10.9896 11.3378C10.9896 11.4959 10.9338 11.6475 10.8343 11.7593Z" fill="white" stroke="white" stroke-width="0.3"/>
<path id="Vector_3" d="M12.625 11.4375C12.625 12.0556 12.4417 12.6598 12.0983 13.1737C11.755 13.6876 11.2669 14.0881 10.6959 14.3246C10.1249 14.5611 9.49653 14.623 8.89034 14.5025C8.28415 14.3819 7.72733 14.0842 7.29029 13.6472C6.85325 13.2102 6.55563 12.6533 6.43505 12.0472C6.31447 11.441 6.37635 10.8126 6.61288 10.2416C6.8494 9.67059 7.24994 9.18254 7.76384 8.83916C8.27775 8.49578 8.88193 8.3125 9.5 8.3125H10.75V9.875L12.625 8L10.75 6.125V7.6875H9.5C8.75832 7.6875 8.0333 7.90743 7.41661 8.31949C6.79993 8.73154 6.31928 9.31721 6.03545 10.0024C5.75162 10.6877 5.67736 11.4417 5.82206 12.1691C5.96675 12.8965 6.3239 13.5647 6.84835 14.0891C7.3728 14.6136 8.04098 14.9707 8.76841 15.1154C9.49584 15.2601 10.2498 15.1859 10.9351 14.902C11.6203 14.6182 12.206 14.1376 12.618 13.5209C13.0301 12.9042 13.25 12.1792 13.25 11.4375H12.625Z" fill="white"/>
</g>
</g>
<defs>
<clipPath id="clip0_4862_125">
<rect width="18" height="18" fill="white" transform="translate(0.5 0.5)"/>
</clipPath>
</defs>
</svg>
