<svg width="19" height="18" viewBox="0 0 19 18" fill="none" xmlns="http://www.w3.org/2000/svg">
<g id="calendar" clip-path="url(#clip0_4838_148)">
<g id="Group">
<path id="Vector" d="M4.4375 0C4.58668 0 4.72976 0.0592632 4.83525 0.164752C4.94074 0.270242 5 0.413316 5 0.5625V1.125H14V0.5625C14 0.413316 14.0593 0.270242 14.1648 0.164752C14.2702 0.0592632 14.4133 0 14.5625 0C14.7117 0 14.8548 0.0592632 14.9602 0.164752C15.0657 0.270242 15.125 0.413316 15.125 0.5625V1.125H16.25C16.8467 1.125 17.419 1.36205 17.841 1.78401C18.2629 2.20597 18.5 2.77826 18.5 3.375V15.75C18.5 16.3467 18.2629 16.919 17.841 17.341C17.419 17.7629 16.8467 18 16.25 18H2.75C2.15326 18 1.58097 17.7629 1.15901 17.341C0.737053 16.919 0.5 16.3467 0.5 15.75V3.375C0.5 2.77826 0.737053 2.20597 1.15901 1.78401C1.58097 1.36205 2.15326 1.125 2.75 1.125H3.875V0.5625C3.875 0.413316 3.93426 0.270242 4.03975 0.164752C4.14524 0.0592632 4.28832 0 4.4375 0ZM1.625 4.5V15.75C1.625 16.0484 1.74353 16.3345 1.9545 16.5455C2.16548 16.7565 2.45163 16.875 2.75 16.875H16.25C16.5484 16.875 16.8345 16.7565 17.0455 16.5455C17.2565 16.3345 17.375 16.0484 17.375 15.75V4.5H1.625Z" fill="#2D3740" fill-opacity="0.6"/>
</g>
<g id="Group 1000003944">
<path id="Vector_2" d="M10.9213 10.2118C10.8555 10.138 10.7773 10.0794 10.6913 10.0395C10.6053 9.99951 10.5132 9.97896 10.4201 9.979C10.327 9.97904 10.2349 9.99966 10.1489 10.0397C10.0629 10.0797 9.98484 10.1383 9.91908 10.2122L9.83324 10.3097L9.74811 10.2125L9.74755 10.2118C9.68177 10.138 9.60368 10.0795 9.51773 10.0395C9.43179 9.99957 9.33967 9.97901 9.24664 9.97901C9.15361 9.97901 9.06149 9.99957 8.97555 10.0395C8.8896 10.0795 8.81151 10.138 8.74573 10.2118L8.70748 10.2547C8.57463 10.4038 8.5 10.606 8.5 10.8168C8.5 11.0276 8.57463 11.2298 8.70748 11.3789L9.7168 12.5114L9.83078 12.6454L9.8335 12.6424L9.83645 12.6457L9.94324 12.5192L10.9595 11.3789C11.0922 11.2297 11.1667 11.0275 11.1667 10.8168C11.1667 10.6061 11.0922 10.4039 10.9595 10.2547L10.9213 10.2118ZM10.8343 11.2383L9.8335 12.3613L8.8327 11.2383C8.73307 11.1265 8.67709 10.9749 8.67709 10.8168C8.67709 10.6587 8.73307 10.507 8.8327 10.3952L8.87095 10.3523C8.97054 10.2406 9.1056 10.1778 9.24643 10.1777C9.38727 10.1777 9.52237 10.2404 9.62203 10.352L9.83285 10.5929L10.0447 10.3523C10.094 10.297 10.1526 10.2531 10.217 10.2231C10.2815 10.1931 10.3506 10.1777 10.4204 10.1777C10.4901 10.1777 10.5592 10.1931 10.6237 10.2231C10.6881 10.2531 10.7467 10.297 10.796 10.3523L10.8343 10.3952C10.9338 10.5071 10.9896 10.6587 10.9896 10.8168C10.9896 10.9749 10.9338 11.1265 10.8343 11.2383Z" fill="#2D3740" fill-opacity="0.6" stroke="#2D3740" stroke-opacity="0.6" stroke-width="0.3"/>
<path id="Vector_3" d="M12.625 10.9375C12.625 11.5556 12.4417 12.1598 12.0983 12.6737C11.755 13.1876 11.2669 13.5881 10.6959 13.8246C10.1249 14.0611 9.49653 14.123 8.89034 14.0025C8.28415 13.8819 7.72733 13.5842 7.29029 13.1472C6.85325 12.7102 6.55563 12.1533 6.43505 11.5472C6.31447 10.941 6.37635 10.3126 6.61288 9.74161C6.8494 9.17059 7.24994 8.68254 7.76384 8.33916C8.27775 7.99578 8.88193 7.8125 9.5 7.8125H10.75V9.375L12.625 7.5L10.75 5.625V7.1875H9.5C8.75832 7.1875 8.0333 7.40743 7.41661 7.81949C6.79993 8.23154 6.31928 8.81721 6.03545 9.50244C5.75162 10.1877 5.67736 10.9417 5.82206 11.6691C5.96675 12.3965 6.3239 13.0647 6.84835 13.5891C7.3728 14.1136 8.04098 14.4707 8.76841 14.6154C9.49584 14.7601 10.2498 14.6859 10.9351 14.402C11.6203 14.1182 12.206 13.6376 12.618 13.0209C13.0301 12.4042 13.25 11.6792 13.25 10.9375H12.625Z" fill="#2D3740" fill-opacity="0.6"/>
</g>
</g>
<defs>
<clipPath id="clip0_4838_148">
<rect width="18" height="18" fill="white" transform="translate(0.5)"/>
</clipPath>
</defs>
</svg>
