<svg width="193" height="181" viewBox="0 0 193 181" fill="none" xmlns="http://www.w3.org/2000/svg">
<path d="M138.304 44.2259C124.498 44.5638 109.132 50.6339 101.349 54.7303C83.1119 70.9957 44.7948 105.987 37.4239 115.826C26.6719 130.179 28.821 179.956 42.7842 194.566C53.256 205.523 67.7018 198.705 88.646 220.619C108.196 241.074 104.149 249.578 106.704 259.894C107.074 261.387 107.913 262.711 108.975 263.823C112.522 267.533 116.713 270.629 121.534 272.392C155.338 284.756 182.413 273.409 194.83 265.896C209.414 253.123 241.537 223.353 253.356 206.467C265.175 189.58 262.582 167.366 259.808 158.369C255.37 143.974 250.192 111.821 246.819 100.897C245.355 96.1563 241.182 89.2848 235.315 82.2747C219.437 63.3038 194.485 56.1682 170.342 50.7707L168.4 50.3364C158.395 48.0996 148.552 43.9751 138.304 44.2259Z" stroke="#6F6F70" stroke-opacity="0.05" stroke-width="4"/>
<path d="M138.304 44.2259C124.498 44.5638 109.132 50.6339 101.349 54.7303C83.1119 70.9957 44.7948 105.987 37.4239 115.826C26.6719 130.179 28.821 179.956 42.7842 194.566C53.256 205.523 67.7018 198.705 88.646 220.619C108.196 241.074 104.149 249.578 106.704 259.894C107.074 261.387 107.913 262.711 108.975 263.823C112.522 267.533 116.713 270.629 121.534 272.392C155.338 284.756 182.413 273.409 194.83 265.896C209.414 253.123 241.537 223.353 253.356 206.467C265.175 189.58 262.582 167.366 259.808 158.369C255.37 143.974 250.192 111.821 246.819 100.897C245.355 96.1563 241.182 89.2848 235.315 82.2747C219.437 63.3038 194.485 56.1682 170.342 50.7707L168.4 50.3364C158.395 48.0996 148.552 43.9751 138.304 44.2259Z" stroke="#6F6F70" stroke-opacity="0.05" stroke-width="4"/>
<path d="M138.304 44.2259C124.498 44.5638 109.132 50.6339 101.349 54.7303C83.1119 70.9957 44.7948 105.987 37.4239 115.826C26.6719 130.179 28.821 179.956 42.7842 194.566C53.256 205.523 67.7018 198.705 88.646 220.619C108.196 241.074 104.149 249.578 106.704 259.894C107.074 261.387 107.913 262.711 108.975 263.823C112.522 267.533 116.713 270.629 121.534 272.392C155.338 284.756 182.413 273.409 194.83 265.896C209.414 253.123 241.537 223.353 253.356 206.467C265.175 189.58 262.582 167.366 259.808 158.369C255.37 143.974 250.192 111.821 246.819 100.897C245.355 96.1563 241.182 89.2848 235.315 82.2747C219.437 63.3038 194.485 56.1682 170.342 50.7707L168.4 50.3364C158.395 48.0996 148.552 43.9751 138.304 44.2259Z" stroke="#6F6F70" stroke-opacity="0.05" stroke-width="4"/>
<path d="M141.739 72.8391C131.638 73.2016 120.508 77.609 114.832 80.5969C101.34 92.6294 72.9946 118.515 67.5419 125.793C59.588 136.411 61.1778 173.234 71.5073 184.042C79.2539 192.148 89.9404 187.104 105.434 203.315C119.896 218.447 116.903 224.738 118.793 232.37C119.066 233.474 119.687 234.453 120.473 235.276C123.097 238.021 126.197 240.311 129.763 241.615C154.771 250.762 174.8 242.368 183.985 236.81C194.774 227.36 218.538 205.338 227.281 192.846C236.024 180.354 234.106 163.92 232.054 157.265C228.771 146.616 224.94 122.83 222.445 114.75C221.418 111.424 218.589 106.681 214.599 101.778C202.611 87.0472 183.389 81.5843 164.854 77.4405C157.173 75.7233 149.605 72.5568 141.739 72.8391Z" stroke="#6F6F70" stroke-opacity="0.05" stroke-width="4"/>
<path d="M141.739 72.8391C131.638 73.2016 120.508 77.609 114.832 80.5969C101.34 92.6294 72.9946 118.515 67.5419 125.793C59.588 136.411 61.1778 173.234 71.5073 184.042C79.2539 192.148 89.9404 187.104 105.434 203.315C119.896 218.447 116.903 224.738 118.793 232.37C119.066 233.474 119.687 234.453 120.473 235.276C123.097 238.021 126.197 240.311 129.763 241.615C154.771 250.762 174.8 242.368 183.985 236.81C194.774 227.36 218.538 205.338 227.281 192.846C236.024 180.354 234.106 163.92 232.054 157.265C228.771 146.616 224.94 122.83 222.445 114.75C221.418 111.424 218.589 106.681 214.599 101.778C202.611 87.0472 183.389 81.5843 164.854 77.4405C157.173 75.7233 149.605 72.5568 141.739 72.8391Z" stroke="#6F6F70" stroke-opacity="0.05" stroke-width="4"/>
<path d="M141.739 72.8391C131.638 73.2016 120.508 77.609 114.832 80.5969C101.34 92.6294 72.9946 118.515 67.5419 125.793C59.588 136.411 61.1778 173.234 71.5073 184.042C79.2539 192.148 89.9404 187.104 105.434 203.315C119.896 218.447 116.903 224.738 118.793 232.37C119.066 233.474 119.687 234.453 120.473 235.276C123.097 238.021 126.197 240.311 129.763 241.615C154.771 250.762 174.8 242.368 183.985 236.81C194.774 227.36 218.538 205.338 227.281 192.846C236.024 180.354 234.106 163.92 232.054 157.265C228.771 146.616 224.94 122.83 222.445 114.75C221.418 111.424 218.589 106.681 214.599 101.778C202.611 87.0472 183.389 81.5843 164.854 77.4405C157.173 75.7233 149.605 72.5568 141.739 72.8391Z" stroke="#6F6F70" stroke-opacity="0.05" stroke-width="4"/>
<path d="M146.519 105.785C140.512 106.001 133.893 108.622 130.518 110.399C122.494 117.554 105.638 132.948 102.395 137.277C97.6648 143.591 98.6102 165.489 104.753 171.917C109.36 176.737 115.715 173.737 124.929 183.378C133.53 192.377 131.749 196.118 132.873 200.657C133.036 201.313 133.405 201.896 133.873 202.385C135.433 204.017 137.277 205.379 139.397 206.155C154.269 211.594 166.18 206.602 171.643 203.297C178.059 197.677 192.19 184.581 197.39 177.152C202.589 169.723 201.449 159.95 200.228 155.993C198.276 149.66 195.998 135.515 194.514 130.709C193.903 128.731 192.221 125.911 189.848 122.995C182.719 114.235 171.288 110.986 160.265 108.522C155.698 107.501 151.197 105.617 146.519 105.785Z" stroke="#6F6F70" stroke-opacity="0.05" stroke-width="4"/>
<path d="M146.519 105.785C140.512 106.001 133.893 108.622 130.518 110.399C122.494 117.554 105.638 132.948 102.395 137.277C97.6648 143.591 98.6102 165.489 104.753 171.917C109.36 176.737 115.715 173.737 124.929 183.378C133.53 192.377 131.749 196.118 132.873 200.657C133.036 201.313 133.405 201.896 133.873 202.385C135.433 204.017 137.277 205.379 139.397 206.155C154.269 211.594 166.18 206.602 171.643 203.297C178.059 197.677 192.19 184.581 197.39 177.152C202.589 169.723 201.449 159.95 200.228 155.993C198.276 149.66 195.998 135.515 194.514 130.709C193.903 128.731 192.221 125.911 189.848 122.995C182.719 114.235 171.288 110.986 160.265 108.522C155.698 107.501 151.197 105.617 146.519 105.785Z" stroke="#6F6F70" stroke-opacity="0.05" stroke-width="4"/>
<path d="M146.519 105.785C140.512 106.001 133.893 108.622 130.518 110.399C122.494 117.554 105.638 132.948 102.395 137.277C97.6648 143.591 98.6102 165.489 104.753 171.917C109.36 176.737 115.715 173.737 124.929 183.378C133.53 192.377 131.749 196.118 132.873 200.657C133.036 201.313 133.405 201.896 133.873 202.385C135.433 204.017 137.277 205.379 139.397 206.155C154.269 211.594 166.18 206.602 171.643 203.297C178.059 197.677 192.19 184.581 197.39 177.152C202.589 169.723 201.449 159.95 200.228 155.993C198.276 149.66 195.998 135.515 194.514 130.709C193.903 128.731 192.221 125.911 189.848 122.995C182.719 114.235 171.288 110.986 160.265 108.522C155.698 107.501 151.197 105.617 146.519 105.785Z" stroke="#6F6F70" stroke-opacity="0.05" stroke-width="4"/>
</svg>
