<svg width="25" height="25" viewBox="0 0 25 25" fill="none" xmlns="http://www.w3.org/2000/svg">
<path d="M21.7437 6.81104C21.7437 8.46789 20.4005 9.81104 18.7437 9.81104C17.0868 9.81104 15.7437 8.46789 15.7437 6.81104C15.7437 5.15418 17.0868 3.81104 18.7437 3.81104C20.4005 3.81104 21.7437 5.15418 21.7437 6.81104Z" stroke="#5801FF" stroke-width="1.5"/>
<path d="M9.74365 12.311C9.74365 13.9679 8.40051 15.311 6.74365 15.311C5.0868 15.311 3.74365 13.9679 3.74365 12.311C3.74365 10.6542 5.0868 9.31104 6.74365 9.31104C8.40051 9.31104 9.74365 10.6542 9.74365 12.311Z" stroke="#5801FF" stroke-width="1.5"/>
<path d="M21.7437 17.811C21.7437 19.4679 20.4005 20.811 18.7437 20.811C17.0868 20.811 15.7437 19.4679 15.7437 17.811C15.7437 16.1542 17.0868 14.811 18.7437 14.811C20.4005 14.811 21.7437 16.1542 21.7437 17.811Z" stroke="#5801FF" stroke-width="1.5"/>
<path d="M9.47217 11.061L15.9722 8.06152M9.47217 13.5615L15.9722 16.561" stroke="#5801FF" stroke-width="1.5"/>
</svg>
