<svg width="61" height="53" viewBox="0 0 61 53" fill="none" xmlns="http://www.w3.org/2000/svg">
<g id="Group 1000003778">
<path id="Vector" fill-rule="evenodd" clip-rule="evenodd" d="M60.4983 0.484242C59.1313 0.484242 47.2396 6.21111 46.3693 6.79466C45.4587 7.40893 37.8359 11.2292 37.8359 11.5482C37.8359 11.8411 43.1654 13.2988 43.1654 13.2988C43.1654 13.2988 43.3309 14.9621 43.6084 16.4788C43.8835 17.9649 44.4653 20.5897 44.4653 20.5897C45.2372 20.5023 48.8013 17.2656 48.8013 17.2656C48.8013 17.2656 51.9493 22.7467 52.4728 22.7774C52.4751 22.7774 52.4751 22.7774 52.4751 22.7774C53.0188 22.7774 60.8966 1.10797 60.6213 0.524401C60.6057 0.496058 60.5654 0.484242 60.4983 0.484242Z" fill="#FFBBAA"/>
<path id="Vector_2" fill-rule="evenodd" clip-rule="evenodd" d="M59.3752 0.99227C57.9947 1.95384 56.5874 2.94612 55.2338 3.90769C54.7908 4.25734 54.321 4.57866 53.8243 4.92832C51.2021 6.82547 48.1078 9.0699 45.0963 11.4608C44.5727 11.9003 44.0761 12.3066 43.6331 12.7153L43.5234 12.8028L43.3578 12.9776C43.1363 12.8335 42.9148 12.7153 42.6665 12.687L42.445 12.6279C41.9215 12.4248 41.3957 12.2783 40.8453 12.1034C39.9615 11.8128 39.1314 11.6073 38.3305 11.4325H38.3595L38.4692 11.3451C38.6616 11.1986 38.8831 11.0545 39.1046 10.9363C39.353 10.7922 39.6281 10.6741 39.9056 10.5276L40.2367 10.3528C41.5612 9.6818 42.9148 8.95413 44.3803 8.16739C45.2081 7.69961 46.0919 7.23419 47.1412 6.67898C50.8978 4.69679 54.0458 3.09261 57.3884 1.72231C58.0216 1.42935 58.713 1.19546 59.3752 0.99227ZM59.7891 1.1671C59.4871 1.48841 59.1828 1.86643 58.8785 2.21609C58.713 2.44998 58.5474 2.65553 58.3818 2.83036C57.4421 3.90769 56.4756 4.98738 55.5381 6.06707C53.8534 7.9335 52.1686 9.79993 50.4839 11.6664L49.3495 12.9209L48.5217 13.8541C48.2174 14.2038 47.9154 14.5534 47.582 14.9031H47.5283C47.2799 15.0496 47.0585 15.2527 46.9197 15.515C46.866 15.5457 46.837 15.6024 46.8101 15.6331C46.6155 15.9237 46.4499 16.2143 46.2843 16.5073L46.1747 16.7412C46.0091 17.0318 45.8436 17.294 45.678 17.5563C45.5393 17.8492 45.4006 18.0524 45.235 18.3146L44.6287 19.4227L44.5168 19.5975C44.2975 18.6076 44.1297 17.587 43.9933 16.5947C43.8545 15.5741 43.7158 14.5251 43.4675 13.5328C43.5234 13.4147 43.5503 13.2989 43.5234 13.1831C43.8545 12.8902 44.1857 12.5996 44.5459 12.3373C44.7114 12.2192 44.877 12.1034 45.0426 11.9877C46.3671 10.9363 47.7498 9.9157 48.9356 9.01319C51.6988 6.96957 54.6812 4.78419 57.7196 2.62481L58.1044 2.33421C58.657 1.95384 59.2387 1.54511 59.7891 1.1671ZM47.6648 15.4276C47.7207 15.4866 47.7767 15.5457 47.8035 15.6331L47.8594 15.6898C47.9982 16.0111 48.1637 16.3041 48.2734 16.623L48.3562 16.7979C48.4121 16.916 48.4658 17.0601 48.5485 17.2066C48.2734 17.3531 48.025 17.5279 47.7767 17.7311C47.7207 17.7901 47.6648 17.8185 47.582 17.8776C47.224 18.1705 46.837 18.4895 46.479 18.7824C46.2575 18.9572 46.0651 19.1321 45.8704 19.3069L45.5393 19.6282L45.4006 19.744C45.2641 19.8598 45.1254 19.9779 44.9598 20.0937C45.1522 19.803 45.3178 19.5101 45.4833 19.2195C45.8145 18.6076 46.1747 18.024 46.479 17.4121C46.5886 17.2373 46.6714 17.0318 46.781 16.8286C46.9757 16.3608 47.224 15.9521 47.5283 15.5741C47.582 15.515 47.6111 15.4583 47.6648 15.4276ZM59.7063 2.07196C59.5139 2.56811 59.3484 3.06189 59.2096 3.47061C58.6302 5.24963 57.9947 7.0003 57.3884 8.63283C56.6971 10.4993 56.0057 12.394 55.3166 14.2912C54.6543 16.0702 53.9899 17.8776 53.3544 19.6566C53.2179 19.9779 53.1061 20.3276 52.9965 20.6488C52.8309 21.1734 52.6363 21.7262 52.4438 22.2223C52.2514 21.8727 52.0858 21.523 51.8643 21.2017L51.6988 20.9395L51.3945 20.474C51.117 20.0062 50.815 19.5101 50.5376 19.0447C50.014 18.2272 49.4882 17.3531 48.9088 16.186L48.8528 16.0985C48.6604 15.7489 48.3562 15.137 47.9422 14.9622C49.1571 13.795 50.2892 12.5405 51.3945 11.3167C51.6697 10.9954 51.9471 10.7024 52.2223 10.3835C54.0726 8.34222 56.2831 5.89224 58.4377 3.47061C58.6033 3.26744 58.7689 3.09261 58.9613 2.88706C59.2096 2.62481 59.458 2.36257 59.7063 2.07196ZM60.2881 0C60.0934 0 59.9279 0.0307055 59.7623 0.0590639C59.1269 0.233892 58.4914 0.437079 57.8851 0.701677C56.0057 1.42935 54.1845 2.33421 52.4998 3.18001C49.8485 4.52196 47.0853 6.00801 44.047 7.67127C42.9148 8.31152 41.7559 8.92342 40.5947 9.50697L39.0218 10.3528C38.6079 10.5583 38.2208 10.7922 37.8897 11.1112C37.8338 11.1702 37.7778 11.2576 37.751 11.3451C37.6414 11.3734 37.5854 11.4608 37.5586 11.5482C37.5295 11.6664 37.5854 11.7538 37.6682 11.8128C38.6079 12.2192 39.5744 12.5996 40.541 12.8902C41.0936 13.065 41.6172 13.2706 42.1698 13.4454C42.3622 13.5021 42.53 13.5611 42.7224 13.6202L42.888 13.6793L42.9148 13.7076C42.9708 13.736 42.9976 13.7667 43.0536 13.7667C43.1095 14.3195 43.1632 14.844 43.2191 15.3992C43.3847 17.1192 43.5503 18.8982 44.1297 20.5307V20.5614C44.1297 20.6488 44.1588 20.7056 44.2125 20.7646C44.2684 20.8804 44.3803 20.9702 44.49 20.9702H44.5727C45.2641 20.7056 45.8704 20.3276 46.423 19.803C46.5058 19.7156 46.6155 19.6282 46.7273 19.5408C46.9757 19.3353 47.224 19.1321 47.4724 18.9572L47.8594 18.6643L48.1906 18.4021C48.4121 18.2579 48.6336 18.0807 48.826 17.9059C49.0743 18.3737 49.3786 18.8982 49.7098 19.5101C50.0968 20.1527 50.4839 20.8237 50.8419 21.4072C50.9806 21.6104 51.0902 21.8443 51.2289 22.0782C51.4504 22.5153 51.7256 22.924 52.0008 23.3304C52.0568 23.3894 52.1686 23.4485 52.2514 23.4485C52.361 23.4485 52.4438 23.3894 52.5266 23.3304C52.5825 23.243 52.6363 23.1272 52.6363 23.0114C53.0233 22.2814 53.3544 21.523 53.6587 20.793L53.7683 20.5614C54.4329 18.9572 55.0951 17.3247 55.7037 15.7489L55.7574 15.5741C57.0841 12.2499 58.5742 8.31152 59.9569 4.31641C60.2053 3.58874 60.4805 2.8587 60.702 2.07196L60.7288 1.95384C60.8944 1.54511 60.9772 1.10804 60.9503 0.670972C61.0331 0.524486 61.0062 0.349657 60.8944 0.262235C60.7288 0.0874062 60.5073 0 60.2881 0Z" fill="black"/>
<path id="Vector_3" fill-rule="evenodd" clip-rule="evenodd" d="M44.3904 20.2109C44.4877 19.8667 44.0987 19.6281 43.8726 19.9028C43.8411 19.9361 43.8411 19.9694 43.8069 20.0055L43.7754 20.1415L43.7439 20.2775L43.6782 20.4162L43.6125 20.5855C43.4837 20.999 44.0356 21.2044 44.1959 20.827L44.2616 20.6216L44.2931 20.4828L44.3589 20.3468L44.3904 20.2109ZM0.496866 47.9238C0.173625 47.6823 -0.183824 48.1624 0.107909 48.4372L0.302388 48.6092L0.465359 48.7119L0.625661 48.8479C0.951571 49.0893 1.30899 48.5731 0.98311 48.3345L0.822776 48.1985L0.691377 48.0958L0.496866 47.9238ZM2.47592 49.3974C2.15265 49.0893 1.76106 49.5666 2.05539 49.8747C2.08693 49.8747 2.11847 49.9108 2.15265 49.9441L2.31295 50.0468L2.47592 50.1494L2.6704 50.2521C2.99631 50.5269 3.38527 50.0468 3.09353 49.772C3.05936 49.7387 3.02785 49.7054 2.99631 49.7054L2.7992 49.6027L2.63886 49.5L2.47592 49.3974ZM4.61789 50.4936C4.22893 50.3548 4.00027 50.9376 4.38923 51.1097L4.52066 51.179L4.68096 51.2123L4.8439 51.2817L4.97533 51.3483C5.07256 51.3844 5.20135 51.3483 5.26707 51.2456C5.42737 51.1097 5.39583 50.8016 5.16981 50.7322L5.03841 50.6628L4.87808 50.6295L4.74668 50.5602L4.61789 50.4936ZM6.88864 51.2123C6.56277 51.179 6.40243 51.5898 6.65999 51.7951C6.69416 51.8284 6.7257 51.8617 6.75724 51.8617L6.95436 51.8978L7.11469 51.9311L7.27763 51.9644H7.37489C7.7323 52.0005 7.8611 51.4871 7.53783 51.3483H7.47211H7.34335L7.21192 51.315L7.08315 51.2817L6.88864 51.2456V51.2123ZM9.25666 51.451C8.89924 51.4871 8.83352 51.9644 9.15943 52.0671C9.19097 52.1032 9.22512 52.1032 9.25666 52.0671H9.48267H9.64564H9.77441H9.87166C10.2291 52.0671 10.2948 51.5898 9.97152 51.451C9.93738 51.451 9.90584 51.451 9.84012 51.451H9.74287H9.6141H9.25666ZM11.5931 51.1429C11.3014 51.2456 11.3014 51.7257 11.5931 51.7951C11.6562 51.7951 11.6904 51.7951 11.7219 51.7951L11.8849 51.759L12.0136 51.7257L12.1766 51.6924L12.3395 51.6231C12.5971 51.5537 12.6313 51.179 12.4026 51.0403C12.3395 51.007 12.2423 50.9709 12.1766 51.007L12.0136 51.0403L11.8849 51.0763L11.7535 51.1097L11.5931 51.179V51.1429ZM13.8639 50.3548C13.538 50.4936 13.6694 51.007 13.9927 50.9709C14.0268 50.9709 14.0899 50.9709 14.1241 50.9376L14.1872 50.9043L14.3186 50.8682L14.4474 50.8016L14.5761 50.7322L14.6734 50.6628C14.902 50.5602 14.902 50.1855 14.6418 50.0828C14.5761 50.0468 14.4789 50.0468 14.4158 50.0828L14.1872 50.1855L14.0584 50.2521L13.8639 50.3548ZM15.9402 49.1559C15.8429 49.2253 15.8088 49.328 15.8088 49.464C15.8744 49.7054 16.1031 49.8081 16.2976 49.7054L16.4579 49.5666L16.5552 49.5L16.6866 49.3974L16.8154 49.328C17.1071 49.0893 16.8469 48.6092 16.5236 48.7452L16.4579 48.7785L16.2319 48.9506C16.1346 49.0199 16.0374 49.0893 15.9402 49.1559ZM17.8535 47.6157C17.5618 47.8211 17.8535 48.3012 18.1794 48.1291C18.2109 48.1291 18.2109 48.0958 18.2425 48.0958L18.6971 47.649C18.7944 47.5463 18.8259 47.4103 18.7629 47.2716C18.6656 47.0662 18.4369 47.0329 18.2766 47.1689C18.1452 47.341 17.9823 47.477 17.8535 47.6157ZM19.5093 45.8007C19.2491 46.1088 19.7037 46.5528 19.9955 46.2115L20.3845 45.7314C20.6447 45.4233 20.2872 45.0126 19.9955 45.218C19.9613 45.2513 19.9298 45.2846 19.8982 45.3206C19.7668 45.4899 19.6381 45.6287 19.5093 45.8007ZM20.9679 43.7776C20.7419 44.1218 21.2596 44.5325 21.4883 44.1218C21.6171 43.9497 21.7143 43.7776 21.8431 43.5723C22.0376 43.2642 21.6486 42.8868 21.3911 43.1616C21.3569 43.1948 21.3253 43.1948 21.3253 43.2309C21.1965 43.4002 21.0967 43.6084 20.9994 43.7776H20.9679ZM22.2005 41.5853C22.1348 41.724 22.169 41.8933 22.2662 41.996C22.4292 42.1347 22.6552 42.0654 22.7524 41.8933C22.8497 41.6879 22.9469 41.5186 23.0126 41.3105C23.173 41.0025 22.784 40.6944 22.558 40.9359C22.5264 40.9692 22.4923 41.0025 22.4923 41.0385C22.395 41.2078 22.2978 41.416 22.2005 41.5853ZM23.2071 39.2902C23.0757 39.5982 23.4673 39.873 23.7249 39.6343C23.759 39.5982 23.759 39.5649 23.7906 39.5316C23.8563 39.3263 23.9194 39.1181 23.9851 38.9128C24.1139 38.5714 23.6934 38.2967 23.4989 38.6047C23.4673 38.6047 23.4332 38.6408 23.4332 38.7074C23.3701 38.8795 23.2728 39.0848 23.2071 39.2902ZM23.9851 36.8924C23.8878 37.3032 24.4713 37.4752 24.5685 37.0645C24.6342 36.8231 24.6658 36.6177 24.7315 36.4123C24.7972 36.1404 24.5055 35.8989 24.2768 36.071C24.2137 36.1043 24.148 36.1737 24.1139 36.2763C24.0823 36.4817 24.0166 36.6871 23.9851 36.8924ZM24.4713 34.392C24.4082 34.7333 24.8603 34.9054 25.0232 34.6307C25.0548 34.5974 25.0889 34.528 25.0889 34.4947C25.1205 34.2893 25.1205 34.0506 25.152 33.8453C25.152 33.7759 25.152 33.7426 25.152 33.6732C25.2177 33.5012 25.1205 33.3291 24.9575 33.2958C24.926 33.2625 24.8944 33.2625 24.8603 33.2958C24.6658 33.2958 24.4398 33.2958 24.2453 33.2958C23.9194 33.2958 23.8221 33.8092 24.148 33.9119C24.1796 33.948 24.2137 33.948 24.2768 33.948H24.5685C24.5685 34.1173 24.5055 34.256 24.5055 34.4253L24.4713 34.392ZM24.6658 31.8916C24.7 32.269 25.2177 32.269 25.2519 31.8916V31.7195V31.2061C25.2519 30.8648 24.7972 30.7954 24.6658 31.1034C24.6658 31.1728 24.6658 31.2061 24.6658 31.2394V31.8916ZM24.5055 29.3551C24.537 29.7325 25.0548 29.7325 25.0889 29.3551V29.2885C25.0548 29.047 25.0232 28.8417 24.9917 28.603C24.926 28.2589 24.4398 28.2589 24.4082 28.603C24.374 28.6724 24.374 28.7057 24.4082 28.739C24.4398 28.9443 24.4713 29.1497 24.5055 29.3551ZM23.759 27.0961C23.9851 27.3708 24.4082 27.1627 24.311 26.8213C24.2768 26.7519 24.2768 26.7186 24.2453 26.6853C24.0823 26.5133 23.9194 26.3412 23.7249 26.2052C23.4332 25.9999 23.0757 26.3773 23.3044 26.6853C23.3359 26.6853 23.3701 26.7186 23.4016 26.7519C23.5304 26.8213 23.6618 26.9573 23.759 27.0961ZM21.8773 26.6853C22.2347 26.5827 22.1348 26.0332 21.78 26.0665C21.7458 26.0665 21.7143 26.0665 21.6828 26.0665C21.4883 26.1359 21.2938 26.2385 21.0967 26.3412C21.0336 26.3773 20.9679 26.4106 20.9364 26.48C20.8391 26.7519 21.0967 27.06 21.3569 26.924C21.5198 26.8213 21.7143 26.7519 21.8773 26.6853ZM19.8982 27.9508C19.9613 27.8842 19.9955 27.8148 19.9955 27.7455C20.027 27.4374 19.7037 27.2681 19.5093 27.4374C19.3148 27.6095 19.1833 27.7455 19.0204 27.9508C18.9573 28.0535 18.9232 28.1923 18.9889 28.3282C19.1203 28.5003 19.3463 28.5336 19.4751 28.3643C19.6065 28.1923 19.7353 28.0535 19.8982 27.9175V27.9508ZM18.8916 29.8712C18.8916 29.7686 18.8259 29.6298 18.6971 29.5965C18.5027 29.5271 18.2766 29.6992 18.3082 29.9046C18.3082 30.1432 18.3397 30.3847 18.4369 30.6233C18.5342 31.0007 19.0546 30.8648 19.0204 30.4873C19.0204 30.4873 19.0204 30.4513 19.0204 30.4179C18.9573 30.2459 18.9232 30.0766 18.9232 29.8712H18.8916ZM19.9613 31.8583C19.7037 31.6168 19.3148 31.9249 19.4751 32.269C19.4751 32.269 19.5093 32.3023 19.5408 32.3356C19.6696 32.5077 19.8325 32.6436 19.9955 32.7824C20.3187 33.0571 20.7077 32.577 20.416 32.3023C20.2557 32.1663 20.1243 32.0276 19.9613 31.8583ZM21.8773 33.0905C21.5514 32.9878 21.3569 33.4679 21.6486 33.6732C21.6828 33.6732 21.7143 33.7065 21.7458 33.7065C21.9403 33.7759 22.1348 33.8092 22.3635 33.8453C22.6868 33.8786 22.8497 33.3985 22.558 33.2264C22.5264 33.2264 22.4923 33.1931 22.4607 33.1931C22.2662 33.1598 22.0717 33.1237 21.8773 33.0905ZM26.6133 33.0905C26.29 33.1237 26.29 33.6372 26.6133 33.7065C26.6448 33.7065 26.679 33.7065 26.7105 33.7065L27.3281 33.6039C27.6514 33.5345 27.6514 33.0211 27.3281 32.9878C27.294 32.9545 27.2283 32.9545 27.1967 32.9878C27.0023 33.0211 26.8078 33.0571 26.6133 33.0905ZM28.9813 32.577C28.7553 32.6436 28.658 32.9545 28.8525 33.1237C28.9156 33.1931 29.047 33.2264 29.1442 33.2264L29.7277 33.0571C30.0851 32.9545 30.0194 32.3717 29.6305 32.405H29.5647L28.9813 32.577ZM31.3177 31.8583C30.9603 31.9942 31.0576 32.5077 31.415 32.5077C31.4465 32.5077 31.4807 32.5077 31.5122 32.5077L32.0957 32.269C32.3874 32.1663 32.3217 31.6529 31.9984 31.6529C31.9328 31.6529 31.9012 31.6529 31.8697 31.6862L31.3177 31.8916V31.8583ZM33.557 30.9314C33.2626 31.0701 33.3599 31.5474 33.6858 31.5474C33.7173 31.5474 33.7514 31.5474 33.783 31.5141L34.3665 31.2394C34.6582 31.1034 34.5294 30.59 34.2035 30.6233C34.172 30.6233 34.1404 30.6594 34.1063 30.6594L33.557 30.9314ZM35.6963 29.7686C35.4046 29.9739 35.5675 30.4179 35.8908 30.3847C35.925 30.3847 35.9565 30.3486 35.9881 30.3486C36.1825 30.2459 36.3455 30.1099 36.54 30.0072C36.8659 29.7686 36.5741 29.2191 36.2167 29.4605L35.6963 29.7686ZM37.7095 28.3976C37.4493 28.603 37.6438 29.047 37.9671 28.9804C38.0013 28.9804 38.0643 28.9443 38.0985 28.9443C38.2588 28.8083 38.4218 28.6724 38.5847 28.5336C38.7792 28.3643 38.7135 27.9869 38.4218 27.9508C38.3561 27.9508 38.2588 27.9869 38.1957 28.0202L37.7095 28.3976ZM39.5913 26.788C39.4914 26.8546 39.4599 26.9934 39.4914 27.0961C39.5256 27.3347 39.8173 27.4374 40.0118 27.2681C40.1406 27.1294 40.3036 26.9573 40.4324 26.8213C40.7582 26.5133 40.3351 26.0332 40.0434 26.3412C39.883 26.48 39.7516 26.6493 39.5913 26.788ZM41.2129 24.9703C41.1157 25.0397 41.1157 25.1784 41.1788 25.3144C41.276 25.5198 41.5362 25.5198 41.6676 25.3477C41.7964 25.1784 41.9252 25.0064 42.0566 24.8343C42.2169 24.5596 41.9252 24.2182 41.6676 24.3903C41.6334 24.3903 41.6019 24.4236 41.6019 24.4569C41.4705 24.6289 41.3417 24.801 41.2129 24.9703ZM42.5743 22.8806C42.2826 23.1914 42.7373 23.6354 43.029 23.2941C43.0605 23.2941 43.0605 23.258 43.0947 23.2247L43.1578 23.0887L43.2892 22.814L43.3864 22.6419C43.5809 22.3006 43.1262 21.9925 42.9002 22.2645C42.866 22.3006 42.866 22.3339 42.866 22.3339L42.7688 22.5059L42.64 22.7779L42.5743 22.8806Z" fill="black"/>
</g>
</svg>
