<svg width="22" height="40" viewBox="0 0 22 40" fill="none" xmlns="http://www.w3.org/2000/svg">
<g id="Group 39836">
<path id="Vector" fill-rule="evenodd" clip-rule="evenodd" d="M8.65859 8.79993C7.32181 8.6047 6.04988 9.79957 5.25377 11.3265C5.66279 11.4806 6.08143 11.5925 6.49864 11.6535C7.98514 11.8706 9.45701 11.4403 10.4423 9.97534C9.85851 9.24699 9.25213 8.8866 8.65859 8.79993ZM13.5414 17.0971C12.3344 16.9208 10.9087 17.815 10.0753 18.5681C9.51327 19.0826 8.98605 19.7196 8.73436 20.4117C9.03713 20.5075 9.35129 20.5784 9.67201 20.6252C11.2097 20.8498 12.8979 20.5283 14.2109 19.8416C14.596 19.6203 15.1308 19.3229 15.1961 18.8259C15.2825 18.169 14.5399 17.4568 14.0272 17.2346C13.8707 17.1666 13.7084 17.1215 13.5414 17.0971ZM17.2086 24.6237C16.088 24.46 14.6167 24.8911 13.5742 25.6667C14.1729 25.8943 14.7841 26.0687 15.4142 26.1607C15.6491 26.195 15.8868 26.2183 16.127 26.2276C16.6197 26.2509 19.5175 25.8737 18.1217 24.9516C17.8654 24.7811 17.5539 24.6741 17.2086 24.6237ZM4.26191 0.00291574C4.57598 0.0487774 4.71433 0.616228 4.34155 0.83147C2.68195 1.79732 0.92296 3.28731 0.805678 5.47488C0.714829 7.11049 1.60958 8.66183 2.73943 9.72459C3.23532 10.2033 3.81336 10.6247 4.43263 10.954C4.70944 10.3907 5.05367 9.86654 5.45969 9.40364C6.43476 8.31063 7.60678 7.84513 8.72863 8.00897C9.65221 8.14385 10.5407 8.70567 11.257 9.69515C11.3745 9.85895 11.3492 10.0513 11.2502 10.2164C10.1183 12.1728 8.27591 12.7593 6.42345 12.4887C5.91509 12.4145 5.40504 12.2756 4.90894 12.0823C4.60456 12.8555 4.42487 13.6655 4.41652 14.3946C4.38532 16.8716 5.79177 18.8897 7.81033 20.0171C7.86851 20.0492 7.92753 20.08 7.98731 20.1102C8.05452 19.929 8.13911 19.7447 8.24241 19.5573C9.19613 17.8424 11.6748 15.9904 13.6896 16.2846C14.4601 16.3972 15.1623 16.823 15.686 17.6893C17.3776 20.4836 12.4435 21.3955 10.837 21.4878C10.4045 21.5119 9.97258 21.491 9.5474 21.4289C9.22002 21.3811 8.89653 21.3089 8.57952 21.2132C8.57305 21.6443 8.69534 22.0864 8.99775 22.5254C9.85734 23.7612 11.2637 24.6032 12.5736 25.2351C12.6221 25.2587 12.6706 25.2815 12.7193 25.3036C13.6619 24.5092 14.9602 24.0736 16.0898 23.9202C16.51 23.8607 17.0658 23.8267 17.5981 23.9044C18.2854 24.0048 18.9342 24.2905 19.2053 24.9468C19.6212 25.9053 18.7393 26.6091 17.9643 26.8558C17.1477 27.1299 16.2662 27.15 15.4012 27.0237C14.6885 26.9196 13.9862 26.7162 13.3393 26.4736C13.1971 26.42 13.0483 26.3603 12.8953 26.2965C12.5138 26.748 12.2797 27.2653 12.2799 27.8211C12.2724 30.2365 14.8185 32.5354 16.3252 34.0288C17.9534 35.6543 19.7934 37.0826 21.2962 38.8372C21.5592 39.1582 21.2283 39.5348 20.9049 39.4876C20.8177 39.4748 20.7312 39.4314 20.6568 39.3476C18.6174 36.9595 16.0581 35.1165 13.9866 32.7402C12.5769 31.0979 10.4517 28.3053 12.0152 26.0685C12.0452 26.0257 12.0758 25.9837 12.1071 25.9417C10.0295 24.938 7.57941 23.1881 7.79699 20.9237C6.23483 20.2348 4.90758 18.9608 4.17612 17.2817C3.43106 15.5512 3.45585 13.4996 4.10646 11.7176C3.29613 11.2938 2.54825 10.7303 1.93379 10.0805C0.710229 8.79159 -0.170396 7.01412 0.0279452 5.14885C0.29642 2.75516 2.16557 1.1339 4.0417 0.0530239C4.12028 0.00726716 4.19536 -0.00680816 4.26191 0.00291574Z" fill="#5801FF"/>
<path id="Vector_2" fill-rule="evenodd" clip-rule="evenodd" d="M20.797 35.3611C20.9534 35.384 21.0988 35.4903 21.139 35.6951C21.3736 36.9705 21.6715 38.2379 21.8893 39.5273C21.9246 39.7285 21.7496 39.9969 21.5485 39.9997C21.093 40.0033 20.6391 39.9685 20.19 39.9029C19.2777 39.7697 18.3819 39.5115 17.5202 39.1997C17.0656 39.026 17.3142 38.342 17.7334 38.4032C17.7627 38.4075 17.7928 38.4154 17.8232 38.427C18.6104 38.7115 19.4543 38.9578 20.3046 39.082C20.5422 39.1167 20.7803 39.1415 21.0179 39.1554C20.8105 38.0399 20.556 36.9269 20.3497 35.808C20.2882 35.4914 20.5548 35.3258 20.797 35.3611Z" fill="#5801FF"/>
</g>
</svg>
