<svg width="31" height="31" viewBox="0 0 31 31" fill="none" xmlns="http://www.w3.org/2000/svg">
<g id="Group 39835">
<path id="Vector" fill-rule="evenodd" clip-rule="evenodd" d="M20.8996 24.9533C20.6353 25.232 20.3128 25.4655 19.9593 25.62C19.945 25.635 19.9152 25.635 19.901 25.635C19.8867 25.7129 19.8569 25.7907 19.8272 25.8673C19.7534 26.023 19.695 26.1937 19.6367 26.3632C19.7534 26.3168 19.8569 26.2866 19.9593 26.2402C20.3414 26.1008 20.6937 25.8673 21.0031 25.5886C21.1495 25.4492 21.0615 25.4806 21.2376 25.3249H21.2531C21.2233 25.2948 21.1936 25.2634 21.1638 25.232C21.0912 25.1241 21.0031 25.0311 20.8996 24.9533Z" fill="#C3E0A0"/>
<path id="Vector_2" fill-rule="evenodd" clip-rule="evenodd" d="M9.7773 9.84317C9.92371 9.85824 9.9975 10.029 9.89514 10.1369C9.82015 10.1985 9.72731 10.206 9.6309 10.206C9.60234 10.206 9.57377 10.2047 9.5452 10.2047C9.49879 10.2047 9.45356 10.206 9.40952 10.2148C8.93937 10.2776 8.46921 10.4006 8.0431 10.6027C7.1766 11.0057 6.36842 11.5167 5.61975 12.1369C4.92821 12.7722 4.32594 13.4853 3.81175 14.2913C3.72367 14.4143 3.6951 14.6001 3.54751 14.6629C3.53204 14.6679 3.51657 14.6692 3.50109 14.6692C3.41539 14.6692 3.33922 14.6001 3.32732 14.5072C3.32732 14.3993 3.40111 14.3064 3.42968 14.1984V14.2135C3.6951 13.6397 4.04742 13.1287 4.47353 12.6629C5.01629 11.9976 5.67807 11.4238 6.41246 10.9894C7.44084 10.3391 8.57277 9.84317 9.7773 9.84317ZM10.9461 13.3572C11.177 13.3572 11.4091 13.3735 11.6436 13.4074V13.4225C11.8043 13.469 11.79 13.7175 11.6139 13.7326C11.4282 13.7075 11.2377 13.6962 11.0449 13.6962C10.8878 13.6962 10.7295 13.7037 10.57 13.7175C8.61681 14.0113 6.73621 15.5154 5.38408 17.3283C5.28171 17.4362 5.20792 17.6233 5.03176 17.6384C4.92821 17.6384 4.84013 17.5291 4.8556 17.4212C4.8556 17.3283 4.94368 17.2504 4.98772 17.1738C6.35651 15.1488 8.52159 13.3572 10.9461 13.3572ZM13.2743 15.9021C13.4064 15.9021 13.4647 16.0577 13.3766 16.1657C13.2445 16.2586 13.0541 16.2122 12.8922 16.2435C12.4066 16.29 11.9221 16.398 11.4663 16.5687C9.79159 17.2504 8.30853 18.4908 7.01472 19.9622C6.91236 20.0401 6.85285 20.2108 6.70645 20.2108C6.45649 20.1794 6.45649 19.9158 6.61837 19.7764C7.51463 18.6302 8.61681 17.6698 9.8511 16.9567C10.8938 16.3051 12.0697 15.9485 13.2743 15.9021ZM14.9263 18.6817C15.1263 18.6817 15.1918 18.9955 14.9787 19.0796C14.3027 19.1725 13.6409 19.3584 12.9946 19.6069C11.3342 20.2422 9.90942 21.4198 8.63109 22.8762C8.51325 22.9841 8.44065 23.1712 8.2633 23.1863C8.10262 23.1863 7.99906 23.0155 8.08714 22.8611C8.85129 21.7915 9.82134 20.8775 10.908 20.1794C12.084 19.3433 13.4802 18.8938 14.8609 18.6917C14.8835 18.6842 14.9061 18.6817 14.9263 18.6817ZM17.0057 21.5441C17.0795 21.5441 17.1378 21.5906 17.1676 21.6521C17.3283 21.7927 17.2331 22.0626 17.0367 22.0626C17.0176 22.0626 16.9974 22.0601 16.976 22.0551V22.0702C16.8569 22.0589 16.7367 22.0526 16.6165 22.0526C16.2666 22.0526 15.9202 22.1016 15.581 22.1945C13.5683 22.6904 11.7019 23.7286 10.1737 25.2013C10.0558 25.2779 9.96775 25.4336 9.82134 25.4336C9.71898 25.4336 9.62971 25.3407 9.62971 25.2314C9.62971 25.1084 9.71898 25.0306 9.79159 24.9527C11.0556 23.5742 12.716 22.6125 14.4348 22.0237C15.1144 21.794 15.8393 21.5755 16.5701 21.5755C16.676 21.5755 16.782 21.5805 16.8879 21.5906C16.9176 21.5592 16.9617 21.5441 17.0057 21.5441ZM9.58567 7.9675C7.45631 8.03027 5.63403 8.55631 4.16526 9.54813C3.38564 10.0754 2.69529 10.7258 2.15134 11.5167C1.57883 12.2913 1.18248 13.2066 0.976562 14.167C3.54751 18.7231 6.2363 23.5579 8.60133 27.8202C9.08696 27.2314 9.64519 26.7355 10.2915 26.3475C10.9378 25.9295 11.6282 25.588 12.334 25.3093C13.2005 24.9377 14.111 24.674 15.037 24.5196C15.4953 24.4631 15.9535 24.4355 16.4118 24.4355C16.7177 24.4355 17.0236 24.448 17.3295 24.4731C18.1817 24.5196 19.0625 24.6125 19.7826 25.1084C19.8266 25.0921 19.8707 25.077 19.9004 25.0456C18.872 23.4185 17.9603 21.6986 16.9617 20.025C15.7131 17.8392 14.3907 15.6861 13.1124 13.5154C12.3042 12.2298 11.5698 10.8814 10.7474 9.61091C10.4236 9.02209 10.0273 8.46341 9.58567 7.9675Z" fill="#FFBBAA"/>
<path id="Vector_3" fill-rule="evenodd" clip-rule="evenodd" d="M28.2725 14.1823C28.2582 14.1986 28.2284 14.2136 28.1987 14.2287C27.2881 14.6166 26.4216 15.1427 25.6277 15.7629C24.7314 16.5375 24.0113 17.5607 23.4091 18.4747C22.7628 19.4201 22.2045 20.4119 21.7201 21.4665C21.2785 22.4583 21.0286 23.543 21.0143 24.6428C21.0143 24.6742 21.0143 24.7056 21 24.752C21.0881 24.8136 21.1762 24.8751 21.25 24.9692C21.2345 24.7056 21.25 24.4256 21.2642 24.1632C21.4702 22.5663 22.2188 21.1714 23.1008 19.9474C24.0994 18.3981 25.4075 17.1113 26.9358 16.1822C27.3024 15.9336 27.7142 15.7478 28.1106 15.5306C28.2141 15.4842 28.3165 15.4227 28.4189 15.3599C28.3903 15.3134 28.3748 15.2519 28.3748 15.1904C28.3605 15.1126 28.3605 15.0498 28.3462 14.9883C28.1701 15.0812 27.9344 15.1276 27.8166 15.1904C27.45 15.3134 27.0965 15.4842 26.7596 15.7014C25.9955 16.1508 25.304 16.7246 24.7017 17.39C24.6815 17.4214 24.6517 17.4352 24.6219 17.4352C24.5481 17.4352 24.4732 17.3511 24.5255 17.2506C25.0254 16.6618 25.598 16.1508 26.2157 15.7014C26.7001 15.3448 27.2 15.0347 27.744 14.7874C27.8904 14.7096 28.0368 14.6317 28.1987 14.5702C28.2284 14.5539 28.2582 14.5539 28.3022 14.5539C28.3022 14.4308 28.2867 14.3065 28.2725 14.1823Z" fill="#C3E0A0"/>
<path id="Vector_4" fill-rule="evenodd" clip-rule="evenodd" d="M20.5036 0.714417L20.4453 0.745804C22.0022 3.24041 27.5702 12.1053 28.4081 13.5315V13.5465C28.4379 13.5616 28.4664 13.5779 28.4819 13.593C27.9082 12.6326 27.3357 11.6558 26.7334 10.6954C25.7634 9.00552 24.779 7.31692 23.7209 5.7049C22.6199 4.06275 21.5761 2.17201 20.5036 0.714417Z" fill="#F6B0F7"/>
<path id="Vector_5" fill-rule="evenodd" clip-rule="evenodd" d="M19.3375 2.56999C19.4482 2.56999 19.5149 2.69428 19.4625 2.80727C19.447 2.8374 19.4185 2.85372 19.3744 2.86879C19.1685 2.91524 18.9483 2.94663 18.7424 3.00814C18.2282 3.16382 17.7426 3.37977 17.2725 3.65973C15.4954 4.77459 14.0552 6.44938 12.909 8.1995C12.8066 8.30873 12.7471 8.47947 12.615 8.54099C12.5995 8.54476 12.5852 8.54601 12.5698 8.54601C12.4424 8.54601 12.3388 8.43302 12.365 8.30873H12.3508C12.3805 8.21582 12.4245 8.12292 12.4829 8.04508C13.3208 6.58874 14.4075 5.31695 15.6716 4.26361C16.7142 3.34963 17.9628 2.77589 19.3006 2.57501C19.3126 2.57124 19.3256 2.56999 19.3375 2.56999ZM20.5968 5.49899C20.6873 5.49899 20.7635 5.60822 20.7111 5.70489C20.6956 5.73628 20.6671 5.76641 20.623 5.78273C20.4314 5.86057 20.2255 5.93715 20.035 6.01499C19.5946 6.21586 19.1685 6.44938 18.7567 6.74316C17.082 7.92079 15.7299 9.56419 14.6432 11.3922C14.5694 11.4851 14.5253 11.6094 14.4075 11.6558C14.392 11.6596 14.3754 11.6608 14.3599 11.6608C14.1826 11.6608 14.0802 11.4273 14.2016 11.2842C15.5978 8.64896 17.8307 6.46445 20.5635 5.50401C20.5754 5.50025 20.5861 5.49899 20.5968 5.49899ZM22.1715 8.71048C22.2668 8.71048 22.3513 8.81468 22.3275 8.92893C22.312 9.00551 22.2239 9.0369 22.1513 9.06829C21.4895 9.39345 20.8432 9.75001 20.2255 10.153C18.7424 11.1134 17.6105 12.5083 16.6416 14.0274C16.5381 14.1667 16.45 14.3526 16.3036 14.4141C16.2834 14.4203 16.2643 14.4241 16.2453 14.4241C16.1203 14.4241 16.0132 14.3011 16.0382 14.1667C16.7737 12.8033 17.7426 11.5943 18.9043 10.6025C19.8589 9.78139 21.0051 9.26916 22.1061 8.7268C22.1275 8.7155 22.1501 8.71048 22.1715 8.71048ZM23.5891 11.3206C23.7474 11.3206 23.8379 11.5453 23.6939 11.6558C23.2083 11.8579 22.7381 12.1203 22.2977 12.4003C20.6516 13.5616 19.2269 15.0192 18.0806 16.7241C17.9926 16.8472 17.9342 17.0179 17.7866 17.0794C17.7724 17.0832 17.7569 17.0844 17.7414 17.0844C17.6117 17.0844 17.495 16.9689 17.5081 16.817C17.9188 15.9181 18.6686 15.1272 19.3149 14.399C20.5195 13.1121 21.9454 11.9973 23.532 11.3306C23.551 11.3244 23.5701 11.3206 23.5891 11.3206ZM24.8877 13.7788C25.0043 13.7788 25.0841 13.9521 24.9722 14.0575C24.4283 14.3839 23.8986 14.7405 23.3999 15.1586C21.9156 16.4291 20.8873 17.8553 19.8732 19.4824C19.7994 19.5753 19.7553 19.7147 19.6387 19.7611C19.622 19.7649 19.6054 19.7661 19.5887 19.7661C19.4506 19.7661 19.3459 19.6506 19.359 19.4975C19.6827 18.7693 20.2112 18.119 20.6813 17.4674C21.8276 15.9796 23.238 14.7405 24.8246 13.7951C24.846 13.7838 24.8675 13.7788 24.8877 13.7788ZM19.6006 0.527344C17.9283 0.527344 16.1381 1.21157 14.0112 2.66791C13.1887 3.19395 12.4245 3.84554 11.7628 4.6051C11.558 4.85243 11.3664 5.11607 11.1903 5.41111C10.7641 6.13928 10.3821 6.89884 10.0583 7.70359C10.044 7.71991 10.0298 7.75004 10 7.76637C10.1024 7.87434 10.1916 7.96724 10.2797 8.07647C11.22 9.31561 11.9687 10.6954 12.7769 12.0437C14.2456 14.507 15.7454 16.9564 17.1844 19.451C18.1842 21.1245 19.0947 22.8609 20.1231 24.503C20.1672 24.5959 20.2409 24.6888 20.2993 24.7817C20.3731 24.7202 20.4469 24.6587 20.5195 24.5808C20.5195 23.6669 20.6956 22.768 21.0051 21.9155C21.0777 21.6832 21.1658 21.4497 21.2693 21.2174C21.7538 20.1327 22.3417 19.1108 23.0023 18.1491C23.6344 17.2037 24.3688 16.1504 25.3245 15.3293C26.1172 14.694 26.9992 14.1667 27.9252 13.7637C26.8814 11.9973 20.5349 1.84558 19.7113 0.528597C19.6744 0.528597 19.6375 0.527344 19.6006 0.527344Z" fill="#FFBBAA"/>
<path id="Vector_6" fill-rule="evenodd" clip-rule="evenodd" d="M16.395 24.9771C15.9677 24.9771 15.5392 25.001 15.1119 25.0462C14.2299 25.2019 13.3634 25.4492 12.5255 25.8208C11.3067 26.3167 9.9105 26.9997 8.94044 28.2539C8.8964 28.3167 8.8238 28.3631 8.76428 28.3945V28.4711C9.33799 27.8986 10.0867 27.5107 10.7925 27.1391C11.2626 26.9055 11.703 26.5967 12.1875 26.3946C12.197 26.3921 12.2065 26.3908 12.216 26.3908C12.3184 26.3908 12.385 26.5415 12.291 26.6268C12.0411 26.736 11.6733 26.9055 11.3507 27.0926C10.5128 27.5421 9.64626 28.0066 9.01424 28.6268C8.91187 28.6883 8.85236 28.8126 8.75 28.859V29.1842C8.88212 29.0135 9.02852 28.8427 9.17611 28.6883C9.89622 27.8672 10.8948 27.4642 11.8649 27.0763C13.3801 26.4247 14.9976 26.0958 16.6283 26.0958C17.0532 26.0958 17.4781 26.1171 17.9031 26.1623C18.3875 26.2238 18.8731 26.3017 19.3575 26.426V26.4096C19.3873 26.3167 19.4171 26.2088 19.4456 26.1309C19.0636 26.038 18.6672 25.93 18.2851 25.8673C17.7995 25.7731 17.2936 25.7304 16.7795 25.7304C15.8618 25.7304 14.9191 25.866 14.024 26.0845C13.9359 26.1159 13.8336 26.1309 13.7455 26.1309C13.6134 26.1008 13.5693 25.93 13.686 25.8522C14.1121 25.6978 14.568 25.6978 15.0084 25.6199C15.6535 25.5258 16.2986 25.4806 16.9437 25.4806C17.2544 25.4806 17.5638 25.4919 17.8733 25.512C18.447 25.5886 19.0195 25.5735 19.5635 25.7907C19.5932 25.7279 19.6075 25.6815 19.6373 25.6199C19.5932 25.6199 19.5635 25.5886 19.5337 25.5735C18.9172 25.1391 18.0947 25.0625 17.3151 25.0161C17.0092 24.9897 16.7021 24.9771 16.395 24.9771Z" fill="#FFBBAA"/>
<path id="Vector_7" fill-rule="evenodd" clip-rule="evenodd" d="M28.493 13.6248C28.6549 14.1672 28.7727 14.7095 28.8608 15.267C28.8608 15.3297 28.8453 15.3913 28.8013 15.4226C28.831 15.4842 28.8453 15.562 28.831 15.6235C28.8013 15.7164 28.7287 15.7792 28.6406 15.8093C28.2585 16.0265 27.8467 16.2123 27.4646 16.4446C26.5981 16.9405 25.8042 17.5456 25.0841 18.2587C24.1438 19.1577 23.6451 20.0089 22.925 21.0785C22.4394 21.823 22.0871 22.6441 21.8526 23.5116C21.6764 24.2097 21.5586 24.6742 21.6312 25.371C21.6312 25.4174 21.6169 25.4488 21.5872 25.4802C21.6026 25.558 21.5872 25.6196 21.5586 25.6811C21.4408 25.8367 21.3229 25.9912 21.161 26.1004C20.6909 26.5034 20.1184 26.7821 19.5161 26.9052C19.4792 26.9278 19.4411 26.9353 19.4042 26.9353C19.309 26.9353 19.215 26.8813 19.1198 26.8587C18.7377 26.7821 18.3699 26.7193 17.9878 26.6729C17.5201 26.6151 17.0475 26.5875 16.5774 26.5875C16.0453 26.5875 15.5133 26.6227 14.9908 26.6892C13.7565 26.9052 12.5519 27.278 11.4057 27.789C10.8772 28.0062 10.3631 28.3 9.90719 28.6415C9.49536 29.0131 9.12876 29.4324 8.80501 29.8819C8.76097 29.9585 8.68718 30.0049 8.61457 30.0049C8.56696 30.0488 8.50864 30.0702 8.4527 30.0702C8.37057 30.0702 8.29082 30.0262 8.24678 29.9434C7.64451 28.8737 7.01249 27.8505 6.4245 26.7821C5.79367 25.5417 5.04381 24.3791 4.36774 23.1865C3.16321 21.0007 1.97295 18.8011 0.724375 16.6467C0.666053 16.7082 0.622013 16.7547 0.5625 16.8012C0.650579 16.9405 0.738658 17.0962 0.842211 17.2355C1.32664 17.9788 1.69443 18.7848 2.14911 19.5594C2.67877 20.5048 3.237 21.4501 3.76548 22.4118C4.38322 23.5895 4.95573 24.7822 5.60204 25.961C6.43998 27.4488 7.39456 28.8737 8.29082 30.3464C8.33486 30.4393 8.3789 30.5171 8.43841 30.5937C8.48245 30.5636 8.51102 30.5322 8.55506 30.5171C8.67289 30.4393 8.79073 30.3301 8.89309 30.2221C10.3035 28.703 12.1556 27.6961 14.0802 27.1223C14.9943 26.9491 15.9215 26.8637 16.8476 26.8637C17.6629 26.8637 18.477 26.9303 19.2804 27.0608C19.4864 27.0608 19.678 27.0294 19.8684 26.9679C20.5885 26.7658 21.4705 26.1933 21.8085 25.7125C21.8669 25.6509 21.8966 25.558 21.9549 25.4953C21.9109 24.8751 21.9847 24.2712 22.1751 23.6974C23.2035 20.3353 25.1139 18.3203 27.9348 16.5538C28.3026 16.3366 28.6549 16.0416 29.081 15.9487L29.1548 15.9186H29.1691C29.3012 15.8407 29.4476 15.7629 29.5952 15.67L29.6095 15.6386V15.6235C29.2429 14.9418 28.8751 14.2915 28.493 13.6248Z" fill="#F6B0F7"/>
<path id="Vector_8" fill-rule="evenodd" clip-rule="evenodd" d="M0.844669 14.9569V15.0348C0.844669 15.1126 0.829195 15.1741 0.829195 15.2369C0.844669 15.2369 0.844669 15.252 0.858952 15.252C1.13866 15.655 1.3291 16.1358 1.59334 16.5539C1.88733 17.0649 2.21108 17.5457 2.4896 18.0567C4.3952 21.6624 5.04389 22.8953 5.02603 22.8953C4.99747 22.8953 3.45252 20.0956 2.40152 18.3819C1.84329 17.4829 1.27078 16.6003 0.800629 15.67C0.800629 15.7165 0.800629 15.7629 0.785156 15.8257C0.858952 15.9337 0.932748 16.058 1.00654 16.1973C1.60881 17.2821 2.2694 18.3354 2.85739 19.4364C3.87148 21.2807 4.85583 23.1551 5.95681 24.953C6.35436 25.6347 6.70667 26.3164 7.08874 27.0144C7.55889 27.7891 8.01476 28.5637 8.45516 29.3697C8.46944 29.3697 8.46944 29.386 8.46944 29.386C8.46944 29.1224 8.48491 28.8587 8.49919 28.58C8.49919 28.5172 8.49919 28.4557 8.49919 28.3942C8.38136 28.3628 8.279 28.285 8.21948 28.177C5.92825 24.0541 3.34182 19.4051 0.844669 14.9569Z" fill="#FFBBAA"/>
<path id="Vector_9" fill-rule="evenodd" clip-rule="evenodd" d="M20.5021 0.714358C21.5746 2.17196 22.6029 4.06269 23.7194 5.70484C24.7775 7.33193 25.7619 9.00547 26.7319 10.6953C27.3318 11.6532 27.9043 12.6112 28.4756 13.6005C28.459 13.5779 28.4328 13.5754 28.4066 13.5616C27.5687 12.1366 22.0149 3.27175 20.4438 0.76081L20.5021 0.714358ZM19.5975 0.527294C19.6344 0.527294 19.6713 0.528553 19.7082 0.528553C20.5462 1.84554 26.8938 11.9972 27.9507 13.7637C27.0259 14.1667 26.1439 14.694 25.35 15.3443C24.3955 16.1503 23.6468 17.22 23.029 18.149C22.3685 19.1107 21.7805 20.149 21.296 21.2174C20.8259 22.272 20.5605 23.4182 20.5319 24.5959C20.4724 24.6586 20.3998 24.7202 20.326 24.7817C20.2665 24.6888 20.1939 24.5959 20.1498 24.503C19.106 22.8608 18.1954 21.1245 17.2111 19.451C15.7709 16.9714 14.2723 14.5069 12.8036 12.0437C11.9954 10.7104 11.2455 9.31557 10.3052 8.07642C10.2171 7.98351 10.1291 7.89061 10.0267 7.78139C10.041 7.75 10.041 7.73493 10.0553 7.70355C10.5992 6.47946 11.0694 5.47258 11.7752 4.60505C12.4358 3.84549 13.1856 3.19391 14.0224 2.66787C16.1506 1.21152 17.9252 0.527294 19.5975 0.527294ZM28.2888 14.1667C28.3043 14.2747 28.3043 14.399 28.3185 14.5232C28.2745 14.5232 28.2447 14.5232 28.2162 14.5383C28.0543 14.5998 27.9067 14.6777 27.7603 14.7555C27.2164 15.0028 26.7165 15.3129 26.232 15.6858C25.6155 16.1189 25.0418 16.6462 24.543 17.2351C24.4907 17.3229 24.5633 17.4108 24.6371 17.4108C24.6668 17.4108 24.6978 17.3958 24.7192 17.3593C25.3215 16.6927 26.0118 16.1353 26.776 15.6695C27.114 15.4686 27.4663 15.2979 27.8341 15.1585C27.9507 15.0957 28.2007 15.0493 28.3626 14.9727C28.3626 15.0342 28.3769 15.0957 28.3923 15.1585C28.3923 15.22 28.4066 15.2828 28.4364 15.3443C28.3328 15.3908 28.2305 15.4686 28.1281 15.4987C27.7305 15.7159 27.3342 15.9181 26.9521 16.1503C25.4238 17.0957 24.1169 18.3662 23.1171 19.9155C22.2363 21.1559 21.4865 22.5507 21.3103 24.1C21.2663 24.3787 21.252 24.6737 21.2663 24.9524C21.1925 24.8595 21.1044 24.7817 21.0163 24.7202C21.0306 24.6888 21.0306 24.6423 21.0306 24.6122C21.0461 23.5111 21.296 22.4264 21.7364 21.4346C22.2209 20.3813 22.7791 19.3894 23.4254 18.4591C24.0289 17.5452 24.7478 16.522 25.644 15.7473C26.4379 15.1121 27.3044 14.5998 28.2162 14.2131C28.2447 14.1981 28.2745 14.1818 28.2888 14.1667ZM20.914 24.9374C21.0163 25.0152 21.1044 25.1081 21.1925 25.2161C21.208 25.2475 21.2365 25.2776 21.252 25.309C21.0746 25.4646 21.1627 25.4483 21.0163 25.5726C20.708 25.8664 20.3557 26.0836 19.9737 26.2393C19.8701 26.2694 19.7677 26.3159 19.6499 26.3472C19.7082 26.1765 19.7677 26.007 19.8415 25.8513C19.8701 25.7898 19.8999 25.712 19.9141 25.6341C19.9296 25.6341 19.9439 25.6191 19.9737 25.6191C20.326 25.4646 20.6485 25.2311 20.914 24.9374ZM9.60059 7.9672C9.99695 8.35514 10.379 9.00547 10.7468 9.59428C11.5836 10.8811 12.3179 12.2295 13.1118 13.5151C14.4045 15.6858 15.7268 17.8389 16.9754 20.0247C17.9752 21.6982 18.8715 23.4182 19.9141 25.0616L19.7963 25.1232C19.0619 24.6272 18.1811 24.5343 17.3432 24.4879C17.0242 24.4615 16.7028 24.449 16.3815 24.449C15.9339 24.449 15.4876 24.4741 15.0508 24.5193C14.1259 24.6737 13.2142 24.9374 12.3477 25.324C11.0848 25.8363 9.65891 26.533 8.61625 27.835C6.23574 23.5739 3.56124 18.7379 0.990293 14.1818C1.37236 12.3375 2.51858 10.6639 4.1647 9.54783H4.17898C5.64776 8.55601 7.45576 8.02997 9.60059 7.9672ZM16.3934 24.9612C16.7005 24.9612 17.0075 24.9738 17.3134 24.9989C18.0931 25.0453 18.9155 25.1232 19.5321 25.5726C19.5618 25.5877 19.6059 25.604 19.6356 25.6191C19.6059 25.6655 19.5916 25.727 19.5618 25.7735C19.0179 25.5576 18.4454 25.5726 17.8717 25.5111C17.5539 25.4847 17.2361 25.4722 16.9171 25.4722C16.2803 25.4722 15.6435 25.5211 15.0067 25.604C14.5806 25.6969 14.0962 25.6969 13.6844 25.8363C13.5677 25.9128 13.5963 26.0836 13.7284 26.115H13.7439C13.8319 26.115 13.9343 26.0999 14.0224 26.0685C14.9175 25.8501 15.8601 25.7145 16.7778 25.7145C17.292 25.7145 17.7979 25.7572 18.2835 25.8513C18.6656 25.9128 19.0619 26.0221 19.444 26.115C19.4154 26.2079 19.3857 26.3159 19.3559 26.3937V26.4088C18.8858 26.2857 18.3859 26.2079 17.9014 26.1614C17.4587 26.1112 17.0135 26.0861 16.5707 26.0861C14.9591 26.0861 13.3606 26.4163 11.8633 27.0603C10.9075 27.4483 9.89459 27.8664 9.17448 28.6724C9.02689 28.8268 8.88049 28.9975 8.74837 29.1683V28.8419C8.85073 28.7954 8.91025 28.6724 9.01261 28.6096C9.64463 28.0057 10.5111 27.5412 11.3491 27.0754C11.6716 26.9047 12.0394 26.7352 12.2894 26.6109C12.3798 26.5293 12.3215 26.3862 12.2263 26.3862C12.2132 26.3862 12.2001 26.3887 12.1858 26.3937C11.7014 26.5795 11.261 26.8896 10.7908 27.1219C10.085 27.4947 9.33636 27.8814 8.76265 28.4552V28.3937V28.3773C8.82217 28.3459 8.89477 28.2995 8.93881 28.238C9.90887 26.9825 11.305 26.3008 12.5239 25.8049C13.3618 25.4483 14.2283 25.1847 15.1103 25.0303C15.5376 24.9851 15.9661 24.9612 16.3934 24.9612ZM0.843892 14.9413C3.34104 19.3894 5.92747 24.0384 8.21871 28.1601C8.27822 28.2694 8.38058 28.3459 8.49842 28.3773C8.49842 28.4401 8.49842 28.5016 8.49842 28.5795C8.49842 28.8419 8.46866 29.1055 8.48413 29.3855C8.46866 29.3691 8.46866 29.3691 8.46866 29.3541C8.01398 28.5631 7.55812 27.7734 7.08797 26.9988C6.72018 26.3159 6.35358 25.6191 5.95603 24.9524C4.85505 23.1546 3.87071 21.2639 2.85661 19.4196C2.26863 18.3198 1.60804 17.2664 1.00577 16.1817C0.931971 16.0411 0.858175 15.9181 0.784379 15.8088C0.784379 15.7624 0.784379 15.7159 0.784379 15.6695L0.799852 15.6544C1.27 16.5998 1.85799 17.4824 2.40074 18.3662C3.45293 20.0812 5.00383 22.8834 5.03121 22.8834C5.04906 22.8834 4.39799 21.6518 2.48882 18.0561C2.22459 17.5288 1.88655 17.0492 1.59256 16.537C1.32833 16.1189 1.13788 15.6544 0.858175 15.2364C0.858175 15.2364 0.843892 15.22 0.828418 15.22C0.828418 15.1585 0.843892 15.0957 0.843892 15.0342V14.9413ZM28.4947 13.608C28.8625 14.2747 29.2446 14.9263 29.5969 15.5916V15.608V15.6544C29.4493 15.7473 29.3029 15.8252 29.1708 15.9017H29.1565L29.0827 15.9331C28.6566 16.026 28.3043 16.3211 27.9365 16.537C25.1156 18.3198 23.2052 20.3185 22.1768 23.6819C21.9864 24.2556 21.9126 24.8746 21.9566 25.4797C21.8983 25.5412 21.8685 25.6341 21.8102 25.6969C21.4722 26.1765 20.5902 26.7653 19.8701 26.9524C19.6797 27.0139 19.488 27.0453 19.2821 27.0603C18.4751 26.9222 17.6586 26.8519 16.8409 26.8519C15.9173 26.8519 14.9936 26.9411 14.0819 27.1219C12.1573 27.6805 10.3052 28.6874 8.89477 30.2065C8.79241 30.3145 8.67457 30.4237 8.55674 30.5003C8.5127 30.5317 8.48413 30.5468 8.44009 30.5782C8.38058 30.5003 8.33654 30.4237 8.2925 30.3459C7.39624 28.8582 6.45594 27.432 5.58943 25.9442C4.95741 24.7817 4.3849 23.5739 3.75287 22.395C3.23868 21.4195 2.68045 20.5043 2.15079 19.5439C1.69611 18.7692 1.32832 17.9632 0.843891 17.22C0.740338 17.0794 0.652259 16.925 0.549898 16.7856C0.623692 16.7542 0.667733 16.7078 0.711771 16.6462C1.97463 18.7843 3.16489 20.9851 4.35514 23.1709C5.04549 24.3636 5.77988 25.5262 6.42618 26.7653C6.99989 27.835 7.64619 28.8582 8.24846 29.9278C8.2925 30.0094 8.37225 30.0546 8.45438 30.0546C8.51032 30.0546 8.56864 30.0333 8.61625 29.9894C8.68886 29.9894 8.76265 29.9429 8.79241 29.8651C9.11497 29.4156 9.48276 28.9975 9.89458 28.6259C10.3647 28.2844 10.8635 27.9906 11.4074 27.7734C12.5536 27.2612 13.7439 26.8896 14.9782 26.6724C15.5078 26.6071 16.0387 26.572 16.5695 26.572C17.0385 26.572 17.5063 26.5996 17.9752 26.6573C18.3573 26.7038 18.7394 26.7653 19.106 26.8432C19.2012 26.8657 19.3035 26.9197 19.3976 26.9197C19.4345 26.9197 19.4702 26.9122 19.5035 26.8896C20.1058 26.7653 20.6783 26.4866 21.1627 26.0836C21.3103 25.9756 21.4424 25.8199 21.5448 25.6655C21.5746 25.604 21.5888 25.5412 21.5888 25.4646C21.6186 25.4333 21.6329 25.4019 21.6329 25.3554C21.5448 24.6423 21.6626 24.1929 21.8543 23.4961C22.0745 22.6285 22.4411 21.8062 22.9267 21.063C23.6313 19.9783 24.1455 19.1258 25.0715 18.2419C25.7916 17.5288 26.5998 16.925 27.4663 16.429C27.8484 16.1968 28.2447 16.011 28.6423 15.7938C28.7304 15.7624 28.7887 15.7009 28.8184 15.608C28.8327 15.5452 28.8327 15.4686 28.7887 15.4058C28.8327 15.3757 28.8625 15.3129 28.8625 15.2514C28.7744 14.694 28.6423 14.1504 28.4947 13.608ZM19.5678 0C17.7967 0 15.9351 0.701806 13.7284 2.21841C12.8619 2.77584 12.0692 3.45755 11.3776 4.2485C10.5849 5.224 10.041 6.44934 9.60059 7.44116H9.57084L9.5268 7.40977C9.51132 7.406 9.49585 7.40349 9.48276 7.40349C9.44467 7.40349 9.41253 7.41856 9.38039 7.44116C7.23437 7.53406 5.38352 8.09149 3.88499 9.09837C2.12222 10.2923 0.88793 12.1052 0.476102 14.0738C0.476102 14.1353 0.476102 14.1981 0.476102 14.2596C0.402306 14.7241 0.3297 15.3443 0.299944 15.8252V15.8553C0.255904 15.9947 0.3297 16.1503 0.447536 16.2118L0.535615 16.3361C0.505858 16.3361 0.491575 16.3512 0.476102 16.3512C0.358266 16.4441 0.299944 16.4755 0.255904 16.522C0.249954 16.522 0.244003 16.522 0.238051 16.522C0.0285663 16.522 -0.0773669 16.7743 0.0654643 16.925C0.505858 17.4673 1.07837 18.5207 1.57828 19.2802C2.60666 20.9073 3.45888 22.675 4.3111 24.4101C5.00145 25.8049 5.75131 27.1532 6.55949 28.4552C7.04392 29.2298 7.49979 30.0509 8.02827 30.779C8.10206 30.8569 8.17467 30.9498 8.27822 30.9498C8.30798 30.9498 8.33654 30.9498 8.3663 30.9347C8.39605 30.9661 8.42462 30.9812 8.45438 30.9962C8.47461 30.9987 8.49365 31 8.5127 31C8.87454 31 9.09949 30.597 9.35064 30.3773C10.3493 29.3541 11.5395 28.5631 12.8619 28.0522C13.8177 27.6341 14.846 27.4018 15.8887 27.3855C16.8588 27.3541 17.8133 27.3077 18.7679 27.3077C18.9453 27.3077 19.1214 27.3391 19.2821 27.3541H19.3262C19.3452 27.3554 19.3631 27.3554 19.3809 27.3554C20.3022 27.3554 21.2056 26.97 21.8828 26.3008C22.0007 26.1614 22.1185 26.0221 22.2066 25.8664C22.2506 25.8199 22.2804 25.7735 22.3089 25.712C22.3827 25.6655 22.4268 25.5877 22.4268 25.5111C22.3387 24.6122 22.6029 23.8677 22.941 22.9374C23.7634 20.6135 25.7619 18.4127 27.8781 17.0179C28.2602 16.7705 28.6708 16.5533 29.097 16.3826C29.141 16.3675 29.1708 16.3361 29.2005 16.3211H29.2291C29.3172 16.3211 29.391 16.2583 29.435 16.1817C29.5231 16.1503 29.5969 16.1189 29.6707 16.0725C29.7587 16.011 29.8468 15.9331 29.9051 15.8402C29.9635 15.8402 30.0087 15.7938 30.023 15.7473C30.067 15.5916 29.9789 15.4523 29.9349 15.3129C29.0089 13.5616 27.9662 11.888 26.9521 10.1994C25.7619 8.13794 24.4835 6.13923 23.2052 4.13927C22.4708 2.94658 21.7507 1.7225 20.958 0.55994C20.8842 0.450714 20.8259 0.29629 20.6926 0.264903C20.6711 0.257368 20.6485 0.253603 20.6271 0.253603C20.5628 0.253603 20.5021 0.288755 20.4581 0.357806C20.3843 0.357806 20.3117 0.374129 20.2379 0.42058L20.1058 0.203387C20.0177 0.0790916 19.8856 0.00251165 19.738 0.00251165C19.6809 0 19.6249 0 19.5678 0Z" fill="black"/>
<path id="Vector_10" fill-rule="evenodd" clip-rule="evenodd" d="M19.3356 2.57004C19.3237 2.57004 19.3118 2.57129 19.2987 2.57506C17.9608 2.76087 16.7122 3.34968 15.6696 4.24859C14.4055 5.30193 13.3188 6.58879 12.4809 8.04513C12.4226 8.12297 12.3785 8.19956 12.3488 8.29246C12.3357 8.43181 12.4404 8.54606 12.5678 8.54606C12.5832 8.54606 12.5975 8.54481 12.613 8.54104C12.7451 8.47952 12.8046 8.30878 12.907 8.18449C14.0675 6.44943 15.4934 4.75957 17.2705 3.65978C17.7406 3.37981 18.2262 3.16387 18.7404 3.00819C18.9463 2.94668 19.1665 2.90022 19.3725 2.86884C19.4165 2.85377 19.4451 2.83745 19.4605 2.791C19.5129 2.69307 19.4463 2.57004 19.3356 2.57004Z" fill="black"/>
<path id="Vector_11" fill-rule="evenodd" clip-rule="evenodd" d="M20.5992 5.49918C20.5873 5.49918 20.5754 5.50043 20.5623 5.50419C17.8295 6.46463 15.5966 8.64914 14.2159 11.2844C14.0802 11.4275 14.1945 11.661 14.3742 11.661C14.3897 11.661 14.4051 11.6598 14.4218 11.656C14.5384 11.6095 14.5825 11.4852 14.6563 11.3923C15.7442 9.56438 17.0951 7.92097 18.7698 6.74334C19.1673 6.44956 19.5935 6.21605 20.0481 6.01517C20.2398 5.93733 20.4302 5.86075 20.6361 5.78291C20.6659 5.76659 20.6944 5.73646 20.7099 5.70507C20.7623 5.6084 20.6968 5.49918 20.5992 5.49918Z" fill="black"/>
<path id="Vector_12" fill-rule="evenodd" clip-rule="evenodd" d="M22.1742 8.70325C22.1468 8.70325 22.1183 8.71078 22.0897 8.7271C20.9875 9.26946 19.8568 9.78169 18.8867 10.6028C17.7405 11.5946 16.7716 12.8036 16.0361 14.167C16.0242 14.3014 16.1325 14.4244 16.2574 14.4244C16.2765 14.4244 16.2967 14.4206 16.3158 14.4144C16.4776 14.3529 16.536 14.167 16.6538 14.0277C17.6239 12.5086 18.7546 11.1137 20.2388 10.1533C20.8554 9.75031 21.4874 9.37869 22.1635 9.06859C22.2218 9.0372 22.3099 9.00581 22.3254 8.92923C22.3599 8.8062 22.2754 8.70325 22.1742 8.70325Z" fill="black"/>
<path id="Vector_13" fill-rule="evenodd" clip-rule="evenodd" d="M23.5912 11.3398C23.5769 11.3398 23.5615 11.3423 23.546 11.3461C21.9451 11.9976 20.5192 13.1125 19.3146 14.3994C18.6683 15.1275 17.9185 15.9185 17.5078 16.8174C17.4817 16.9643 17.59 17.0898 17.7233 17.0898C17.7447 17.0898 17.7649 17.0861 17.7864 17.0798C17.9339 17.0183 17.9923 16.8325 18.0803 16.7245C19.2266 15.0196 20.6513 13.562 22.2974 12.4157C22.7378 12.1207 23.208 11.8734 23.6936 11.6562C23.8269 11.5432 23.7412 11.3398 23.5912 11.3398Z" fill="black"/>
<path id="Vector_14" fill-rule="evenodd" clip-rule="evenodd" d="M24.9063 13.7554C24.8801 13.7554 24.8539 13.7629 24.8253 13.7793C23.2387 14.7246 21.8425 15.9801 20.682 17.4678C20.2119 18.1194 19.6977 18.7547 19.3751 19.4979C19.349 19.6435 19.4537 19.7553 19.5763 19.7553C19.5965 19.7553 19.618 19.7528 19.6394 19.7465C19.756 19.7151 19.8155 19.5758 19.8893 19.4665C20.888 17.8558 21.9163 16.4295 23.4149 15.159C23.8993 14.7409 24.429 14.3844 24.9729 14.0429C25.1205 13.9651 25.0408 13.7554 24.9063 13.7554Z" fill="black"/>
<path id="Vector_15" fill-rule="evenodd" clip-rule="evenodd" d="M9.79165 9.8432C8.58711 9.8432 7.4409 10.3391 6.4268 10.9744C5.67813 11.4088 5.01635 11.9662 4.47359 12.6479C4.04748 13.0974 3.69517 13.6247 3.42974 14.1984C3.40117 14.2913 3.32738 14.3842 3.34166 14.4922C3.35475 14.5838 3.43093 14.6542 3.51663 14.6542C3.53091 14.6542 3.54638 14.6516 3.56186 14.6466C3.70945 14.6002 3.7392 14.3993 3.82728 14.275C4.34147 13.4853 4.94374 12.7571 5.63409 12.1206C6.36848 11.5167 7.19094 11.0058 8.04316 10.6028C8.48475 10.4006 8.9549 10.2613 9.42505 10.2148C9.57145 10.1834 9.76308 10.2299 9.8952 10.137C9.99756 10.029 9.92377 9.8432 9.79165 9.8432Z" fill="black"/>
<path id="Vector_16" fill-rule="evenodd" clip-rule="evenodd" d="M10.9478 13.3574C8.52084 13.3574 6.34506 15.149 4.98936 17.174C4.94532 17.2506 4.87152 17.3134 4.85724 17.4063C4.84177 17.5293 4.92985 17.6386 5.0334 17.6386C5.20956 17.6235 5.28335 17.4214 5.38571 17.3134C6.73784 15.4993 8.61845 14.0115 10.5717 13.7177C10.7204 13.6977 10.868 13.6889 11.0144 13.6889C11.218 13.6889 11.4191 13.7064 11.6155 13.7328C11.7917 13.7027 11.8059 13.4541 11.6453 13.4076C11.4108 13.3737 11.1787 13.3574 10.9478 13.3574Z" fill="black"/>
<path id="Vector_17" fill-rule="evenodd" clip-rule="evenodd" d="M13.272 15.8872C12.0674 15.9488 10.8915 16.3053 9.84881 16.9406C8.61452 17.67 7.51234 18.6154 6.61608 19.7767C6.45421 19.916 6.45421 20.1797 6.70416 20.196C6.83628 20.196 6.91008 20.0403 7.01244 19.9474C8.30624 18.4748 9.7893 17.2356 11.464 16.5539C11.9199 16.3831 12.4043 16.2752 12.8899 16.2438C13.0518 16.1973 13.2422 16.2438 13.3743 16.1509C13.4624 16.058 13.4041 15.8872 13.272 15.8872Z" fill="black"/>
<path id="Vector_18" fill-rule="evenodd" clip-rule="evenodd" d="M14.9503 18.682C14.9313 18.682 14.911 18.6858 14.8908 18.6921C13.4803 18.8779 12.0984 19.3273 10.9237 20.1647C9.82149 20.8778 8.86691 21.7918 8.10276 22.8765C8.01825 23.0109 8.10871 23.1879 8.25988 23.1879C8.26583 23.1879 8.27178 23.1866 8.27892 23.1866C8.44079 23.1866 8.52887 23.0008 8.64552 22.8765C9.90957 21.4202 11.3498 20.2426 12.9947 19.6073C13.641 19.3587 14.3028 19.1729 14.9789 19.08C15.2062 19.0097 15.1407 18.682 14.9503 18.682Z" fill="black"/>
<path id="Vector_19" fill-rule="evenodd" clip-rule="evenodd" d="M16.9811 21.5558C16.9454 21.5558 16.9121 21.581 16.8871 21.6061C16.7811 21.596 16.6752 21.591 16.5705 21.591C15.842 21.591 15.1267 21.8095 14.434 22.0405C12.7152 22.6293 11.0548 23.5746 9.79078 24.9531C9.71818 25.046 9.62891 25.1088 9.62891 25.2319C9.62891 25.3411 9.71818 25.434 9.82054 25.4491C9.96694 25.4491 10.055 25.2783 10.1729 25.2017C11.7011 23.7291 13.5675 22.6908 15.5802 22.1798C15.9194 22.0869 16.2658 22.0379 16.6157 22.0379C16.7359 22.0379 16.8561 22.043 16.9752 22.0555C16.9918 22.0593 17.0085 22.0605 17.024 22.0605C17.2144 22.0605 17.3156 21.8107 17.1668 21.6676C17.1406 21.601 17.093 21.5558 17.0323 21.5558C17.024 21.5558 17.0144 21.5571 17.0049 21.5596C16.9966 21.5571 16.9894 21.5558 16.9811 21.5558Z" fill="black"/>
<path id="Vector_20" fill-rule="evenodd" clip-rule="evenodd" d="M2.14878 11.5168C1.59055 12.2914 1.19419 13.2067 0.988281 14.1671C3.55923 18.7232 6.24802 23.558 8.61424 27.8203C9.08439 27.2315 9.65691 26.7356 10.2889 26.3477C9.59858 25.7438 8.95227 25.0771 8.37857 24.3489C6.79196 22.3653 5.63146 20.0402 4.54357 17.7163C3.61874 15.7164 2.72248 13.6398 2.14878 11.5168Z" fill="white" fill-opacity="0.4464"/>
<path id="Vector_21" fill-rule="evenodd" clip-rule="evenodd" d="M11.202 5.41129C10.7759 6.13946 10.3938 6.91408 10.0558 7.70377C10.0558 7.72009 10.0272 7.75022 10.0117 7.78161C10.1153 7.87451 10.2033 7.98374 10.2914 8.07664C11.2317 9.31579 11.9816 10.7106 12.7886 12.0439C14.2585 14.5072 15.7571 16.9566 17.1973 19.4512C18.1816 21.1247 19.0922 22.861 20.1348 24.5032C20.1789 24.581 20.2527 24.689 20.3122 24.7819C20.3848 24.7204 20.4586 24.6589 20.5169 24.581C20.5324 23.667 20.6931 22.7681 21.0168 21.9157L20.7526 21.6985C15.9475 17.5454 12.5839 11.8117 11.202 5.41129Z" fill="white" fill-opacity="0.4464"/>
</g>
</svg>
