<svg width="24" height="27" viewBox="0 0 24 27" fill="none" xmlns="http://www.w3.org/2000/svg">
<path id="Vector" fill-rule="evenodd" clip-rule="evenodd" d="M14.0216 1.46553L14.1095 1.55467C14.3697 1.86133 14.6722 3.75475 14.6722 5.20602C14.6722 6.70365 14.6722 8.06933 14.5878 9.47781C13.9794 9.78447 13.3288 10.0947 12.7203 10.4013L12.4144 10.0947C11.9818 9.65253 11.5914 9.16759 11.1554 8.729C11.3312 7.89105 11.5492 6.96751 11.7216 6.13312C11.8095 6.08677 11.8517 6.00119 11.8517 5.91205C12.0697 5.20602 12.1998 4.50357 12.3722 3.8439C12.4601 3.49089 12.5902 3.13788 12.7203 2.83122L12.8505 2.56735C13.0228 2.25713 13.1986 1.99326 13.3709 1.77575C13.4589 1.68661 13.5433 1.64382 13.589 1.55467L13.7613 1.46553H14.0216ZM10.8107 10.4013L11.4191 11.0182L11.0709 11.1929L10.6806 11.3712C10.7228 11.061 10.765 10.7544 10.8107 10.4013ZM14.5421 11.0182C14.5421 11.414 14.4998 11.8526 14.4577 12.252C14.1974 11.9845 13.9336 11.7207 13.6734 11.414L14.5421 11.0182ZM3.68915 4.10776C3.81927 4.15056 3.90719 4.15056 3.99511 4.19691C4.5578 4.32884 5.03609 4.59271 5.42646 4.98851C6.90352 6.26506 8.29266 7.58439 9.59389 9.03566L9.6818 9.1248C9.46376 10.0947 9.33364 11.061 9.20352 12.0309L8.46498 12.3839C7.68425 11.5032 6.8578 10.5761 6.07707 9.65254C5.03609 8.50792 4.07951 7.27774 3.3445 5.86926L3.29878 5.78011C3.16866 5.51624 3.12646 5.25238 3.08074 4.94216C3.08074 4.81022 3.08074 4.67829 3.08074 4.54636V4.50357C3.08074 4.46078 3.12646 4.37163 3.12646 4.32884C3.16866 4.28249 3.16866 4.28249 3.21438 4.2397L3.25658 4.15056L3.3445 4.10776H3.68915ZM21.9661 8.29041L22.4021 8.3332H22.6167L22.6624 8.37599L22.7046 8.42235V8.46514V8.50792V8.59707C22.7046 8.63986 22.6624 8.68621 22.6624 8.729C22.6167 8.81815 22.5745 8.90372 22.5323 8.99287C21.7937 10.2694 20.0986 11.2393 18.3648 12.4267C17.5384 12.9544 16.7576 13.4394 15.9312 13.9243C15.8468 13.7924 15.7167 13.6605 15.5865 13.525C15.7167 12.4695 15.8468 11.414 15.9312 10.3586C17.6685 9.47781 19.4937 8.81815 21.4034 8.3332C21.5651 8.29041 21.7656 8.29041 21.9661 8.29041ZM12.3722 12.0737C13.0228 12.7797 13.6312 13.4822 14.2818 14.1882C14.2818 14.4057 14.2396 14.6268 14.1974 14.8906C13.4589 15.2865 12.7625 15.6822 12.024 16.0781L11.2855 15.3328C10.983 15.0226 10.6806 14.7159 10.3746 14.4057C10.4203 13.9243 10.4203 13.4394 10.5047 12.9972C11.1132 12.6906 11.7638 12.3839 12.3722 12.0737ZM10.2023 16.2563L10.765 16.7413H10.7228L10.1601 17.0479C10.1601 16.7841 10.2023 16.4774 10.2023 16.2563ZM14.0216 16.6093C13.9794 17.0052 13.9336 17.401 13.8492 17.8395L13.1107 17.0907L14.0216 16.6093ZM8.16254 14.1418C8.42279 14.4057 8.64083 14.7159 8.90107 14.9334C8.85536 15.5967 8.81315 16.2991 8.77095 16.9588C8.77095 17.2227 8.72523 17.4865 8.72523 17.7504L7.90229 18.1498V18.1034C6.20719 18.8522 4.99389 19.5582 3.47462 20.0396C3.14755 20.1074 2.82049 20.1395 2.49694 20.1395C2.16988 20.1395 1.84633 20.1074 1.51927 20.0396L1.38914 19.9968L1.34695 19.954C1.30123 19.8649 1.30123 19.8221 1.30123 19.733V19.6902V19.6438V19.601C1.30123 19.5582 1.30123 19.5119 1.34695 19.4691C2.03976 17.8859 5.20842 15.8605 7.77218 14.3629C7.90229 14.2738 8.03242 14.231 8.16254 14.1418ZM15.671 15.7286C16.7576 16.9588 17.7564 18.1498 18.5372 19.2052C19.0154 19.8221 19.448 20.4818 19.8384 21.1842C19.8384 21.2306 19.8384 21.2306 19.8841 21.2734C19.8841 21.3162 19.9263 21.4053 19.9263 21.4481C19.9685 21.6264 20.0142 21.8011 20.0564 21.9794C20.0564 22.0222 20.0564 22.1113 20.0564 22.1541C20.0564 22.1541 20.0564 22.1541 20.0142 22.1969H19.9263C19.8384 22.1541 19.754 22.1541 19.7083 22.1113C19.3601 22.0222 19.0154 21.8903 18.7095 21.712C17.2781 20.8348 15.9312 19.7758 14.7179 18.6311C14.848 18.0606 14.9324 17.4437 15.0625 16.8732C15.1083 16.563 15.1505 16.2563 15.1927 15.9925C15.3685 15.9033 15.4986 15.7714 15.671 15.7286ZM11.7638 17.7968C12.3722 18.3673 12.9806 18.895 13.589 19.4691C13.283 21.1414 12.8505 22.771 12.3722 24.397H12.33C12.1119 24.9711 11.8095 25.4988 11.3734 25.9374L11.2855 25.9838L11.2433 26.0265L11.1132 26.1157H10.9408C10.5927 25.3669 10.3324 24.6181 10.2445 23.8265C10.03 22.1113 9.98426 20.3498 10.1144 18.5884C10.6349 18.3245 11.2011 18.0606 11.7638 17.7968ZM14.0321 0C13.9583 0 13.8844 0.00356414 13.8035 0.0142642C12.4601 0.23534 11.8517 1.77575 11.4613 3.31617C11.0709 4.28249 10.7228 5.25238 10.4625 6.26506C10.3324 6.66086 10.2023 7.09945 10.0722 7.5416C9.03119 6.39699 7.90229 5.34152 6.68547 4.37163C5.79572 3.68344 4.77936 2.78487 3.55903 2.78487C3.53089 2.78487 3.50275 2.78487 3.47462 2.78843C3.25658 2.78843 2.99634 2.87401 2.82049 3.00594L2.69037 3.0523L2.60596 3.13788C2.56025 3.18423 2.47584 3.22702 2.43013 3.26981C2.38792 3.35896 2.34573 3.40174 2.3 3.4481L2.2156 3.53368C2.12768 3.66561 2.08548 3.79754 2.03976 3.97583C1.99756 4.15056 1.99756 4.32884 1.99756 4.50357C1.99756 4.54635 1.99756 4.54635 1.99756 4.59271C2.08548 5.51624 2.38792 6.43978 2.82049 7.27774C2.90842 7.40967 2.95061 7.49525 3.03853 7.62718C3.64695 8.729 4.33976 9.74168 5.16621 10.6652C5.81682 11.5032 6.51315 12.2948 7.20597 13.0864C5.86254 13.8352 4.5578 14.6696 3.29878 15.5503C2.03976 16.5202 0.566209 17.5329 0.0422051 19.0733C0 19.1161 0 19.2052 0 19.248C0 19.3372 0 19.38 0 19.4263C0 19.5582 0 19.6902 0 19.8221C0.140676 20.9097 0.886239 21.3554 1.84633 21.3554C2.08899 21.3554 2.34221 21.3269 2.60596 21.2734C4.5156 21.2306 6.38303 20.2607 8.11682 19.5119L8.72523 19.248C8.68303 21.0095 8.85536 22.771 9.29144 24.4861C9.55169 25.3241 9.94205 26.3796 10.3324 26.7326C10.5927 26.918 10.8388 27 11.0745 27C11.9326 27 12.6043 25.916 12.9806 25.1922C13.589 23.5626 14.0673 21.8903 14.4119 20.1716C14.63 20.3498 14.848 20.5674 15.1083 20.7456C16.3673 21.8439 17.7986 22.8566 19.448 23.2096C19.5359 23.2524 19.6239 23.2524 19.7083 23.2524C19.761 23.2666 19.8138 23.2738 19.87 23.2738C20.0072 23.2738 20.1514 23.2417 20.2745 23.2096C20.5769 23.1204 20.795 22.9457 20.9673 22.6819C21.0974 22.3288 21.1431 21.933 21.013 21.58C20.9251 21.0987 20.7492 20.6565 20.5347 20.2179C19.4058 18.4136 18.1468 16.6521 16.7998 15.0226C17.0179 14.8906 17.2359 14.7587 17.4505 14.6268C18.8396 13.7924 20.1865 12.9116 21.5335 11.9418C22.4865 11.3249 23.2673 10.4905 23.7913 9.5206C24.4384 8.04081 23.4959 7.17433 22.1313 7.17433C22.0364 7.17433 21.9379 7.18146 21.8359 7.18859L21.7937 7.1458C21.7551 7.1351 21.7093 7.13154 21.6495 7.13154C20.8231 7.13154 17.9639 7.97662 16.5818 8.55428C16.3673 8.63986 16.1492 8.729 15.9312 8.81815C16.0191 7.80547 16.0191 6.79279 16.0191 5.73732C16.0191 3.0309 15.8187 0 14.0321 0Z" fill="#2D3740"/>
</svg>
