<svg width="21" height="24" viewBox="0 0 21 24" fill="none" xmlns="http://www.w3.org/2000/svg">
<path id="Vector" fill-rule="evenodd" clip-rule="evenodd" d="M12.2689 1.3027L12.3458 1.38193C12.5735 1.65452 12.8382 3.33756 12.8382 4.62757C12.8382 5.9588 12.8382 7.17274 12.7643 8.42472C12.2319 8.69731 11.6627 8.97306 11.1303 9.24564L10.8626 8.97306C10.4841 8.58003 10.1425 8.14897 9.76093 7.75911C9.91479 7.01426 10.1056 6.19334 10.2564 5.45166C10.3333 5.41046 10.3702 5.33439 10.3702 5.25515C10.561 4.62757 10.6749 4.00317 10.8256 3.4168C10.9026 3.10301 11.0164 2.78922 11.1303 2.51664L11.2442 2.28209C11.3949 2.00634 11.5488 1.77179 11.6996 1.57845C11.7765 1.49921 11.8504 1.46117 11.8904 1.38193L12.0412 1.3027H12.2689ZM9.45937 9.24564L9.99173 9.79398L9.68708 9.94929L9.34551 10.1078C9.38244 9.83201 9.41936 9.55943 9.45937 9.24564ZM12.7243 9.79398C12.7243 10.1458 12.6874 10.5357 12.6504 10.8907C12.4227 10.6529 12.1919 10.4184 11.9642 10.1458L12.7243 9.79398ZM3.228 3.65135C3.34186 3.68938 3.41879 3.68938 3.49572 3.73059C3.98807 3.84786 4.40658 4.08241 4.74815 4.43423C6.04058 5.56894 7.25608 6.74168 8.39465 8.0317L8.47158 8.11094C8.28079 8.97306 8.16694 9.83201 8.05308 10.6941L7.40686 11.0079C6.72372 10.225 6.00057 9.40095 5.31744 8.58003C4.40658 7.5626 3.56957 6.4691 2.92643 5.21712L2.88643 5.13788C2.77258 4.90333 2.73565 4.66878 2.69565 4.39303C2.69565 4.27575 2.69565 4.15848 2.69565 4.0412V4.00317C2.69565 3.96514 2.73565 3.8859 2.73565 3.84786C2.77258 3.80665 2.77258 3.80665 2.81258 3.76862L2.8495 3.68938L2.92643 3.65135H3.228ZM19.2203 7.36926L19.6019 7.40729H19.7896L19.8296 7.44532L19.8665 7.48653V7.52456V7.5626V7.64184C19.8665 7.67987 19.8296 7.72108 19.8296 7.75911C19.7896 7.83835 19.7527 7.91442 19.7157 7.99366C19.0695 9.12837 17.5863 9.99049 16.0692 11.046C15.3461 11.5151 14.6629 11.9461 13.9398 12.3772C13.8659 12.2599 13.7521 12.1426 13.6382 12.0222C13.7521 11.084 13.8659 10.1458 13.9398 9.20761C15.4599 8.42472 17.057 7.83835 18.7279 7.40729C18.8695 7.36926 19.0449 7.36926 19.2203 7.36926ZM10.8256 10.7322C11.3949 11.3597 11.9273 11.9842 12.4966 12.6117C12.4966 12.8051 12.4597 13.0016 12.4227 13.2361C11.7765 13.588 11.1672 13.9398 10.521 14.2916L9.87479 13.6292C9.61015 13.3534 9.34551 13.0808 9.07779 12.8051C9.11779 12.3772 9.11779 11.9461 9.19165 11.5531C9.72401 11.2805 10.2933 11.0079 10.8256 10.7322ZM8.92701 14.4501L9.41936 14.8811H9.38244L8.89008 15.1537C8.89008 14.9192 8.92701 14.6466 8.92701 14.4501ZM12.2689 14.7639C12.2319 15.1157 12.1919 15.4675 12.1181 15.8574L11.4719 15.1918L12.2689 14.7639ZM7.14222 12.5705C7.36994 12.8051 7.56072 13.0808 7.78844 13.2742C7.74844 13.8637 7.71151 14.4881 7.67458 15.0745C7.67458 15.309 7.63458 15.5436 7.63458 15.7781L6.91451 16.1331V16.0919C5.43129 16.7575 4.36965 17.3851 3.0403 17.813C2.75411 17.8732 2.46793 17.9017 2.18483 17.9017C1.89865 17.9017 1.61554 17.8732 1.32936 17.813L1.2155 17.775L1.17858 17.7369C1.13858 17.6577 1.13858 17.6196 1.13858 17.5404V17.5024V17.4612V17.4231C1.13858 17.3851 1.13858 17.3439 1.17858 17.3059C1.78479 15.8986 4.55736 14.0983 6.80065 12.767C6.91451 12.6878 7.02837 12.6498 7.14222 12.5705ZM13.7121 13.981C14.6629 15.0745 15.5369 16.1331 16.22 17.0713C16.6385 17.6197 17.017 18.206 17.3586 18.8304C17.3586 18.8716 17.3586 18.8716 17.3986 18.9097C17.3986 18.9477 17.4355 19.0269 17.4355 19.065C17.4724 19.2235 17.5124 19.3788 17.5494 19.5372C17.5494 19.5753 17.5494 19.6545 17.5494 19.6926C17.5494 19.6926 17.5494 19.6926 17.5124 19.7306H17.4355C17.3586 19.6926 17.2847 19.6926 17.2447 19.6545C16.9401 19.5753 16.6385 19.458 16.3708 19.2995C15.1184 18.5198 13.9398 17.5784 12.8782 16.561C12.992 16.0539 13.0659 15.5055 13.1797 14.9984C13.2197 14.7227 13.2567 14.4501 13.2936 14.2155C13.4474 14.1363 13.5613 14.019 13.7121 13.981ZM10.2933 15.8193C10.8256 16.3265 11.358 16.7956 11.8904 17.3059C11.6226 18.7924 11.2441 20.2409 10.8256 21.6862H10.7887C10.5979 22.1965 10.3333 22.6656 9.95172 23.0555L9.87479 23.0967L9.83786 23.1347L9.72401 23.2139H9.57322C9.26858 22.5483 9.04086 21.8827 8.96394 21.1791C8.77622 19.6545 8.73622 18.0887 8.85008 16.523C9.30551 16.2884 9.80094 16.0539 10.2933 15.8193ZM12.2781 0C12.2135 0 12.1489 0.00316812 12.0781 0.0126793C10.9026 0.209191 10.3702 1.57845 10.0287 2.9477C9.68708 3.80665 9.38244 4.66878 9.15472 5.56894C9.04086 5.92076 8.92701 6.31062 8.81315 6.70364C7.90229 5.68621 6.91451 4.74802 5.84979 3.8859C5.07126 3.27417 4.18194 2.47544 3.11415 2.47544C3.08953 2.47544 3.06491 2.47544 3.0403 2.4786C2.8495 2.4786 2.62179 2.55468 2.46793 2.67195L2.35407 2.71315L2.28022 2.78922C2.24022 2.83043 2.16636 2.86846 2.12636 2.9065C2.08943 2.98574 2.05251 3.02377 2.0125 3.06498L1.93865 3.14105C1.86172 3.25832 1.82479 3.37559 1.78479 3.53407C1.74786 3.68938 1.74786 3.84786 1.74786 4.00317C1.74786 4.0412 1.74786 4.0412 1.74786 4.08241C1.82479 4.90333 2.08943 5.72425 2.46793 6.4691C2.54486 6.58637 2.58179 6.66244 2.65872 6.77971C3.19108 7.75911 3.79729 8.65927 4.52043 9.48019C5.08972 10.225 5.69901 10.9287 6.30522 11.6323C5.12972 12.2979 3.98807 13.0396 2.88643 13.8225C1.78479 14.6846 0.495432 15.5848 0.0369295 16.954C0 16.9921 0 17.0713 0 17.1094C0 17.1886 0 17.2266 0 17.2678C0 17.3851 0 17.5024 0 17.6196C0.123092 18.5864 0.77546 18.9826 1.61554 18.9826C1.82787 18.9826 2.04943 18.9572 2.28022 18.9097C3.95115 18.8716 5.58515 18.0095 7.10222 17.3439L7.63458 17.1094C7.59765 18.6751 7.74844 20.2409 8.13001 21.7655C8.35772 22.5103 8.69929 23.4485 9.04086 23.7623C9.26858 23.9271 9.48398 24 9.69016 24C10.441 24 11.0288 23.0365 11.358 22.393C11.8904 20.9445 12.3089 19.458 12.6104 17.9303C12.8012 18.0887 12.992 18.2821 13.2197 18.4406C14.3214 19.4168 15.5738 20.317 17.017 20.6307C17.0939 20.6688 17.1709 20.6688 17.2447 20.6688C17.2909 20.6815 17.337 20.6878 17.3863 20.6878C17.5063 20.6878 17.6325 20.6593 17.7402 20.6307C18.0048 20.5515 18.1956 20.3962 18.3464 20.1616C18.4602 19.8479 18.5002 19.496 18.3864 19.1822C18.3094 18.7544 18.1556 18.3613 17.9679 17.9715C16.9801 16.3677 15.8784 14.8019 14.6999 13.3534C14.8907 13.2361 15.0814 13.1189 15.2692 13.0016C16.4847 12.2599 17.6632 11.477 18.8418 10.6149C19.6757 10.0666 20.3589 9.32488 20.8174 8.46276C21.3836 7.14739 20.5589 6.37718 19.3649 6.37718C19.2818 6.37718 19.1957 6.38352 19.1064 6.38986L19.0695 6.35182C19.0357 6.34231 18.9957 6.33914 18.9433 6.33914C18.2202 6.33914 15.7184 7.09033 14.5091 7.60381C14.3214 7.67987 14.1306 7.75911 13.9398 7.83835C14.0167 6.93819 14.0167 6.03803 14.0167 5.09984C14.0167 2.69413 13.8413 0 12.2781 0Z" fill="#5801FF"/>
</svg>
