<svg width="58" height="20" viewBox="0 0 58 20" fill="none" xmlns="http://www.w3.org/2000/svg">
<g id="International">
<path id="visa-logo" fill-rule="evenodd" clip-rule="evenodd" d="M14.2606 19.4146H9.32416L5.62241 4.87687C5.44671 4.20814 5.07365 3.61694 4.52489 3.3383C3.15539 2.63806 1.64629 2.08078 0 1.79972V1.24002H7.95225C9.04978 1.24002 9.87292 2.08078 10.0101 3.05723L11.9308 13.5438L16.8648 1.24002H21.6641L14.2606 19.4146ZM24.4079 19.4146H19.7458L23.5848 1.24002H28.2469L24.4079 19.4146ZM34.2785 6.27487C34.4156 5.296 35.2388 4.73629 36.1991 4.73629C37.7082 4.59576 39.3521 4.87683 40.724 5.57464L41.5472 1.66157C40.1752 1.10186 38.6661 0.820801 37.2966 0.820801C32.7718 0.820801 29.4792 3.33825 29.4792 6.83215C29.4792 9.49013 31.8114 10.8857 33.4577 11.7265C35.2388 12.5649 35.9247 13.1246 35.7875 13.9629C35.7875 15.2204 34.4156 15.7801 33.0461 15.7801C31.3999 15.7801 29.7536 15.3609 28.2469 14.6607L27.4237 18.5762C29.07 19.274 30.8511 19.5551 32.4974 19.5551C37.571 19.6932 40.724 17.1782 40.724 13.4032C40.724 8.64936 34.2785 8.37072 34.2785 6.27487ZM57.0401 19.4146L53.3384 1.24002H49.3623C48.5391 1.24002 47.716 1.79972 47.4416 2.63806L40.5869 19.4146H45.3861L46.3441 16.759H52.2409L52.7896 19.4146H57.0401ZM50.0482 6.1344L51.4177 12.9841H47.5788L50.0482 6.1344Z" fill="#172B85"/>
</g>
</svg>
